{
.appVersion = "1208";
DisplayStrings = (
"nnannbnncnndnnennnnon\012nhlmijurlhnkntoauvnknxnn nsnznam\012ecdqgbp Opodal tpnfnncsyxvcz sezam sznsn\012kniha niva ennxnnit viwe sekxista nugat banananononbon\012nawnigacja Ewelina extremalny \012Cesta Gisbec Susana\012monitor smutgnvnnych menu stanislav\012migrenac futro\012cesta \012",
"HHIHHEHHFHH\012HHLHHPHHTHH\012HHUHHDHHNHH \012HHAHHZHHJHH\012HHBIHHOHHTHYHH\012HHMHHWHHVHH\012HHKHHPRKkHHOHoHHQHH\012HHCHHGHHSHHXHHOHHGHIHZHHSHH\012HOLLANDZIURA SZWECJA holland\012CGSEFZTL \012Roman Kamil\012Salvador Quatar Yemen Malta Vatican Wenezuela\012Honduras Oman Belgium India Ekvador France\012Lima Panama Turkey Ukraine\012Denmark Norway Andora Zambia",
"|=|/notequal |¬|/lozenge |/dagger |/daggerdbl |'|\"|\012|+|/minus |~|/approxequal |±|÷|×|<|>|/lessequal |/greaterequal |\012|#|/.notdef |/quoteright |H/quoteleft H/quotesinglbase H|/quotedblleft |/quotedblright |/quotedblbase |\012|/trademark |ª|º|?|!|¿|¡|*|@|§|¶|\012askH@Hbuziaczek.com\012¿Que? H¿HH?H\012|.|/bulletoperator |·|/bullet |.:;/ellipsis |^|/guilsinglleft |/guilsinglright |«|»|\012\012H(H)H[H]H{H}H/backslash H//H\012([{|}])"
);
customParameters = (
{
name = glyphOrder;
value = (
.notdef,
NULL,
CR,
space,
nbspace,
enspace,
emspace,
thinspace,
A,
B,
C,
D,
E,
F,
G,
H,
I,
J,
K,
L,
M,
N,
O,
P,
Q,
R,
S,
T,
U,
V,
W,
X,
Y,
Z,
a,
b,
c,
d,
e,
f,
g,
h,
i,
j,
k,
l,
m,
n,
o,
p,
q,
r,
s,
t,
u,
v,
w,
x,
y,
z,
quotesingle,
quotedbl,
numbersign,
ampersand,
asterisk,
comma,
hyphen,
softhyphen,
period,
colon,
semicolon,
question,
exclam,
questiondown,
exclamdown,
at,
parenleft,
parenright,
bracketleft,
bracketright,
braceleft,
braceright,
backslash,
slash,
brokenbar,
bar,
asciicircum,
underscore,
asciitilde,
section,
copyright,
registered,
trademark,
ordfeminine,
ordmasculine,
guilsinglleft,
guilsinglright,
guillemetleft,
guillemetright,
quoteleft,
quoteright,
quotesinglbase,
quotedblleft,
quotedblright,
quotedblbase,
dagger,
daggerdbl,
ellipsis,
paragraph,
periodcentered,
endash,

glyphs = (
{
color = 5;
glyphname = .notdef;
lastChange = "2020-04-10 13:05:01 +0000";
layers = (
{
background = {
paths = (
{
closed = 1;
nodes = (
"160 141 LINE",
"285 256 LINE",
"160 379 LINE",
"201 421 LINE",
"322 293 LINE",
"441 421 LINE",
"485 379 LINE",
"358 257 LINE",
"485 133 LINE",
"444 92 LINE",
"321 220 LINE",
"203 92 LINE"
);
},
{
closed = 1;
nodes = (
"64 0 LINE",
"579 0 LINE",
"579 515 LINE",
"64 515 LINE"
);
}
);
};
layerId = "DAAEA780-4710-4479-B303-5C05B40621B2";
paths = (
{
closed = 1;
nodes = (
"151 140 LINE",
"292 258 LINE",
"183 380 LINE",
"226 420 LINE",
"332 294 LINE",
"467 420 LINE",
"506 376 LINE",
"364 256 LINE",
"476 135 LINE",
"433 95 LINE",
"325 221 LINE",
"191 95 LINE"
);
},
{
closed = 1;
nodes = (
"39 0 LINE",
"554 0 LINE",
"618 515 LINE",
"103 515 LINE"
);
}
);
width = 645;
},
{
background = {
paths = (
{
closed = 1;
nodes = (
"151 140 LINE",
"291 259 LINE",
"181 380 LINE",
"227 422 LINE",
"333 295 LINE",
"468 422 LINE",
"506 379 LINE",
"364 259 LINE",
"478 136 LINE",
"432 94 LINE",
"323 223 LINE",
"188 97 LINE"
);
},
{
closed = 1;
nodes = (
"39 0 LINE",
"554 0 LINE",
"618 515 LINE",
"103 515 LINE"
);
}
);
};
guideLines = (
{
angle = 180;
position = "{127, 287}";
},
{
angle = 90;
position = "{358, 458}";
},
{
angle = 180;
position = "{128, 228}";
},
{
angle = 90;
position = "{297, 457}";
}
);
layerId = "925CB40E-795E-477B-BAE7-1EE7D58841B5";
paths = (
{
closed = 1;
nodes = (
"151 140 LINE",
"292 258 LINE",
"183 380 LINE",
"226 420 LINE",
"332 294 LINE",
"467 420 LINE",
"506 376 LINE",
"364 256 LINE",
"476 135 LINE",
"433 95 LINE",
"325 221 LINE",
"191 95 LINE"
);
},
{
closed = 1;
nodes = (
"39 0 LINE",
"554 0 LINE",
"618 515 LINE",
"103 515 LINE"
);
}
);
width = 645;
}
);
rightMetricsKey = "=|";
userData = {
com.typemytype.robofont.layerData = {
background = {
anchors = (
);
components = (
);
contours = (
{
points = (
{
segmentType = line;
smooth = 0;
x = 440;
y = 387;
},
{
segmentType = line;
smooth = 0;
x = 783;
y = 705;
},
{
segmentType = line;
smooth = 0;
x = 439;
y = 1043;
},
{
segmentType = line;
smooth = 0;
x = 553;
y = 1159;
},
{
segmentType = line;
smooth = 0;
x = 886;
y = 807;
},
{
segmentType = line;
smooth = 0;
x = 1214;
y = 1158;
},
{
segmentType = line;
smooth = 0;
x = 1333;
y = 1042;
},
{
segmentType = line;
smooth = 0;
x = 985;
y = 708;
},
{
segmentType = line;
smooth = 0;
x = 1333;
y = 365;
},
{
segmentType = line;
smooth = 0;
x = 1220;
y = 252;
},
{
segmentType = line;
smooth = 0;
x = 883;
y = 605;
},
{
segmentType = line;
smooth = 0;
x = 559;
y = 252;
}
);
},
{
points = (
{
segmentType = line;
smooth = 0;
x = 177;
y = 0;
},
{
segmentType = line;
smooth = 0;
x = 1593;
y = 0;
},
{
segmentType = line;
smooth = 0;
x = 1593;
y = 1416;
},
{
segmentType = line;
smooth = 0;
x = 177;
y = 1416;
}
);
}
);
lib = {
};
name = .notdef;
unicodes = (
);
width = 1770;
};
};
};
},
{
color = 8;
glyphname = A;
lastChange = "2020-03-11 19:27:33 +0000";
layers = (
{
anchors = (
{
name = btm;
position = "{234, 0}";
},
{
name = top;
position = "{315, 568}";
}
);
background = {
anchors = (
{
name = btm;
position = "{234, 0}";
},
{
name = top;
position = "{315, 568}";
}
);
paths = (
{
closed = 1;
nodes = (
"112 176 LINE",
"389 176 LINE",
"378 214 LINE",
"128 214 LINE"
);
},
{
closed = 1;
nodes = (
"337 570 LINE",
"276 570 LINE",
"38 62 LINE SMOOTH",
"33 51 OFFCURVE",
"25 45 OFFCURVE",
"13 42 CURVE SMOOTH",
"-31 32 LINE",
"-35 0 LINE",
"146 0 LINE",
"150 32 LINE",
"80 46 LINE",
"307 543 LINE",
"281 543 LINE",
"399 46 LINE",
"324 32 LINE",
"320 0 LINE",
"516 0 LINE",
"520 32 LINE",
"480 42 LINE SMOOTH",
"470 45 OFFCURVE",
"464 51 OFFCURVE",
"461 62 CURVE SMOOTH"
);
}
);
};
layerId = "DAAEA780-4710-4479-B303-5C05B40621B2";
paths = (
{
closed = 1;
nodes = (
"122 176 LINE",
"389 176 LINE",
"379 214 LINE",
"139 214 LINE"
);
},
{
closed = 1;
nodes = (
"336 570 LINE",
"275 570 LINE",
"55 62 LINE SMOOTH",
"50 51 OFFCURVE",
"41 45 OFFCURVE",
"30 42 CURVE SMOOTH",
"-10 32 LINE",
"-14 0 LINE",
"162 0 LINE",
"166 32 LINE",
"98 46 LINE",
"307 543 LINE",
"281 543 LINE",
"383 46 LINE",
"312 32 LINE",
"308 0 LINE",
"497 0 LINE",
"501 32 LINE",
"463 42 LINE SMOOTH",
"455 44 OFFCURVE",
"446 52 OFFCURVE",
"444 62 CURVE SMOOTH"
);
}
);
width = 530;
},
{
anchors = (
{
name = btm;
position = "{211, 0}";
},
{
name = top;
position = "{336, 568}";
}
);
background = {
anchors = (
{
name = btm;
position = "{211, 0}";
},
{
name = top;
position = "{336, 568}";
}
);
paths = (
{
closed = 1;
nodes = (
"123 166 LINE",
"389 166 LINE",
"376 228 LINE",
"148 228 LINE"
);
},
{
closed = 1;
nodes = (
"397 570 LINE",
"268 570 LINE",
"42 82 LINE SMOOTH",
"37 72 OFFCURVE",
"31 66 OFFCURVE",
"21 64 CURVE SMOOTH",
"-30 52 LINE",
"-36 0 LINE",
"176 0 LINE",
"182 52 LINE",
"115 64 LINE",
"308 517 LINE",
"277 517 LINE",
"363 64 LINE",
"291 52 LINE",
"285 0 LINE",
"558 0 LINE",
"564 52 LINE",
"521 64 LINE SMOOTH",
"511 67 OFFCURVE",
"505 72 OFFCURVE",
"503 82 CURVE SMOOTH"
);
}
);
};
layerId = "925CB40E-795E-477B-BAE7-1EE7D58841B5";
paths = (
{
closed = 1;
nodes = (
"129 166 LINE",
"385 166 LINE",
"371 228 LINE",
"152 228 LINE"
);
},
{
closed = 1;
nodes = (
"395 570 LINE",
"267 570 LINE",
"52 81 LINE SMOOTH",
"48 72 OFFCURVE",
"39 66 OFFCURVE",
"31 64 CURVE SMOOTH",
"-15 52 LINE",
"-21 0 LINE",
"183 0 LINE",
"189 52 LINE",
"125 64 LINE",
"312 521 LINE",
"275 521 LINE",
"354 64 LINE",
"287 52 LINE",
"281 0 LINE",
"541 0 LINE",
"547 52 LINE",
"506 64 LINE SMOOTH",
"492 68 OFFCURVE",
"489 75 OFFCURVE",
"488 82 CURVE SMOOTH"
);
}
);
width = 567;
}
);
leftKerningGroup = A;
rightKerningGroup = A;
unicode = 0041;
userData = {
com.typemytype.robofont.layerData = {
background = {
anchors = (
{
name = btm;
x = 757;
y = -170;
},
{
name = top;
x = 786;
y = 1700;
}
);
components = (
);
contours = (
{
points = (
{
segmentType = line;
smooth = 0;
x = 60;
y = 0;
},
{
segmentType = line;
smooth = 0;
x = 521;
y = 0;
},
{
segmentType = line;
smooth = 0;
x = 521;
y = 88;
},
{
segmentType = line;
smooth = 0;
x = 317;
y = 111;
},
{
segmentType = line;
smooth = 0;
x = 325;
y = 64;
},
{
segmentType = line;
smooth = 0;
x = 707;
y = 1214;
},
{
segmentType = line;
smooth = 0;
x = 763;
y = 1415;
},
{
segmentType = line;
smooth = 0;
x = 820;
y = 1220;
},
{
segmentType = line;
smooth = 0;
x = 1209;
y = 68;
},
{
segmentType = line;
smooth = 0;
x = 1226;
y = 111;
},
{
segmentType = line;
smooth = 0;
x = 1015;
y = 88;
},
{
segmentType = line;
smooth = 0;
x = 1015;
y = 0;
},
{
segmentType = line;
smooth = 0;
x = 1515;
y = 0;
},
{
segmentType = line;
smooth = 0;
x = 1515;
y = 88;
},
{
segmentType = line;
smooth = 0;
x = 1354;
y = 111;
},
{
segmentType = line;
smooth = 0;
x = 1397;
y = 62;
},
{
segmentType = line;
smooth = 0;
x = 870;
y = 1537;
},
{
segmentType = line;
smooth = 0;
x = 702;
y = 1537;
},
{
segmentType = line;
smooth = 0;
x = 178;
y = 68;
},
{
segmentType = line;
smooth = 0;
x = 221;
y = 112;
},
{
segmentType = line;
smooth = 0;
x = 60;
y = 88;
}
);
},
{
points = (
{
segmentType = line;
smooth = 0;
x = 384;
y = 433;
},
{
segmentType = line;
smooth = 0;
x = 1126;
y = 433;
},
{
segmentType = line;
smooth = 0;
x = 1084;
y = 539;
},
{
segmentType = line;
smooth = 0;
x = 418;
y = 539;
}
);
}
);
lib = {
};
name = A;
unicodes = (
);
width = 1486;
};
};
};
},
{
color = 8;
glyphname = B;
lastChange = "2020-04-09 08:02:06 +0000";
layers = (
{
anchors = (
{
name = btm;
position = "{255, 0}";
},
{
name = top;
position = "{326, 568}";
}
);
background = {
anchors = (
{
name = btm;
position = "{255, 0}";
},
{
name = top;
position = "{326, 568}";
}
);
paths = (
{
closed = 1;
nodes = (
"476 441 CURVE SMOOTH",
"486 527 OFFCURVE",
"439 574 OFFCURVE",
"310 574 CURVE SMOOTH",
"269 574 OFFCURVE",
"235 568 OFFCURVE",
"190 568 CURVE SMOOTH",
"81 568 LINE",
"77 536 LINE",
"137 524 LINE SMOOTH",
"147 522 OFFCURVE",
"152 513 OFFCURVE",
"151 503 CURVE SMOOTH",
"97 64 LINE SMOOTH",
"96 53 OFFCURVE",
"88 45 OFFCURVE",
"77 43 CURVE SMOOTH",
"15 32 LINE",
"11 0 LINE",
"117 0 LINE SMOOTH",
"174 0 OFFCURVE",
"199 -4 OFFCURVE",
"235 -4 CURVE SMOOTH",
"408 -4 OFFCURVE",
"471 71 OFFCURVE",
"483 167 CURVE SMOOTH",
"494 255 OFFCURVE",
"437 311 OFFCURVE",
"333 301 CURVE",
"332 297 LINE",
"418 307 OFFCURVE",
"467 367 OFFCURVE"
);
},
{
closed = 1;
nodes = (
"163 274 LINE",
"200 275 OFFCURVE",
"263 276 OFFCURVE",
"291 276 CURVE SMOOTH",
"387 276 OFFCURVE",
"425 241 OFFCURVE",
"414 156 CURVE SMOOTH",
"403 71 OFFCURVE",
"354 31 OFFCURVE",
"239 31 CURVE SMOOTH",
"213 31 OFFCURVE",
"176 34 OFFCURVE",
"155 37 CURVE",
"216 535 LINE",
"231 535 OFFCURVE",
"258 540 OFFCURVE",
"294 540 CURVE SMOOTH",
"393 540 OFFCURVE",
"423 504 OFFCURVE",
"414 432 CURVE SMOOTH",
"404 351 OFFCURVE",
"357 314 OFFCURVE",
"281 314 CURVE SMOOTH",
"261 314 OFFCURVE",
"205 313 OFFCURVE",
"168 315 CURVE"
);
}
);
};
hints = (
{
origin = "{0, 9}";
type = Corner;
name = _corner.RightSerif;
},
{
origin = "{0, 10}";
type = Corner;
name = _corner.LeftSerif;
}
);
layerId = "DAAEA780-4710-4479-B303-5C05B40621B2";
paths = (
{
closed = 1;
nodes = (
"400 306 OFFCURVE",
"451 380 OFFCURVE",
"451 453 CURVE SMOOTH",
"451 527 OFFCURVE",
"404 572 OFFCURVE",
"299 572 CURVE SMOOTH",
"269 572 OFFCURVE",
"220 568 OFFCURVE",
"190 568 CURVE SMOOTH",
"159 568 LINE",
"89 0 LINE",
"117 0 LINE SMOOTH",
"151 0 OFFCURVE",
"199 -4 OFFCURVE",
"235 -4 CURVE SMOOTH",
"379 -4 OFFCURVE",
"458 73 OFFCURVE",
"458 172 CURVE SMOOTH",
"458 252 OFFCURVE",
"393 307 OFFCURVE",
"312 302 CURVE",
"312 297 LINE"
);
},
{
closed = 1;
nodes = (
"162 274 LINE",
"191 275 OFFCURVE",
"227 276 OFFCURVE",
"254 276 CURVE SMOOTH",
"341 276 OFFCURVE",
"389 237 OFFCURVE",
"389 166 CURVE SMOOTH",
"389 84 OFFCURVE",
"339 31 OFFCURVE",
"243 31 CURVE SMOOTH",
"212 31 OFFCURVE",
"175 34 OFFCURVE",
"155 37 CURVE",
"217 535 LINE",
"234 536 OFFCURVE",
"263 538 OFFCURVE",
"282 538 CURVE SMOOTH",
"354 538 OFFCURVE",
"385 509 OFFCURVE",
"385 443 CURVE SMOOTH",
"385 370 OFFCURVE",
"342 314 OFFCURVE",
"244 314 CURVE SMOOTH",
"219 314 OFFCURVE",
"180 316 OFFCURVE",
"167 317 CURVE"
);
}
);
width = 492;
},
{
anchors = (
{
name = btm;
position = "{271, 0}";
},
{
name = top;
position = "{342, 568}";
}
);
background = {
anchors = (
{
name = btm;
position = "{271, 0}";
},
{
name = top;
position = "{342, 568}";
}
);
paths = (
{
closed = 1;
nodes = (
"535 439 CURVE SMOOTH",
"546 527 OFFCURVE",
"508 572 OFFCURVE",
"348 572 CURVE SMOOTH",
"297 572 OFFCURVE",
"261 568 OFFCURVE",
"214 568 CURVE SMOOTH",
"72 568 LINE",
"65 513 LINE",
"123 501 LINE SMOOTH",
"132 499 OFFCURVE",
"137 493 OFFCURVE",
"136 484 CURVE SMOOTH",
"86 81 LINE SMOOTH",
"85 72 OFFCURVE",
"78 65 OFFCURVE",
"69 63 CURVE SMOOTH",
"9 52 LINE",
"2 0 LINE",
"146 0 LINE SMOOTH",
"193 0 OFFCURVE",
"221 -4 OFFCURVE",
"275 -4 CURVE SMOOTH",
"463 -4 OFFCURVE",
"528 69 OFFCURVE",
"540 168 CURVE SMOOTH",
"552 266 OFFCURVE",
"478 310 OFFCURVE",
"378 303 CURVE",
"378 297 LINE",
"461 301 OFFCURVE",
"524 349 OFFCURVE"
);
},
{
closed = 1;
nodes = (
"221 260 LINE",
"252 261 OFFCURVE",
"283 263 OFFCURVE",
"306 263 CURVE SMOOTH",
"367 263 OFFCURVE",
"396 238 OFFCURVE",
"387 164 CURVE SMOOTH",
"378 91 OFFCURVE",
"345 49 OFFCURVE",
"274 49 CURVE SMOOTH",
"255 49 OFFCURVE",
"233 51 OFFCURVE",
"220 54 CURVE",
"277 518 LINE",
"286 520 OFFCURVE",
"317 521 OFFCURVE",
"325 521 CURVE SMOOTH",
"382 521 OFFCURVE",
"406 494 OFFCURVE",
"398 427 CURVE SMOOTH",
"390 359 OFFCURVE",
"362 321 OFFCURVE",
"308 321 CURVE SMOOTH",
"289 321 OFFCURVE",
"260 321 OFFCURVE",
"229 323 CURVE"
);
}
);
};
hints = (
{
origin = "{0, 10}";
type = Corner;
name = _corner.LeftSerif;
},
{
origin = "{0, 9}";
type = Corner;
name = _corner.RightSerif;
}
);
layerId = "925CB40E-795E-477B-BAE7-1EE7D58841B5";
paths = (
{
closed = 1;
nodes = (
"459 303 OFFCURVE",
"515 378 OFFCURVE",
"515 447 CURVE SMOOTH",
"515 521 OFFCURVE",
"469 572 OFFCURVE",
"342 572 CURVE SMOOTH",
"306 572 OFFCURVE",
"258 568 OFFCURVE",
"215 568 CURVE SMOOTH",
"147 568 LINE",
"77 0 LINE",
"146 0 LINE SMOOTH",
"190 0 OFFCURVE",
"229 -4 OFFCURVE",
"270 -4 CURVE SMOOTH",
"453 -4 OFFCURVE",
"519 81 OFFCURVE",
"519 172 CURVE SMOOTH",
"519 252 OFFCURVE",
"457 310 OFFCURVE",
"364 305 CURVE",
"363 299 LINE"
);
},
{
closed = 1;
nodes = (
"221 260 LINE",
"223 260 OFFCURVE",
"267 263 OFFCURVE",
"284 263 CURVE SMOOTH",
"346 263 OFFCURVE",
"372 234 OFFCURVE",
"372 170 CURVE SMOOTH",
"372 99 OFFCURVE",
"334 49 OFFCURVE",
"280 49 CURVE SMOOTH",
"254 49 OFFCURVE",
"231 51 OFFCURVE",
"219 54 CURVE",
"277 518 LINE",
"287 520 OFFCURVE",
"301 521 OFFCURVE",
"313 521 CURVE SMOOTH",
"361 521 OFFCURVE",
"380 493 OFFCURVE",
"380 441 CURVE SMOOTH",
"380 373 OFFCURVE",
"346 321 OFFCURVE",
"295 321 CURVE SMOOTH",
"278 321 OFFCURVE",
"254 321 OFFCURVE",
"228 323 CURVE"
);
}
);
width = 545;
}
);
leftKerningGroup = H;
leftMetricsKey = H;
unicode = 0042;
userData = {
com.typemytype.robofont.layerData = {
background = {
anchors = (
{
name = btm;
x = 737;
y = -170;
},
{
name = top;
x = 737;
y = 1700;
}
);
components = (
);
contours = (
{
points = (
{
segmentType = line;
smooth = 0;
x = 103;
y = 0;
},
{
segmentType = line;
smooth = 0;
x = 355;
y = 0;
},
{
smooth = 0;
x = 511;
y = 0;
},
{
smooth = 0;
x = 580;
y = -12;
},
{
segmentType = curve;
smooth = 1;
x = 679;
y = -12;
},
{
smooth = 0;
x = 1154;
y = -12;
},
{
smooth = 0;
x = 1296;
y = 215;
},
{
segmentType = curve;
smooth = 1;
x = 1296;
y = 455;
},
{
smooth = 0;
x = 1296;
y = 671;
},
{
smooth = 0;
x = 1144;
y = 820;
},
{
segmentType = curve;
smooth = 0;
x = 885;
y = 810;
},
{
smooth = 0;
x = 1084;
y = 850;
},
{
smooth = 0;
x = 1187;
y = 1009;
},
{
segmentType = curve;
smooth = 1;
x = 1187;
y = 1194;
},
{
smooth = 0;
x = 1187;
y = 1410;
},
{
smooth = 0;
x = 1048;
y = 1538;
},
{
segmentType = curve;
smooth = 1;
x = 681;
y = 1538;
},
{
smooth = 0;
x = 580;
y = 1538;
},
{
smooth = 0;
x = 485;
y = 1522;
},
{
segmentType = curve;
smooth = 0;
x = 363;
y = 1522;
},
{
segmentType = line;
smooth = 0;
x = 107;
y = 1522;
},
{
segmentType = line;
smooth = 0;
x = 107;
y = 1434;
},
{
segmentType = line;
smooth = 0;
x = 299;
y = 1409;
},
{
segmentType = line;
smooth = 0;
x = 278;
y = 1450;
},
{
segmentType = line;
smooth = 0;
x = 278;
y = 65;
},
{
segmentType = line;
smooth = 0;
x = 317;
y = 111;
},
{
segmentType = line;
smooth = 0;
x = 103;
y = 88;
}
);
},
{
points = (
{
segmentType = line;
smooth = 0;
x = 447;
y = 736;
},
{
smooth = 0;
x = 508;
y = 739;
},
{
smooth = 0;
x = 666;
y = 738;
},
{
segmentType = curve;
smooth = 1;
x = 740;
y = 738;
},
{
smooth = 0;
x = 1004;
y = 738;
},
{
smooth = 0;
x = 1113;
y = 642;
},
{
segmentType = curve;
smooth = 1;
x = 1113;
y = 423;
},
{
smooth = 0;
x = 1113;
y = 216;
},
{
smooth = 0;
x = 996;
y = 85;
},
{
segmentType = curve;
smooth = 1;
x = 678;
y = 85;
},
{
smooth = 0;
x = 608;
y = 85;
},
{
smooth = 0;
x = 499;
y = 87;
},
{
segmentType = curve;
smooth = 0;
x = 447;
y = 103;
}
);
},
{
points = (
{
segmentType = line;
smooth = 0;
x = 447;
y = 1431;
},
{
smooth = 0;
x = 487;
y = 1432;
},
{
smooth = 0;
x = 560;
y = 1444;
},
{
segmentType = curve;
smooth = 1;
x = 660;
y = 1444;
},
{
smooth = 0;
x = 931;
y = 1444;
},
{
smooth = 0;
x = 1018;
y = 1346;
},
{
segmentType = curve;
smooth = 1;
x = 1018;
y = 1156;
},
{
smooth = 0;
x = 1018;
y = 955;
},
{
smooth = 0;
x = 906;
y = 843;
},
{
segmentType = curve;
smooth = 1;
x = 699;
y = 843;
},
{
smooth = 0;
x = 645;
y = 843;
},
{
smooth = 0;
x = 509;
y = 842;
},
{
segmentType = curve;
smooth = 0;
x = 447;
y = 846;
}
);
}
);
lib = {
};
name = B;
unicodes = (
);
width = 1437;
};
};
};
},
{
color = 8;
glyphname = C;
lastChange = "2020-04-10 11:46:15 +0000";
layers = (
{
anchors = (
{
name = btm;
position = "{296, 0}";
},
{
name = top;
position = "{370, 568}";
}
);
background = {
anchors = (
{
name = btm;
position = "{296, 0}";
},
{
name = top;
position = "{370, 568}";
}
);
paths = (
{
closed = 1;
nodes = (
"273 -9 CURVE SMOOTH",
"330 -9 OFFCURVE",
"390 2 OFFCURVE",
"433 19 CURVE",
"444 58 OFFCURVE",
"454 104 OFFCURVE",
"458 142 CURVE",
"422 146 LINE",
"388 74 LINE SMOOTH",
"383 63 OFFCURVE",
"377 56 OFFCURVE",
"366 49 CURVE SMOOTH",
"342 34 OFFCURVE",
"305 27 OFFCURVE",
"270 27 CURVE SMOOTH",
"140 27 OFFCURVE",
"102 139 OFFCURVE",
"121 288 CURVE SMOOTH",
"142 463 OFFCURVE",
"221 540 OFFCURVE",
"331 540 CURVE SMOOTH",
"371 540 OFFCURVE",
"409 530 OFFCURVE",
"425 520 CURVE SMOOTH",
"434 514 OFFCURVE",
"439 508 OFFCURVE",
"440 496 CURVE SMOOTH",
"447 419 LINE",
"483 419 LINE",
"494 462 OFFCURVE",
"503 510 OFFCURVE",
"507 550 CURVE",
"460 569 OFFCURVE",
"400 576 OFFCURVE",
"357 576 CURVE SMOOTH",
"191 576 OFFCURVE",
"73 473 OFFCURVE",
"49 275 CURVE SMOOTH",
"27 99 OFFCURVE",
"97 -9 OFFCURVE"
);
}
);
};
layerId = "DAAEA780-4710-4479-B303-5C05B40621B2";
paths = (
{
closed = 1;
nodes = (
"307 -9 OFFCURVE",
"371 3 OFFCURVE",
"410 23 CURVE",
"418 60 OFFCURVE",
"423 114 OFFCURVE",
"423 152 CURVE",
"387 154 LINE",
"367 89 LINE SMOOTH",
"361 70 OFFCURVE",
"356 57 OFFCURVE",
"343 47 CURVE SMOOTH",
"325 33 OFFCURVE",
"298 26 OFFCURVE",
"268 26 CURVE SMOOTH",
"174 26 OFFCURVE",
"122 101 OFFCURVE",
"122 232 CURVE SMOOTH",
"122 393 OFFCURVE",
"194 537 OFFCURVE",
"330 537 CURVE SMOOTH",
"355 537 OFFCURVE",
"377 532 OFFCURVE",
"392 523 CURVE SMOOTH",
"412 511 OFFCURVE",
"413 496 OFFCURVE",
"413 480 CURVE SMOOTH",
"415 413 LINE",
"451 413 LINE",
"464 454 OFFCURVE",
"475 506 OFFCURVE",
"479 546 CURVE",
"437 563 OFFCURVE",
"388 575 OFFCURVE",
"340 575 CURVE SMOOTH",
"169 575 OFFCURVE",
"50 421 OFFCURVE",
"50 225 CURVE SMOOTH",
"50 63 OFFCURVE",
"132 -9 OFFCURVE",
"258 -9 CURVE SMOOTH"
);
}
);
width = 483;
},
{
anchors = (
{
name = btm;
position = "{281, 0}";
},
{
name = top;
position = "{369, 568}";
}
);
background = {
anchors = (
{
name = btm;
position = "{252, 0}";
},
{
name = top;
position = "{339, 568}";
}
);
paths = (
{
closed = 1;
nodes = (
"257 -13 CURVE SMOOTH",
"322 -13 OFFCURVE",
"399 1 OFFCURVE",
"454 19 CURVE",
"468 73 OFFCURVE",
"476 126 OFFCURVE",
"478 171 CURVE",
"399 177 LINE",
"364 93 LINE SMOOTH",
"357 78 OFFCURVE",
"351 71 OFFCURVE",
"344 65 CURVE SMOOTH",
"326 50 OFFCURVE",
"302 43 OFFCURVE",
"278 43 CURVE SMOOTH",
"195 43 OFFCURVE",
"169 127 OFFCURVE",
"188 286 CURVE SMOOTH",
"209 458 OFFCURVE",
"261 524 OFFCURVE",
"334 524 CURVE SMOOTH",
"357 524 OFFCURVE",
"378 517 OFFCURVE",
"390 508 CURVE SMOOTH",
"402 500 OFFCURVE",
"404 488 OFFCURVE",
"406 479 CURVE SMOOTH",
"415 384 LINE",
"496 384 LINE",
"514 445 OFFCURVE",
"523 500 OFFCURVE",
"525 548 CURVE",
"474 568 OFFCURVE",
"409 579 OFFCURVE",
"351 579 CURVE SMOOTH",
"181 579 OFFCURVE",
"58 483 OFFCURVE",
"32 272 CURVE SMOOTH",
"9 88 OFFCURVE",
"82 -13 OFFCURVE"
);
},
{
closed = 0;
nodes = (
"734 77 LINE",
"734 77 OFFCURVE",
"734 77 OFFCURVE",
"733 77 CURVE SMOOTH"
);
}
);
};
layerId = "925CB40E-795E-477B-BAE7-1EE7D58841B5";
paths = (
{
closed = 1;
nodes = (
"329 -13 OFFCURVE",
"394 0 OFFCURVE",
"446 18 CURVE",
"456 67 OFFCURVE",
"460 139 OFFCURVE",
"459 174 CURVE",
"382 177 LINE",
"354 87 LINE SMOOTH",
"350 73 OFFCURVE",
"346 61 OFFCURVE",
"333 53 CURVE SMOOTH",
"320 45 OFFCURVE",
"304 42 OFFCURVE",
"286 42 CURVE SMOOTH",
"212 42 OFFCURVE",
"189 123 OFFCURVE",
"189 222 CURVE SMOOTH",
"189 388 OFFCURVE",
"241 526 OFFCURVE",
"337 526 CURVE SMOOTH",
"355 526 OFFCURVE",
"374 521 OFFCURVE",
"385 512 CURVE SMOOTH",
"401 500 OFFCURVE",
"402 482 OFFCURVE",
"403 466 CURVE SMOOTH",
"407 393 LINE",
"485 393 LINE",
"502 448 OFFCURVE",
"511 512 OFFCURVE",
"514 551 CURVE",
"473 568 OFFCURVE",
"416 581 OFFCURVE",
"361 581 CURVE SMOOTH",
"151 581 OFFCURVE",
"39 409 OFFCURVE",
"39 213 CURVE SMOOTH",
"39 85 OFFCURVE",
"90 -13 OFFCURVE",
"259 -13 CURVE SMOOTH"
);
}
);
width = 507;
},
{
anchors = (
{
name = btm;
position = "{288, 0}";
},
{
name = top;
position = "{376, 568}";
}
);
associatedMasterId = "925CB40E-795E-477B-BAE7-1EE7D58841B5";
background = {
paths = (
{
closed = 1;
nodes = (
"293 -13 CURVE SMOOTH",
"359 -13 OFFCURVE",
"435 1 OFFCURVE",
"490 19 CURVE",
"504 73 OFFCURVE",
"511 122 OFFCURVE",
"515 171 CURVE",
"435 177 LINE",
"400 93 LINE SMOOTH",
"394 79 OFFCURVE",
"389 73 OFFCURVE",
"379 64 CURVE SMOOTH",
"364 51 OFFCURVE",
"338 43 OFFCURVE",
"314 43 CURVE SMOOTH",
"248 43 OFFCURVE",
"218 96 OFFCURVE",
"218 195 CURVE SMOOTH",
"218 390 OFFCURVE",
"280 524 OFFCURVE",
"371 524 CURVE SMOOTH",
"392 524 OFFCURVE",
"415 517 OFFCURVE",
"427 508 CURVE SMOOTH",
"438 500 OFFCURVE",
"441 488 OFFCURVE",
"442 479 CURVE SMOOTH",
"452 384 LINE",
"533 384 LINE",
"551 445 OFFCURVE",
"559 504 OFFCURVE",
"561 548 CURVE",
"511 568 OFFCURVE",
"446 579 OFFCURVE",
"388 579 CURVE SMOOTH",
"189 579 OFFCURVE",
"64 437 OFFCURVE",
"64 210 CURVE SMOOTH",
"64 65 OFFCURVE",
"139 -13 OFFCURVE"
);
}
);
};
layerId = "C03C7571-9931-4249-A57E-E08EEDA4262D";
name = "Feb 12 20, 16:46";
paths = (
{
closed = 1;
nodes = (
"44 82 OFFCURVE",
"115 -13 OFFCURVE",
"282 -13 CURVE SMOOTH",
"339 -13 OFFCURVE",
"411 -2 OFFCURVE",
"464 19 CURVE",
"478 73 OFFCURVE",
"476 122 OFFCURVE",
"480 171 CURVE",
"400 177 LINE",
"370 93 LINE SMOOTH",
"368 87 OFFCURVE",
"362 75 OFFCURVE",
"349 64 CURVE SMOOTH",
"335 52 OFFCURVE",
"313 44 OFFCURVE",
"286 44 CURVE SMOOTH",
"225 44 OFFCURVE",
"198 111 OFFCURVE",
"198 205 CURVE SMOOTH",
"198 366 OFFCURVE",
"252 524 OFFCURVE",
"340 524 CURVE SMOOTH",
"357 524 OFFCURVE",
"377 518 OFFCURVE",
"391 508 CURVE SMOOTH",
"405 498 OFFCURVE",
"407 488 OFFCURVE",
"407 479 CURVE SMOOTH",
"412 384 LINE",
"493 384 LINE",
"511 445 OFFCURVE",
"524 504 OFFCURVE",
"526 548 CURVE",
"487 564 OFFCURVE",
"405 579 OFFCURVE",
"343 579 CURVE SMOOTH",
"157 579 OFFCURVE",
"44 433 OFFCURVE",
"44 239 CURVE SMOOTH"
);
}
);
width = 531;
},
{
anchors = (
{
name = btm;
position = "{295, 0}";
},
{
name = top;
position = "{369, 568}";
}
);
associatedMasterId = "DAAEA780-4710-4479-B303-5C05B40621B2";
background = {
anchors = (
{
name = btm;
position = "{295, 0}";
},
{
name = top;
position = "{369, 568}";
}
);
paths = (
{
closed = 1;
nodes = (
"272 -9 CURVE SMOOTH",
"329 -9 OFFCURVE",
"389 2 OFFCURVE",
"432 19 CURVE",
"443 58 OFFCURVE",
"453 104 OFFCURVE",
"457 142 CURVE",
"421 146 LINE",
"387 74 LINE SMOOTH",
"382 63 OFFCURVE",
"376 56 OFFCURVE",
"365 49 CURVE SMOOTH",
"341 34 OFFCURVE",
"304 27 OFFCURVE",
"269 27 CURVE SMOOTH",
"139 27 OFFCURVE",
"101 139 OFFCURVE",
"120 288 CURVE SMOOTH",
"141 463 OFFCURVE",
"220 540 OFFCURVE",
"330 540 CURVE SMOOTH",
"370 540 OFFCURVE",
"408 530 OFFCURVE",
"424 520 CURVE SMOOTH",
"433 514 OFFCURVE",
"438 508 OFFCURVE",
"439 496 CURVE SMOOTH",
"446 419 LINE",
"482 419 LINE",
"493 462 OFFCURVE",
"502 510 OFFCURVE",
"506 550 CURVE",
"459 569 OFFCURVE",
"399 576 OFFCURVE",
"356 576 CURVE SMOOTH",
"190 576 OFFCURVE",
"72 473 OFFCURVE",
"48 275 CURVE SMOOTH",
"26 99 OFFCURVE",
"96 -9 OFFCURVE"
);
}
);
};
layerId = "CFF1A182-F85E-465C-9122-BA23F78297A7";
name = "Mar 22 20, 14:53";
paths = (
{
closed = 1;
nodes = (
"47 90 OFFCURVE",
"116 -9 OFFCURVE",
"269 -9 CURVE SMOOTH",
"318 -9 OFFCURVE",
"375 1 OFFCURVE",
"419 20 CURVE",
"426 58 OFFCURVE",
"432 110 OFFCURVE",
"432 150 CURVE",
"397 152 LINE",
"373 84 LINE SMOOTH",
"366 64 OFFCURVE",
"363 54 OFFCURVE",
"344 44 CURVE SMOOTH",
"325 34 OFFCURVE",
"298 29 OFFCURVE",
"273 29 CURVE SMOOTH",
"164 29 OFFCURVE",
"117 114 OFFCURVE",
"117 232 CURVE SMOOTH",
"117 393 OFFCURVE",
"202 538 OFFCURVE",
"325 538 CURVE SMOOTH",
"349 538 OFFCURVE",
"375 533 OFFCURVE",
"392 523 CURVE SMOOTH",
"413 511 OFFCURVE",
"411 498 OFFCURVE",
"412 480 CURVE SMOOTH",
"416 414 LINE",
"452 414 LINE",
"465 456 OFFCURVE",
"475 506 OFFCURVE",
"480 546 CURVE",
"438 564 OFFCURVE",
"388 576 OFFCURVE",
"336 576 CURVE SMOOTH",
"158 576 OFFCURVE",
"47 422 OFFCURVE",
"47 234 CURVE SMOOTH"
);
}
);
width = 492;
},
{
anchors = (
{
name = btm;
position = "{295, 0}";
},
{
name = top;
position = "{369, 568}";
}
);
associatedMasterId = "DAAEA780-4710-4479-B303-5C05B40621B2";
background = {
anchors = (
{
name = btm;
position = "{295, 0}";
},
{
name = top;
position = "{369, 568}";
}
);
paths = (
{
closed = 1;
nodes = (
"272 -9 CURVE SMOOTH",
"329 -9 OFFCURVE",
"389 2 OFFCURVE",
"432 19 CURVE",
"443 58 OFFCURVE",
"453 104 OFFCURVE",
"457 142 CURVE",
"421 146 LINE",
"387 74 LINE SMOOTH",
"382 63 OFFCURVE",
"376 56 OFFCURVE",
"365 49 CURVE SMOOTH",
"341 34 OFFCURVE",
"304 27 OFFCURVE",
"269 27 CURVE SMOOTH",
"139 27 OFFCURVE",
"101 139 OFFCURVE",
"120 288 CURVE SMOOTH",
"141 463 OFFCURVE",
"220 540 OFFCURVE",
"330 540 CURVE SMOOTH",
"370 540 OFFCURVE",
"408 530 OFFCURVE",
"424 520 CURVE SMOOTH",
"433 514 OFFCURVE",
"438 508 OFFCURVE",
"439 496 CURVE SMOOTH",
"446 419 LINE",
"482 419 LINE",
"493 462 OFFCURVE",
"502 510 OFFCURVE",
"506 550 CURVE",
"459 569 OFFCURVE",
"399 576 OFFCURVE",
"356 576 CURVE SMOOTH",
"190 576 OFFCURVE",
"72 473 OFFCURVE",
"48 275 CURVE SMOOTH",
"26 99 OFFCURVE",
"96 -9 OFFCURVE"
);
}
);
};
layerId = "7B740A91-17CB-48C2-ADAB-DE077FC81A0B";
name = "Mar 22 20, 18:16";
paths = (
{
closed = 1;
nodes = (
"314 -9 OFFCURVE",
"372 8 OFFCURVE",
"410 27 CURVE",
"418 66 OFFCURVE",
"422 116 OFFCURVE",
"423 156 CURVE",
"387 158 LINE",
"365 90 LINE SMOOTH",
"357 65 OFFCURVE",
"353 60 OFFCURVE",
"342 50 CURVE SMOOTH",
"326 37 OFFCURVE",
"294 26 OFFCURVE",
"260 26 CURVE SMOOTH",
"171 26 OFFCURVE",
"122 99 OFFCURVE",
"122 224 CURVE SMOOTH",
"122 394 OFFCURVE",
"198 537 OFFCURVE",
"332 537 CURVE SMOOTH",
"356 537 OFFCURVE",
"375 532 OFFCURVE",
"389 523 CURVE SMOOTH",
"409 510 OFFCURVE",
"410 502 OFFCURVE",
"411 480 CURVE SMOOTH",
"413 413 LINE",
"449 413 LINE",
"462 455 OFFCURVE",
"473 506 OFFCURVE",
"477 546 CURVE",
"435 564 OFFCURVE",
"385 575 OFFCURVE",
"346 575 CURVE SMOOTH",
"166 575 OFFCURVE",
"49 415 OFFCURVE",
"49 219 CURVE SMOOTH",
"49 66 OFFCURVE",
"125 -9 OFFCURVE",
"253 -9 CURVE SMOOTH"
);
}
);
width = 492;
},
{
anchors = (
{
name = btm;
position = "{282, 0}";
},
{
name = top;
position = "{370, 568}";
}
);
associatedMasterId = "925CB40E-795E-477B-BAE7-1EE7D58841B5";
background = {
anchors = (
{
name = btm;
position = "{253, 0}";
},
{
name = top;
position = "{340, 568}";
}
);
paths = (
{
closed = 1;
nodes = (
"258 -13 CURVE SMOOTH",
"323 -13 OFFCURVE",
"400 1 OFFCURVE",
"455 19 CURVE",
"469 73 OFFCURVE",
"477 126 OFFCURVE",
"479 171 CURVE",
"400 177 LINE",
"365 93 LINE SMOOTH",
"358 78 OFFCURVE",
"352 71 OFFCURVE",
"345 65 CURVE SMOOTH",
"327 50 OFFCURVE",
"303 43 OFFCURVE",
"279 43 CURVE SMOOTH",
"196 43 OFFCURVE",
"170 127 OFFCURVE",
"189 286 CURVE SMOOTH",
"210 458 OFFCURVE",
"262 524 OFFCURVE",
"335 524 CURVE SMOOTH",
"358 524 OFFCURVE",
"379 517 OFFCURVE",
"391 508 CURVE SMOOTH",
"403 500 OFFCURVE",
"405 488 OFFCURVE",
"407 479 CURVE SMOOTH",
"416 384 LINE",
"497 384 LINE",
"515 445 OFFCURVE",
"524 500 OFFCURVE",
"526 548 CURVE",
"475 568 OFFCURVE",
"410 579 OFFCURVE",
"352 579 CURVE SMOOTH",
"182 579 OFFCURVE",
"59 483 OFFCURVE",
"33 272 CURVE SMOOTH",
"10 88 OFFCURVE",
"83 -13 OFFCURVE"
);
},
{
closed = 0;
nodes = (
"734.958 76.822 LINE",
"734.775 76.914 OFFCURVE",
"734.591 77.006 OFFCURVE",
"734.408 77.099 CURVE SMOOTH"
);
}
);
};
layerId = "F96F380B-B5B0-4E10-8F8D-F9E2D7C45C94";
name = "Mar 22 20, 18:41";
paths = (
{
closed = 1;
nodes = (
"40 85 OFFCURVE",
"105 -13 OFFCURVE",
"279 -13 CURVE SMOOTH",
"330 -13 OFFCURVE",
"407 0 OFFCURVE",
"457 20 CURVE",
"469 70 OFFCURVE",
"472 133 OFFCURVE",
"471 177 CURVE",
"392 180 LINE",
"373 116 LINE SMOOTH",
"363 81 OFFCURVE",
"356 67 OFFCURVE",
"344 58 CURVE SMOOTH",
"330 48 OFFCURVE",
"313 44 OFFCURVE",
"292 44 CURVE SMOOTH",
"216 44 OFFCURVE",
"190 117 OFFCURVE",
"190 219 CURVE SMOOTH",
"190 368 OFFCURVE",
"244 524 OFFCURVE",
"341 524 CURVE SMOOTH",
"361 524 OFFCURVE",
"374 519 OFFCURVE",
"386 510 CURVE SMOOTH",
"401 498 OFFCURVE",
"404 486 OFFCURVE",
"406 445 CURVE SMOOTH",
"409 383 LINE",
"486 383 LINE",
"504 439 OFFCURVE",
"514 503 OFFCURVE",
"515 545 CURVE",
"467 566 OFFCURVE",
"403 579 OFFCURVE",
"346 579 CURVE SMOOTH",
"148 579 OFFCURVE",
"40 421 OFFCURVE",
"40 235 CURVE SMOOTH"
);
}
);
width = 518;
}
);
leftKerningGroup = O;
leftMetricsKey = O;
rightKerningGroup = C;
unicode = 0043;
userData = {
com.typemytype.robofont.layerData = {
background = {
anchors = (
{
name = btm;
x = 765;
y = -170;
},
{
name = top;
x = 784;
y = 1700;
}
);
components = (
);
contours = (
{
points = (
{
segmentType = curve;
smooth = 1;
x = 772;
y = -23;
},
{
smooth = 0;
x = 1017;
y = -23;
},
{
smooth = 0;
x = 1093;
y = 51;
},
{
segmentType = curve;
smooth = 0;
x = 1201;
y = 56;
},
{
segmentType = line;
smooth = 0;
x = 1251;
y = 329;
},
{
segmentType = line;
smooth = 0;
x = 1151;
y = 344;
},
{
segmentType = line;
smooth = 0;
x = 1069;
y = 151;
},
{
smooth = 0;
x = 1015;
y = 108;
},
{
smooth = 0;
x = 946;
y = 75;
},
{
segmentType = curve;
smooth = 1;
x = 776;
y = 75;
},
{
smooth = 0;
x = 426;
y = 75;
},
{
smooth = 0;
x = 267;
y = 416;
},
{
segmentType = curve;
smooth = 1;
x = 267;
y = 786;
},
{
smooth = 0;
x = 267;
y = 1207;
},
{
smooth = 0;
x = 484;
y = 1439;
},
{
segmentType = curve;
smooth = 1;
x = 762;
y = 1439;
},
{
smooth = 0;
x = 924;
y = 1439;
},
{
smooth = 0;
x = 1031;
y = 1410;
},
{
segmentType = curve;
smooth = 0;
x = 1068;
y = 1376;
},
{
segmentType = line;
smooth = 0;
x = 1112;
y = 1139;
},
{
segmentType = line;
smooth = 0;
x = 1218;
y = 1139;
},
{
segmentType = line;
smooth = 0;
x = 1235;
y = 1473;
},
{
smooth = 0;
x = 1164;
y = 1489;
},
{
smooth = 0;
x = 986;
y = 1538;
},
{
segmentType = curve;
smooth = 1;
x = 803;
y = 1538;
},
{
smooth = 0;
x = 391;
y = 1538;
},
{
smooth = 0;
x = 74;
y = 1224;
},
{
segmentType = curve;
smooth = 1;
x = 74;
y = 768;
},
{
smooth = 0;
x = 74;
y = 293;
},
{
smooth = 0;
x = 325;
y = -23;
}
);
}
);
lib = {
};
name = C;
unicodes = (
);
width = 1391;
};
};
};
},
{
color = 8;
glyphname = D;
lastChange = "2020-04-08 22:24:43 +0000";
layers = (
{
anchors = (
{
name = btm;
position = "{280, 0}";
},
{
name = top;
position = "{330, 568}";
}
);
background = {
anchors = (
{
name = btm;
position = "{280, 0}";
},
{
name = top;
position = "{330, 568}";
}
);
paths = (
{
closed = 1;
nodes = (
"189 568 CURVE SMOOTH",
"80 568 LINE",
"76 536 LINE",
"136 524 LINE SMOOTH",
"146 522 OFFCURVE",
"151 513 OFFCURVE",
"150 503 CURVE SMOOTH",
"96 65 LINE SMOOTH",
"95 53 OFFCURVE",
"87 45 OFFCURVE",
"74 43 CURVE SMOOTH",
"14 32 LINE",
"10 0 LINE",
"120 0 LINE SMOOTH",
"163 0 OFFCURVE",
"208 -5 OFFCURVE",
"240 -5 CURVE SMOOTH",
"412 -5 OFFCURVE",
"537 96 OFFCURVE",
"561 300 CURVE SMOOTH",
"582 475 OFFCURVE",
"512 574 OFFCURVE",
"323 574 CURVE SMOOTH",
"277 574 OFFCURVE",
"235 568 OFFCURVE"
);
},
{
closed = 1;
nodes = (
"155 37 CURVE",
"216 533 LINE",
"236 534 OFFCURVE",
"265 537 OFFCURVE",
"298 537 CURVE SMOOTH",
"449 537 OFFCURVE",
"515 464 OFFCURVE",
"493 288 CURVE SMOOTH",
"471 113 OFFCURVE",
"387 35 OFFCURVE",
"255 31 CURVE SMOOTH",
"224 30 OFFCURVE",
"178 33 OFFCURVE"
);
}
);
};
hints = (
{
origin = "{0, 9}";
type = Corner;
name = _corner.RightSerif;
options = 1;
},
{
origin = "{0, 10}";
type = Corner;
name = _corner.LeftSerif;
}
);
layerId = "DAAEA780-4710-4479-B303-5C05B40621B2";
paths = (
{
closed = 1;
nodes = (
"443 -4 OFFCURVE",
"525 177 OFFCURVE",
"525 334 CURVE SMOOTH",
"525 493 OFFCURVE",
"437 571 OFFCURVE",
"282 571 CURVE SMOOTH",
"243 571 OFFCURVE",
"206 568 OFFCURVE",
"178 568 CURVE SMOOTH",
"159 568 LINE",
"88 0 LINE",
"117 0 LINE SMOOTH",
"154 0 OFFCURVE",
"191 -4 OFFCURVE",
"223 -4 CURVE SMOOTH"
);
},
{
closed = 1;
nodes = (
"208 32 OFFCURVE",
"175 34 OFFCURVE",
"155 37 CURVE",
"216 533 LINE",
"238 534 OFFCURVE",
"252 535 OFFCURVE",
"268 535 CURVE SMOOTH",
"393 535 OFFCURVE",
"454 467 OFFCURVE",
"454 322 CURVE SMOOTH",
"454 194 OFFCURVE",
"400 32 OFFCURVE",
"230 32 CURVE SMOOTH"
);
}
);
width = 555;
},
{
anchors = (
{
name = btm;
position = "{293, 0}";
},
{
name = top;
position = "{339, 568}";
}
);
background = {
anchors = (
{
name = btm;
position = "{293, 0}";
},
{
name = top;
position = "{339, 568}";
}
);
paths = (
{
closed = 1;
nodes = (
"213 568 CURVE SMOOTH",
"72 568 LINE",
"65 513 LINE",
"123 501 LINE SMOOTH",
"132 499 OFFCURVE",
"137 493 OFFCURVE",
"136 484 CURVE SMOOTH",
"86 81 LINE SMOOTH",
"85 72 OFFCURVE",
"78 65 OFFCURVE",
"69 63 CURVE SMOOTH",
"9 52 LINE",
"2 0 LINE",
"144 0 LINE SMOOTH",
"173 0 OFFCURVE",
"231 -5 OFFCURVE",
"264 -6 CURVE SMOOTH",
"443 -11 OFFCURVE",
"563 101 OFFCURVE",
"587 303 CURVE SMOOTH",
"609 490 OFFCURVE",
"528 572 OFFCURVE",
"343 572 CURVE SMOOTH",
"301 572 OFFCURVE",
"262 568 OFFCURVE"
);
},
{
closed = 1;
nodes = (
"221 59 CURVE",
"277 512 LINE",
"281 513 OFFCURVE",
"302 519 OFFCURVE",
"327 519 CURVE SMOOTH",
"426 519 OFFCURVE",
"452 431 OFFCURVE",
"434 282 CURVE SMOOTH",
"413 107 OFFCURVE",
"357 51 OFFCURVE",
"273 51 CURVE SMOOTH",
"256 51 OFFCURVE",
"233 53 OFFCURVE"
);
}
);
};
hints = (
{
origin = "{0, 9}";
type = Corner;
name = _corner.RightSerif;
},
{
origin = "{0, 10}";
type = Corner;
name = _corner.LeftSerif;
}
);
layerId = "925CB40E-795E-477B-BAE7-1EE7D58841B5";
paths = (
{
closed = 1;
nodes = (
"488 -5 OFFCURVE",
"564 203 OFFCURVE",
"564 349 CURVE SMOOTH",
"564 504 OFFCURVE",
"480 571 OFFCURVE",
"324 571 CURVE SMOOTH",
"293 571 OFFCURVE",
"225 568 OFFCURVE",
"187 568 CURVE SMOOTH",
"147 568 LINE",
"76 0 LINE",
"121 0 LINE SMOOTH",
"161 0 OFFCURVE",
"210 -5 OFFCURVE",
"246 -5 CURVE SMOOTH"
);
},
{
closed = 1;
nodes = (
"251 52 OFFCURVE",
"233 54 OFFCURVE",
"219 59 CURVE",
"276 514 LINE",
"285 516 OFFCURVE",
"300 517 OFFCURVE",
"310 517 CURVE SMOOTH",
"385 517 OFFCURVE",
"416 461 OFFCURVE",
"416 349 CURVE SMOOTH",
"416 230 OFFCURVE",
"379 52 OFFCURVE",
"268 52 CURVE SMOOTH"
);
}
);
width = 590;
}
);
leftKerningGroup = H;
leftMetricsKey = H;
rightKerningGroup = D;
unicode = 0044;
userData = {
com.typemytype.robofont.layerData = {
background = {
anchors = (
{
name = btm;
x = 805;
y = -170;
},
{
name = top;
x = 806;
y = 1700;
}
);
components = (
);
contours = (
{
points = (
{
segmentType = line;
smooth = 0;
x = 102;
y = 0;
},
{
smooth = 0;
x = 194;
y = 0;
},
{
smooth = 0;
x = 274;
y = 0;
},
{
segmentType = curve;
smooth = 1;
x = 365;
y = 0;
},
{
smooth = 0;
x = 483;
y = 0;
},
{
smooth = 0;
x = 600;
y = -14;
},
{
segmentType = curve;
smooth = 1;
x = 698;
y = -16;
},
{
smooth = 0;
x = 1154;
y = -27;
},
{
smooth = 0;
x = 1475;
y = 305;
},
{
segmentType = curve;
smooth = 1;
x = 1475;
y = 806;
},
{
smooth = 0;
x = 1475;
y = 1246;
},
{
smooth = 0;
x = 1256;
y = 1538;
},
{
segmentType = curve;
smooth = 1;
x = 724;
y = 1538;
},
{
smooth = 0;
x = 603;
y = 1538;
},
{
smooth = 0;
x = 488;
y = 1522;
},
{
segmentType = curve;
smooth = 1;
x = 362;
y = 1522;
},
{
segmentType = line;
smooth = 0;
x = 114;
y = 1522;
},
{
segmentType = line;
smooth = 0;
x = 114;
y = 1434;
},
{
segmentType = line;
smooth = 0;
x = 302;
y = 1408;
},
{
segmentType = line;
smooth = 0;
x = 278;
y = 1445;
},
{
segmentType = line;
smooth = 0;
x = 278;
y = 67;
},
{
segmentType = line;
smooth = 0;
x = 318;
y = 112;
},
{
segmentType = line;
smooth = 0;
x = 102;
y = 88;
}
);
},
{
points = (
{
segmentType = line;
smooth = 0;
x = 447;
y = 1427;
},
{
smooth = 0;
x = 503;
y = 1430;
},
{
smooth = 0;
x = 579;
y = 1440;
},
{
segmentType = curve;
smooth = 1;
x = 672;
y = 1440;
},
{
smooth = 0;
x = 1087;
y = 1440;
},
{
smooth = 0;
x = 1294;
y = 1217;
},
{
segmentType = curve;
smooth = 1;
x = 1294;
y = 771;
},
{
smooth = 0;
x = 1294;
y = 326;
},
{
smooth = 0;
x = 1053;
y = 89;
},
{
segmentType = curve;
smooth = 1;
x = 723;
y = 83;
},
{
smooth = 0;
x = 629;
y = 81;
},
{
smooth = 0;
x = 545;
y = 82;
},
{
segmentType = curve;
smooth = 0;
x = 447;
y = 100;
}
);
}
);
lib = {
};
name = D;
unicodes = (
);
width = 1624;
};
};
};
},
{
color = 8;
glyphname = E;
lastChange = "2020-03-17 16:19:47 +0000";
layers = (
{
anchors = (
{
name = btm;
position = "{232, 0}";
},
{
name = top;
position = "{295, 568}";
}
);
background = {
anchors = (
{
name = btm;
position = "{232, 0}";
},
{
name = top;
position = "{295, 568}";
}
);
paths = (
{
closed = 1;
nodes = (
"455 433 LINE",
"465 482 OFFCURVE",
"470 524 OFFCURVE",
"474 568 CURVE",
"81 568 LINE",
"77 536 LINE",
"134 524 LINE SMOOTH",
"146 521 OFFCURVE",
"152 513 OFFCURVE",
"151 501 CURVE SMOOTH",
"97 66 LINE SMOOTH",
"95 53 OFFCURVE",
"89 46 OFFCURVE",
"75 43 CURVE SMOOTH",
"15 32 LINE",
"11 0 LINE",
"422 0 LINE",
"437 47 OFFCURVE",
"449 96 OFFCURVE",
"455 140 CURVE",
"424 144 LINE",
"389 69 LINE SMOOTH",
"384 58 OFFCURVE",
"378 52 OFFCURVE",
"365 48 CURVE SMOOTH",
"346 42 OFFCURVE",
"314 39 OFFCURVE",
"279 39 CURVE SMOOTH",
"156 39 LINE",
"185 272 LINE",
"368 268 LINE",
"374 317 LINE",
"189 311 LINE",
"216 532 LINE",
"317 532 LINE SMOOTH",
"351 532 OFFCURVE",
"380 530 OFFCURVE",
"397 524 CURVE SMOOTH",
"409 520 OFFCURVE",
"415 513 OFFCURVE",
"416 503 CURVE SMOOTH",
"422 433 LINE"
);
}
);
};
guideLines = (
{
angle = 180;
position = "{194, 272}";
},
{
position = "{194, 311}";
}
);
hints = (
{
origin = "{0, 5}";
type = Corner;
name = _corner.LeftSerif;
},
{
origin = "{0, 4}";
type = Corner;
name = _corner.RightSerif;
}
);
layerId = "DAAEA780-4710-4479-B303-5C05B40621B2";
paths = (
{
closed = 1;
nodes = (
"431 433 LINE",
"442 482 OFFCURVE",
"450 523 OFFCURVE",
"454 568 CURVE",
"159 568 LINE",
"89 0 LINE",
"404 0 LINE",
"416 47 OFFCURVE",
"426 98 OFFCURVE",
"429 140 CURVE",
"398 144 LINE",
"366 69 LINE SMOOTH",
"363 62 OFFCURVE",
"358 53 OFFCURVE",
"344 48 CURVE SMOOTH",
"326 42 OFFCURVE",
"294 39 OFFCURVE",
"259 39 CURVE SMOOTH",
"156 39 LINE",
"185 272 LINE",
"338 268 LINE",
"345 284 OFFCURVE",
"347 301 OFFCURVE",
"344 317 CURVE",
"190 311 LINE",
"217 532 LINE",
"296 532 LINE SMOOTH",
"323 532 OFFCURVE",
"358 531 OFFCURVE",
"376 524 CURVE SMOOTH",
"388 519 OFFCURVE",
"392 513 OFFCURVE",
"393 503 CURVE SMOOTH",
"398 433 LINE"
);
}
);
width = 470;
},
{
anchors = (
{
name = btm;
position = "{255, 0}";
},
{
name = top;
position = "{311, 568}";
}
);
background = {
anchors = (
{
name = btm;
position = "{255, 0}";
},
{
name = top;
position = "{311, 568}";
}
);
paths = (
{
closed = 1;
nodes = (
"495 413 LINE",
"505 466 OFFCURVE",
"512 517 OFFCURVE",
"511 568 CURVE",
"74 568 LINE",
"67 513 LINE",
"123 502 LINE SMOOTH",
"134 500 OFFCURVE",
"138 493 OFFCURVE",
"137 481 CURVE SMOOTH",
"88 83 LINE SMOOTH",
"87 72 OFFCURVE",
"80 65 OFFCURVE",
"69 63 CURVE SMOOTH",
"11 52 LINE",
"4 0 LINE",
"460 0 LINE",
"476 59 OFFCURVE",
"488 112 OFFCURVE",
"495 171 CURVE",
"431 181 LINE",
"389 91 LINE SMOOTH",
"383 78 OFFCURVE",
"378 72 OFFCURVE",
"367 67 CURVE SMOOTH",
"354 61 OFFCURVE",
"324 59 OFFCURVE",
"300 59 CURVE SMOOTH",
"223 59 LINE",
"248 256 LINE",
"403 252 LINE",
"412 327 LINE",
"256 321 LINE",
"279 512 LINE",
"340 512 LINE SMOOTH",
"364 512 OFFCURVE",
"388 508 OFFCURVE",
"400 504 CURVE SMOOTH",
"411 500 OFFCURVE",
"416 493 OFFCURVE",
"418 480 CURVE SMOOTH",
"430 413 LINE"
);
}
);
};
hints = (
{
origin = "{0, 4}";
type = Corner;
name = _corner.RightSerif;
},
{
origin = "{0, 5}";
type = Corner;
name = _corner.LeftSerif;
}
);
layerId = "925CB40E-795E-477B-BAE7-1EE7D58841B5";
paths = (
{
closed = 1;
nodes = (
"480 413 LINE",
"492 466 OFFCURVE",
"499 520 OFFCURVE",
"502 568 CURVE",
"147 568 LINE",
"76 0 LINE",
"444 0 LINE",
"460 59 OFFCURVE",
"469 117 OFFCURVE",
"473 172 CURVE",
"409 178 LINE",
"375 99 LINE SMOOTH",
"368 82 OFFCURVE",
"362 72 OFFCURVE",
"347 67 CURVE SMOOTH",
"330 61 OFFCURVE",
"303 59 OFFCURVE",
"274 59 CURVE SMOOTH",
"219 59 LINE",
"244 256 LINE",
"377 252 LINE",
"386 275 OFFCURVE",
"389 301 OFFCURVE",
"387 327 CURVE",
"252 321 LINE",
"276 512 LINE",
"332 512 LINE SMOOTH",
"350 512 OFFCURVE",
"373 512 OFFCURVE",
"389 506 CURVE SMOOTH",
"405 500 OFFCURVE",
"407 493 OFFCURVE",
"409 476 CURVE SMOOTH",
"416 413 LINE"
);
}
);
width = 511;
}
);
leftKerningGroup = H;
leftMetricsKey = H;
rightKerningGroup = E;
unicode = 0045;
userData = {
com.typemytype.robofont.guides = (
{
angle = 180;
isGlobal = 0;
x = 605;
y = 749;
},
{
angle = 0;
isGlobal = 0;
x = 605;
y = 855;
}
);
com.typemytype.robofont.layerData = {
background = {
anchors = (
{
name = btm;
x = 698;
y = -170;
},
{
name = top;
x = 696;
y = 1700;
}
);
components = (
);
contours = (
{
points = (
{
segmentType = line;
smooth = 0;
x = 103;
y = 0;
},
{
segmentType = line;
smooth = 0;
x = 1212;
y = 0;
},
{
segmentType = line;
smooth = 0;
x = 1275;
y = 346;
},
{
segmentType = line;
smooth = 0;
x = 1178;
y = 377;
},
{
segmentType = line;
smooth = 0;
x = 1074;
y = 121;
},
{
segmentType = line;
smooth = 0;
x = 447;
y = 104;
},
{
segmentType = line;
smooth = 0;
x = 447;
y = 735;
},
{
segmentType = line;
smooth = 0;
x = 824;
y = 730;
},
{
segmentType = line;
smooth = 0;
x = 849;
y = 555;
},
{
segmentType = line;
smooth = 0;
x = 953;
y = 555;
},
{
segmentType = line;
smooth = 0;
x = 953;
y = 1007;
},
{
segmentType = line;
smooth = 0;
x = 849;
y = 1007;
},
{
segmentType = line;
smooth = 0;
x = 824;
y = 837;
},
{
segmentType = line;
smooth = 0;
x = 447;
y = 831;
},
{
segmentType = line;
smooth = 0;
x = 447;
y = 1427;
},
{
segmentType = line;
smooth = 0;
x = 995;
y = 1418;
},
{
segmentType = line;
smooth = 0;
x = 1051;
y = 1221;
},
{
segmentType = line;
smooth = 0;
x = 1148;
y = 1221;
},
{
segmentType = line;
smooth = 0;
x = 1120;
y = 1522;
},
{
segmentType = line;
smooth = 0;
x = 107;
y = 1522;
},
{
segmentType = line;
smooth = 0;
x = 107;
y = 1434;
},
{
segmentType = line;
smooth = 0;
x = 299;
y = 1409;
},
{
segmentType = line;
smooth = 0;
x = 278;
y = 1453;
},
{
segmentType = line;
smooth = 0;
x = 278;
y = 66;
},
{
segmentType = line;
smooth = 0;
x = 325;
y = 113;
},
{
segmentType = line;
smooth = 0;
x = 103;
y = 88;
}
);
}
);
lib = {
};
name = E;
unicodes = (
);
width = 1348;
};
};
};
},
{
color = 8;
glyphname = F;
lastChange = "2020-03-17 16:19:47 +0000";
layers = (
{
anchors = (
{
name = btm;
position = "{225, 0}";
},
{
name = top;
position = "{286, 568}";
}
);
background = {
anchors = (
{
name = btm;
position = "{225, 0}";
},
{
name = top;
position = "{286, 568}";
}
);
paths = (
{
closed = 1;
nodes = (
"367 260 LINE",
"373 310 LINE",
"188 304 LINE",
"216 532 LINE",
"317 532 LINE SMOOTH",
"351 532 OFFCURVE",
"380 530 OFFCURVE",
"397 524 CURVE SMOOTH",
"409 520 OFFCURVE",
"415 513 OFFCURVE",
"416 503 CURVE SMOOTH",
"422 433 LINE",
"455 433 LINE",
"465 482 OFFCURVE",
"470 524 OFFCURVE",
"474 568 CURVE",
"81 568 LINE",
"77 536 LINE",
"134 524 LINE SMOOTH",
"146 521 OFFCURVE",
"152 513 OFFCURVE",
"151 501 CURVE SMOOTH",
"97 66 LINE SMOOTH",
"95 53 OFFCURVE",
"89 46 OFFCURVE",
"75 43 CURVE SMOOTH",
"15 32 LINE",
"11 0 LINE",
"262 0 LINE",
"266 32 LINE",
"176 44 LINE SMOOTH",
"165 45 OFFCURVE",
"158 54 OFFCURVE",
"159 65 CURVE SMOOTH",
"184 265 LINE"
);
}
);
};
hints = (
{
origin = "{0, 25}";
type = Corner;
name = _corner.RightSerif;
},
{
origin = "{0, 26}";
type = Corner;
name = _corner.LeftSerif;
}
);
layerId = "DAAEA780-4710-4479-B303-5C05B40621B2";
paths = (
{
closed = 1;
nodes = (
"255 0 LINE",
"260 32 LINE",
"177 44 LINE SMOOTH",
"168 45 OFFCURVE",
"158 52 OFFCURVE",
"160 68 CURVE SMOOTH",
"184 265 LINE",
"336 260 LINE",
"343 277 OFFCURVE",
"346 293 OFFCURVE",
"343 310 CURVE",
"189 304 LINE",
"217 532 LINE",
"296 532 LINE SMOOTH",
"323 532 OFFCURVE",
"358 531 OFFCURVE",
"376 524 CURVE SMOOTH",
"388 519 OFFCURVE",
"392 513 OFFCURVE",
"393 503 CURVE SMOOTH",
"398 433 LINE",
"431 433 LINE",
"442 482 OFFCURVE",
"450 523 OFFCURVE",
"454 568 CURVE",
"159 568 LINE",
"89 0 LINE"
);
}
);
width = 436;
},
{
anchors = (
{
name = btm;
position = "{234, -62}";
},
{
name = top;
position = "{234, 618}";
}
);
associatedMasterId = "DAAEA780-4710-4479-B303-5C05B40621B2";
layerId = "250A3C6B-31B9-4D3E-9872-561517E1DD17";
name = "Light Oct 7 15, 12:37";
paths = (
{
closed = 1;
nodes = (
"163 265 LINE",
"272 265 LINE SMOOTH",
"285 265 OFFCURVE",
"291 257 OFFCURVE",
"295 245 CURVE SMOOTH",
"310 198 LINE",
"342 198 LINE",
"342 370 LINE",
"310 370 LINE",
"295 324 LINE SMOOTH",
"291 311 OFFCURVE",
"285 304 OFFCURVE",
"272 304 CURVE SMOOTH",
"163 304 LINE",
"163 532 LINE",
"263 532 LINE SMOOTH",
"299 532 OFFCURVE",
"329 530 OFFCURVE",
"348 524 CURVE SMOOTH",
"359 520 OFFCURVE",
"365 513 OFFCURVE",
"369 503 CURVE SMOOTH",
"395 433 LINE",
"428 433 LINE",
"429 482 OFFCURVE",
"427 523 OFFCURVE",
"418 568 CURVE",
"23 568 LINE",
"23 536 LINE",
"81 524 LINE SMOOTH",
"94 522 OFFCURVE",
"101 513 OFFCURVE",
"101 501 CURVE SMOOTH",
"101 66 LINE SMOOTH",
"101 53 OFFCURVE",
"94 45 OFFCURVE",
"81 43 CURVE SMOOTH",
"23 32 LINE",
"23 0 LINE",
"273 0 LINE",
"273 32 LINE",
"181 44 LINE SMOOTH",
"170 45 OFFCURVE",
"163 54 OFFCURVE",
"163 65 CURVE SMOOTH"
);
}
);
width = 460;
},
{
anchors = (
{
name = btm;
position = "{236, 0}";
},
{
name = top;
position = "{307, 568}";
}
);
background = {
anchors = (
{
name = btm;
position = "{236, 0}";
},
{
name = top;
position = "{307, 568}";
}
);
paths = (
{
closed = 1;
nodes = (
"401 243 LINE",
"410 317 LINE",
"253 312 LINE",
"278 512 LINE",
"339 512 LINE SMOOTH",
"363 512 OFFCURVE",
"387 508 OFFCURVE",
"399 504 CURVE SMOOTH",
"410 500 OFFCURVE",
"415 493 OFFCURVE",
"417 480 CURVE SMOOTH",
"429 413 LINE",
"494 413 LINE",
"504 466 OFFCURVE",
"511 517 OFFCURVE",
"510 568 CURVE",
"73 568 LINE",
"66 513 LINE",
"122 502 LINE SMOOTH",
"133 500 OFFCURVE",
"137 493 OFFCURVE",
"136 481 CURVE SMOOTH",
"87 82 LINE SMOOTH",
"86 72 OFFCURVE",
"79 65 OFFCURVE",
"69 63 CURVE SMOOTH",
"10 52 LINE",
"3 0 LINE",
"324 0 LINE",
"331 52 LINE",
"239 64 LINE SMOOTH",
"230 65 OFFCURVE",
"224 72 OFFCURVE",
"225 81 CURVE SMOOTH",
"245 247 LINE"
);
}
);
};
hints = (
{
origin = "{0, 26}";
type = Corner;
name = _corner.LeftSerif;
},
{
origin = "{0, 25}";
type = Corner;
name = _corner.RightSerif;
}
);
layerId = "925CB40E-795E-477B-BAE7-1EE7D58841B5";
paths = (
{
closed = 1;
nodes = (
"308 0 LINE",
"315 52 LINE",
"245 61 LINE SMOOTH",
"221 64 OFFCURVE",
"222 74 OFFCURVE",
"223 85 CURVE SMOOTH",
"243 247 LINE",
"377 243 LINE",
"386 266 OFFCURVE",
"387 293 OFFCURVE",
"386 317 CURVE",
"251 312 LINE",
"276 512 LINE",
"332 512 LINE SMOOTH",
"353 512 OFFCURVE",
"375 512 OFFCURVE",
"387 507 CURVE SMOOTH",
"405 500 OFFCURVE",
"407 493 OFFCURVE",
"409 476 CURVE SMOOTH",
"416 413 LINE",
"480 413 LINE",
"492 466 OFFCURVE",
"499 521 OFFCURVE",
"502 568 CURVE",
"147 568 LINE",
"76 0 LINE"
);
}
);
width = 475;
}
);
leftKerningGroup = H;
leftMetricsKey = H;
unicode = 0046;
userData = {
com.typemytype.robofont.layerData = {
"Light Oct 7 15, 12:37" = {
anchors = (
{
name = btm;
x = 644;
y = -170;
},
{
name = top;
x = 644;
y = 1700;
}
);
components = (
);
contours = (
{
points = (
{
segmentType = line;
smooth = 0;
x = 447;
y = 729;
},
{
segmentType = line;
smooth = 1;
x = 748;
y = 729;
},
{
smooth = 0;
x = 785;
y = 729;
},
{
smooth = 0;
x = 801;
y = 708;
},
{
segmentType = curve;
smooth = 1;
x = 812;
y = 674;
},
{
segmentType = line;
smooth = 0;
x = 853;
y = 545;
},
{
segmentType = line;
smooth = 0;
x = 941;
y = 545;
},
{
segmentType = line;
smooth = 0;
x = 941;
y = 1017;
},
{
segmentType = line;
smooth = 0;
x = 853;
y = 1017;
},
{
segmentType = line;
smooth = 1;
x = 812;
y = 890;
},
{
smooth = 0;
x = 801;
y = 856;
},
{
smooth = 0;
x = 785;
y = 835;
},
{
segmentType = curve;
smooth = 1;
x = 748;
y = 835;
},
{
segmentType = line;
smooth = 0;
x = 447;
y = 835;
},
{
segmentType = line;
smooth = 0;
x = 447;
y = 1464;
},
{
segmentType = line;
smooth = 1;
x = 724;
y = 1464;
},
{
smooth = 0;
x = 821;
y = 1464;
},
{
smooth = 0;
x = 906;
y = 1458;
},
{
segmentType = curve;
smooth = 1;
x = 957;
y = 1440;
},
{
smooth = 0;
x = 988;
y = 1429;
},
{
smooth = 0;
x = 1003;
y = 1411;
},
{
segmentType = curve;
smooth = 1;
x = 1014;
y = 1383;
},
{
segmentType = line;
smooth = 0;
x = 1087;
y = 1192;
},
{
segmentType = line;
smooth = 0;
x = 1176;
y = 1192;
},
{
smooth = 0;
x = 1181;
y = 1325;
},
{
smooth = 0;
x = 1173;
y = 1439;
},
{
segmentType = curve;
smooth = 0;
x = 1150;
y = 1562;
},
{
segmentType = line;
smooth = 0;
x = 62;
y = 1562;
},
{
segmentType = line;
smooth = 0;
x = 62;
y = 1474;
},
{
segmentType = line;
smooth = 1;
x = 223;
y = 1442;
},
{
smooth = 0;
x = 258;
y = 1435;
},
{
smooth = 0;
x = 277;
y = 1412;
},
{
segmentType = curve;
smooth = 1;
x = 277;
y = 1377;
},
{
segmentType = line;
smooth = 1;
x = 277;
y = 182;
},
{
smooth = 0;
x = 277;
y = 146;
},
{
smooth = 0;
x = 259;
y = 124;
},
{
segmentType = curve;
smooth = 1;
x = 223;
y = 117;
},
{
segmentType = line;
smooth = 0;
x = 62;
y = 88;
},
{
segmentType = line;
smooth = 0;
x = 62;
y = 0;
},
{
segmentType = line;
smooth = 0;
x = 751;
y = 0;
},
{
segmentType = line;
smooth = 0;
x = 751;
y = 88;
},
{
segmentType = line;
smooth = 1;
x = 498;
y = 121;
},
{
smooth = 0;
x = 468;
y = 125;
},
{
smooth = 0;
x = 447;
y = 149;
},
{
segmentType = curve;
smooth = 1;
x = 447;
y = 179;
}
);
}
);
lib = {
};
name = F;
unicodes = (
);
width = 1264;
};
background = {
anchors = (
{
name = btm;
x = 644;
y = -170;
},
{
name = top;
x = 644;
y = 1700;
}
);
components = (
);
contours = (
{
points = (
{
segmentType = line;
smooth = 0;
x = 111;
y = 0;
},
{
segmentType = line;
smooth = 0;
x = 767;
y = 0;
},
{
segmentType = line;
smooth = 0;
x = 767;
y = 88;
},
{
segmentType = line;
smooth = 0;
x = 406;
y = 110;
},
{
segmentType = line;
smooth = 0;
x = 447;
y = 66;
},
{
segmentType = line;
smooth = 0;
x = 447;
y = 722;
},
{
segmentType = line;
smooth = 0;
x = 856;
y = 714;
},
{
segmentType = line;
smooth = 0;
x = 890;
y = 541;
},
{
segmentType = line;
smooth = 0;
x = 985;
y = 541;
},
{
segmentType = line;
smooth = 0;
x = 985;
y = 994;
},
{
segmentType = line;
smooth = 0;
x = 890;
y = 994;
},
{
segmentType = line;
smooth = 0;
x = 856;
y = 827;
},
{
segmentType = line;
smooth = 0;
x = 447;
y = 821;
},
{
segmentType = line;
smooth = 0;
x = 447;
y = 1427;
},
{
segmentType = line;
smooth = 0;
x = 1024;
y = 1418;
},
{
segmentType = line;
smooth = 0;
x = 1080;
y = 1185;
},
{
segmentType = line;
smooth = 0;
x = 1192;
y = 1185;
},
{
segmentType = line;
smooth = 0;
x = 1171;
y = 1522;
},
{
segmentType = line;
smooth = 0;
x = 99;
y = 1522;
},
{
segmentType = line;
smooth = 0;
x = 99;
y = 1434;
},
{
segmentType = line;
smooth = 0;
x = 321;
y = 1406;
},
{
segmentType = line;
smooth = 0;
x = 278;
y = 1450;
},
{
segmentType = line;
smooth = 0;
x = 278;
y = 66;
},
{
segmentType = line;
smooth = 0;
x = 322;
y = 111;
},
{
segmentType = line;
smooth = 0;
x = 111;
y = 88;
}
);
}
);
lib = {
};
name = F;
unicodes = (
);
width = 1236;
};
};
};
},
{
color = 8;
glyphname = G;
lastChange = "2020-04-10 11:46:18 +0000";
layers = (
{
anchors = (
{
name = btm;
position = "{265, 0}";
},
{
name = top;
position = "{349, 568}";
}
);
background = {
anchors = (
{
name = btm;
position = "{265, 0}";
},
{
name = top;
position = "{349, 568}";
}
);
paths = (
{
closed = 1;
nodes = (
"453 79 CURVE",
"449 114 LINE",
"409 55 OFFCURVE",
"348 37 OFFCURVE",
"291 37 CURVE SMOOTH",
"169 37 OFFCURVE",
"121 122 OFFCURVE",
"121 233 CURVE SMOOTH",
"121 416 OFFCURVE",
"215 541 OFFCURVE",
"350 541 CURVE SMOOTH",
"394 541 OFFCURVE",
"430 531 OFFCURVE",
"451 518 CURVE SMOOTH",
"462 512 OFFCURVE",
"465 502 OFFCURVE",
"466 490 CURVE SMOOTH",
"473 420 LINE",
"509 420 LINE",
"520 459 OFFCURVE",
"529 499 OFFCURVE",
"532 540 CURVE",
"487 567 OFFCURVE",
"429 576 OFFCURVE",
"372 576 CURVE SMOOTH",
"180 576 OFFCURVE",
"50 434 OFFCURVE",
"50 222 CURVE SMOOTH",
"50 85 OFFCURVE",
"122 -8 OFFCURVE",
"266 -8 CURVE SMOOTH",
"342 -8 OFFCURVE",
"404 18 OFFCURVE"
);
},
{
closed = 1;
nodes = (
"470 4 LINE",
"499 239 LINE",
"546 246 LINE",
"551 285 LINE",
"332 285 LINE",
"327 246 LINE",
"436 239 LINE",
"412 47 LINE",
"416 47 LINE",
"452 -3 LINE"
);
}
);
};
layerId = "DAAEA780-4710-4479-B303-5C05B40621B2";
paths = (
{
closed = 1;
nodes = (
"308 -8 OFFCURVE",
"371 18 OFFCURVE",
"416 79 CURVE",
"406 114 LINE",
"372 57 OFFCURVE",
"312 36 OFFCURVE",
"264 36 CURVE SMOOTH",
"173 36 OFFCURVE",
"122 115 OFFCURVE",
"122 240 CURVE SMOOTH",
"122 419 OFFCURVE",
"214 538 OFFCURVE",
"334 538 CURVE SMOOTH",
"370 538 OFFCURVE",
"397 531 OFFCURVE",
"412 522 CURVE SMOOTH",
"429 512 OFFCURVE",
"432 500 OFFCURVE",
"433 484 CURVE SMOOTH",
"438 421 LINE",
"474 421 LINE",
"484 456 OFFCURVE",
"494 500 OFFCURVE",
"498 545 CURVE",
"459 565 OFFCURVE",
"406 575 OFFCURVE",
"354 575 CURVE SMOOTH",
"161 575 OFFCURVE",
"50 411 OFFCURVE",
"50 228 CURVE SMOOTH",
"50 78 OFFCURVE",
"125 -8 OFFCURVE",
"246 -8 CURVE SMOOTH"
);
},
{
closed = 1;
nodes = (
"435 4 LINE",
"461 219 LINE SMOOTH",
"463 236 OFFCURVE",
"468 243 OFFCURVE",
"484 246 CURVE SMOOTH",
"510 251 LINE",
"514 285 LINE",
"306 285 LINE",
"302 249 LINE",
"402 240 LINE",
"378 50 LINE",
"382 50 LINE",
"417 -3 LINE"
);
}
);
width = 539;
},
{
anchors = (
{
name = btm;
position = "{268, 0}";
},
{
name = top;
position = "{370, 568}";
}
);
background = {
anchors = (
{
name = btm;
position = "{268, 0}";
},
{
name = top;
position = "{370, 568}";
}
);
paths = (
{
closed = 1;
nodes = (
"428 78 CURVE",
"411 118 LINE",
"384 83 OFFCURVE",
"344 59 OFFCURVE",
"292 59 CURVE SMOOTH",
"222 59 OFFCURVE",
"196 105 OFFCURVE",
"196 190 CURVE SMOOTH",
"196 388 OFFCURVE",
"261 524 OFFCURVE",
"357 524 CURVE SMOOTH",
"383 524 OFFCURVE",
"402 516 OFFCURVE",
"414 506 CURVE SMOOTH",
"422 499 OFFCURVE",
"427 490 OFFCURVE",
"428 478 CURVE SMOOTH",
"438 395 LINE",
"522 395 LINE",
"535 446 OFFCURVE",
"545 496 OFFCURVE",
"547 545 CURVE",
"501 565 OFFCURVE",
"434 579 OFFCURVE",
"368 579 CURVE SMOOTH",
"159 579 OFFCURVE",
"38 445 OFFCURVE",
"38 213 CURVE SMOOTH",
"38 71 OFFCURVE",
"107 -12 OFFCURVE",
"240 -12 CURVE SMOOTH",
"330 -12 OFFCURVE",
"394 29 OFFCURVE"
);
},
{
closed = 1;
nodes = (
"494 9 LINE",
"522 232 LINE",
"559 238 LINE",
"566 294 LINE",
"329 294 LINE",
"322 238 LINE",
"390 230 LINE",
"368 51 LINE",
"398 51 LINE",
"466 -6 LINE"
);
}
);
};
layerId = "925CB40E-795E-477B-BAE7-1EE7D58841B5";
paths = (
{
closed = 1;
nodes = (
"319 -12 OFFCURVE",
"369 29 OFFCURVE",
"402 78 CURVE",
"367 110 LINE",
"350 80 OFFCURVE",
"317 59 OFFCURVE",
"279 59 CURVE SMOOTH",
"217 59 OFFCURVE",
"188 117 OFFCURVE",
"188 230 CURVE SMOOTH",
"188 373 OFFCURVE",
"234 526 OFFCURVE",
"342 526 CURVE SMOOTH",
"362 526 OFFCURVE",
"383 521 OFFCURVE",
"397 511 CURVE SMOOTH",
"411 501 OFFCURVE",
"411 491 OFFCURVE",
"413 466 CURVE SMOOTH",
"417 401 LINE",
"497 401 LINE",
"511 449 OFFCURVE",
"520 502 OFFCURVE",
"524 551 CURVE",
"477 569 OFFCURVE",
"416 581 OFFCURVE",
"361 581 CURVE SMOOTH",
"145 581 OFFCURVE",
"39 400 OFFCURVE",
"39 214 CURVE SMOOTH",
"39 53 OFFCURVE",
"118 -12 OFFCURVE",
"230 -12 CURVE SMOOTH"
);
},
{
closed = 1;
nodes = (
"468 9 LINE",
"492 200 LINE SMOOTH",
"496 229 OFFCURVE",
"500 233 OFFCURVE",
"518 237 CURVE SMOOTH",
"532 240 LINE",
"539 294 LINE",
"308 294 LINE",
"301 238 LINE",
"364 230 LINE",
"343 59 LINE",
"371 59 LINE",
"440 -7 LINE"
);
}
);
width = 553;
},
{
anchors = (
{
name = btm;
position = "{267, 0}";
},
{
name = top;
position = "{369, 568}";
}
);
associatedMasterId = "925CB40E-795E-477B-BAE7-1EE7D58841B5";
background = {
anchors = (
{
name = btm;
position = "{267, 0}";
},
{
name = top;
position = "{369, 568}";
}
);
paths = (
{
closed = 1;
nodes = (
"427 78 CURVE",
"410 118 LINE",
"383 83 OFFCURVE",
"343 59 OFFCURVE",
"291 59 CURVE SMOOTH",
"221 59 OFFCURVE",
"195 105 OFFCURVE",
"195 190 CURVE SMOOTH",
"195 388 OFFCURVE",
"260 524 OFFCURVE",
"356 524 CURVE SMOOTH",
"382 524 OFFCURVE",
"401 516 OFFCURVE",
"413 506 CURVE SMOOTH",
"421 499 OFFCURVE",
"426 490 OFFCURVE",
"427 478 CURVE SMOOTH",
"437 395 LINE",
"521 395 LINE",
"534 446 OFFCURVE",
"544 496 OFFCURVE",
"546 545 CURVE",
"500 565 OFFCURVE",
"433 579 OFFCURVE",
"367 579 CURVE SMOOTH",
"158 579 OFFCURVE",
"37 445 OFFCURVE",
"37 213 CURVE SMOOTH",
"37 71 OFFCURVE",
"106 -12 OFFCURVE",
"239 -12 CURVE SMOOTH",
"329 -12 OFFCURVE",
"393 29 OFFCURVE"
);
},
{
closed = 1;
nodes = (
"493 9 LINE",
"521 232 LINE",
"558 238 LINE",
"565 294 LINE",
"328 294 LINE",
"321 238 LINE",
"389 230 LINE",
"367 51 LINE",
"397 51 LINE",
"465 -6 LINE"
);
}
);
};
layerId = "BCAFBA43-6432-48F8-9842-3ED8A5A6FC53";
name = "Apr 8 20, 23:06";
paths = (
{
closed = 1;
nodes = (
"318 -12 OFFCURVE",
"368 29 OFFCURVE",
"401 78 CURVE",
"379 118 LINE",
"356 82 OFFCURVE",
"324 59 OFFCURVE",
"283 59 CURVE SMOOTH",
"212 59 OFFCURVE",
"188 119 OFFCURVE",
"188 217 CURVE SMOOTH",
"188 364 OFFCURVE",
"241 526 OFFCURVE",
"346 526 CURVE SMOOTH",
"366 526 OFFCURVE",
"385 520 OFFCURVE",
"396 511 CURVE SMOOTH",
"407 502 OFFCURVE",
"410 491 OFFCURVE",
"412 466 CURVE SMOOTH",
"416 401 LINE",
"496 401 LINE",
"510 449 OFFCURVE",
"520 502 OFFCURVE",
"523 549 CURVE",
"476 570 OFFCURVE",
"415 581 OFFCURVE",
"356 581 CURVE SMOOTH",
"143 581 OFFCURVE",
"38 411 OFFCURVE",
"38 216 CURVE SMOOTH",
"38 57 OFFCURVE",
"119 -12 OFFCURVE",
"231 -12 CURVE SMOOTH"
);
},
{
closed = 1;
nodes = (
"467 9 LINE",
"495 232 LINE",
"531 238 LINE",
"538 294 LINE",
"310 294 LINE",
"303 238 LINE",
"363 230 LINE",
"341 51 LINE",
"371 51 LINE",
"439 -6 LINE"
);
}
);
width = 552;
},
{
anchors = (
{
name = btm;
position = "{264, 0}";
},
{
name = top;
position = "{348, 568}";
}
);
associatedMasterId = "DAAEA780-4710-4479-B303-5C05B40621B2";
background = {
anchors = (
{
name = btm;
position = "{264, 0}";
},
{
name = top;
position = "{348, 568}";
}
);
paths = (
{
closed = 1;
nodes = (
"452 79 CURVE",
"448 114 LINE",
"408 55 OFFCURVE",
"347 37 OFFCURVE",
"290 37 CURVE SMOOTH",
"168 37 OFFCURVE",
"120 122 OFFCURVE",
"120 233 CURVE SMOOTH",
"120 416 OFFCURVE",
"214 541 OFFCURVE",
"349 541 CURVE SMOOTH",
"393 541 OFFCURVE",
"429 531 OFFCURVE",
"450 518 CURVE SMOOTH",
"461 512 OFFCURVE",
"464 502 OFFCURVE",
"465 490 CURVE SMOOTH",
"472 420 LINE",
"508 420 LINE",
"519 459 OFFCURVE",
"528 499 OFFCURVE",
"531 540 CURVE",
"486 567 OFFCURVE",
"428 576 OFFCURVE",
"371 576 CURVE SMOOTH",
"179 576 OFFCURVE",
"49 434 OFFCURVE",
"49 222 CURVE SMOOTH",
"49 85 OFFCURVE",
"121 -8 OFFCURVE",
"265 -8 CURVE SMOOTH",
"341 -8 OFFCURVE",
"403 18 OFFCURVE"
);
},
{
closed = 1;
nodes = (
"469 4 LINE",
"498 239 LINE",
"545 246 LINE",
"550 285 LINE",
"331 285 LINE",
"326 246 LINE",
"435 239 LINE",
"411 47 LINE",
"415 47 LINE",
"451 -3 LINE"
);
}
);
};
layerId = "0C6A5CD8-AE1D-412C-8DDD-982D85FB9314";
name = "Apr 8 20, 23:15";
paths = (
{
closed = 1;
nodes = (
"307 -8 OFFCURVE",
"370 18 OFFCURVE",
"415 79 CURVE",
"405 114 LINE",
"371 57 OFFCURVE",
"311 36 OFFCURVE",
"268 36 CURVE SMOOTH",
"172 36 OFFCURVE",
"121 107 OFFCURVE",
"121 240 CURVE SMOOTH",
"121 419 OFFCURVE",
"213 538 OFFCURVE",
"337 538 CURVE SMOOTH",
"373 538 OFFCURVE",
"401 528 OFFCURVE",
"415 518 CURVE SMOOTH",
"432 505 OFFCURVE",
"431 493 OFFCURVE",
"432 481 CURVE SMOOTH",
"436 418 LINE",
"472 418 LINE",
"483 453 OFFCURVE",
"493 493 OFFCURVE",
"497 540 CURVE",
"456 562 OFFCURVE",
"403 575 OFFCURVE",
"348 575 CURVE SMOOTH",
"160 575 OFFCURVE",
"49 411 OFFCURVE",
"49 229 CURVE SMOOTH",
"49 78 OFFCURVE",
"124 -8 OFFCURVE",
"248 -8 CURVE SMOOTH"
);
},
{
closed = 1;
nodes = (
"434 4 LINE",
"463 239 LINE",
"508 246 LINE",
"513 285 LINE",
"308 285 LINE",
"303 246 LINE",
"400 239 LINE",
"376 44 LINE",
"380 44 LINE",
"416 -3 LINE"
);
}
);
width = 538;
}
);
leftKerningGroup = O;
leftMetricsKey = O;
rightKerningGroup = G;
unicode = 0047;
userData = {
com.typemytype.robofont.layerData = {
background = {
anchors = (
{
name = btm;
x = 784;
y = -170;
},
{
name = top;
x = 820;
y = 1700;
}
);
components = (
);
contours = (
{
points = (
{
segmentType = curve;
smooth = 1;
x = 803;
y = -23;
},
{
smooth = 0;
x = 1077;
y = -23;
},
{
smooth = 0;
x = 1237;
y = 77;
},
{
segmentType = curve;
smooth = 0;
x = 1345;
y = 82;
},
{
segmentType = line;
smooth = 0;
x = 1345;
y = 669;
},
{
segmentType = line;
smooth = 0;
x = 1292;
y = 627;
},
{
segmentType = line;
smooth = 0;
x = 1471;
y = 657;
},
{
segmentType = line;
smooth = 0;
x = 1471;
y = 765;
},
{
segmentType = line;
smooth = 0;
x = 889;
y = 765;
},
{
segmentType = line;
smooth = 0;
x = 889;
y = 657;
},
{
segmentType = line;
smooth = 0;
x = 1233;
y = 632;
},
{
segmentType = line;
smooth = 0;
x = 1173;
y = 671;
},
{
segmentType = line;
smooth = 0;
x = 1173;
y = 170;
},
{
smooth = 0;
x = 1100;
y = 113;
},
{
smooth = 0;
x = 961;
y = 76;
},
{
segmentType = curve;
smooth = 1;
x = 816;
y = 76;
},
{
smooth = 0;
x = 458;
y = 76;
},
{
smooth = 0;
x = 291;
y = 428;
},
{
segmentType = curve;
smooth = 1;
x = 291;
y = 789;
},
{
smooth = 0;
x = 291;
y = 1220;
},
{
smooth = 0;
x = 531;
y = 1440;
},
{
segmentType = curve;
smooth = 1;
x = 847;
y = 1440;
},
{
smooth = 0;
x = 1040;
y = 1440;
},
{
smooth = 0;
x = 1130;
y = 1394;
},
{
segmentType = curve;
smooth = 0;
x = 1161;
y = 1371;
},
{
segmentType = line;
smooth = 0;
x = 1206;
y = 1134;
},
{
segmentType = line;
smooth = 0;
x = 1313;
y = 1134;
},
{
segmentType = line;
smooth = 0;
x = 1329;
y = 1474;
},
{
smooth = 0;
x = 1259;
y = 1491;
},
{
smooth = 0;
x = 1077;
y = 1538;
},
{
segmentType = curve;
smooth = 1;
x = 866;
y = 1538;
},
{
smooth = 0;
x = 439;
y = 1538;
},
{
smooth = 0;
x = 99;
y = 1250;
},
{
segmentType = curve;
smooth = 1;
x = 99;
y = 736;
},
{
smooth = 0;
x = 99;
y = 304;
},
{
smooth = 0;
x = 359;
y = -23;
}
);
}
);
lib = {
};
name = G;
unicodes = (
);
width = 1552;
};
};
};
},
{
color = 8;
glyphname = H;
lastChange = "2020-04-13 20:37:42 +0000";
layers = (
{
anchors = (
{
name = btm;
position = "{274, 0}";
},
{
name = top;
position = "{352, 568}";
}
);
background = {
anchors = (
{
name = btm;
position = "{274, 0}";
},
{
name = top;
position = "{352, 568}";
}
);
paths = (
{
closed = 1;
nodes = (
"636 568 LINE",
"423 568 LINE",
"419 536 LINE",
"471 524 LINE SMOOTH",
"484 521 OFFCURVE",
"490 514 OFFCURVE",
"488 501 CURVE SMOOTH",
"464 311 LINE",
"173 311 LINE",
"197 501 LINE SMOOTH",
"199 514 OFFCURVE",
"206 522 OFFCURVE",
"218 524 CURVE SMOOTH",
"277 536 LINE",
"281 568 LINE",
"65 568 LINE",
"61 536 LINE",
"118 524 LINE SMOOTH",
"130 521 OFFCURVE",
"137 513 OFFCURVE",
"135 500 CURVE SMOOTH",
"81 67 LINE SMOOTH",
"79 53 OFFCURVE",
"73 46 OFFCURVE",
"59 43 CURVE SMOOTH",
"-1 32 LINE",
"-5 0 LINE",
"211 0 LINE",
"215 32 LINE",
"160 43 LINE SMOOTH",
"148 45 OFFCURVE",
"141 53 OFFCURVE",
"143 66 CURVE SMOOTH",
"169 272 LINE",
"460 272 LINE",
"434 67 LINE SMOOTH",
"432 53 OFFCURVE",
"425 46 OFFCURVE",
"411 43 CURVE SMOOTH",
"357 32 LINE",
"353 0 LINE",
"566 0 LINE",
"570 32 LINE",
"513 43 LINE SMOOTH",
"500 45 OFFCURVE",
"494 53 OFFCURVE",
"496 67 CURVE SMOOTH",
"550 500 LINE SMOOTH",
"552 513 OFFCURVE",
"559 521 OFFCURVE",
"572 524 CURVE SMOOTH",
"632 536 LINE"
);
}
);
};
hints = (
{
origin = "{0, 15}";
type = Corner;
name = _corner.LeftSerif;
},
{
origin = "{0, 31}";
type = Corner;
name = _corner.LeftSerif;
},
{
origin = "{0, 30}";
type = Corner;
name = _corner.RightSerif;
},
{
origin = "{0, 14}";
type = Corner;
name = _corner.RightSerif;
}
);
layerId = "DAAEA780-4710-4479-B303-5C05B40621B2";
paths = (
{
closed = 1;
nodes = (
"223 0 LINE",
"227 32 LINE",
"176 42 LINE SMOOTH",
"162 45 OFFCURVE",
"157 51 OFFCURVE",
"159 68 CURVE SMOOTH",
"185 272 LINE",
"442 272 LINE",
"417 75 LINE SMOOTH",
"414 49 OFFCURVE",
"405 45 OFFCURVE",
"390 42 CURVE SMOOTH",
"340 32 LINE",
"336 0 LINE",
"470 0 LINE",
"541 568 LINE",
"407 568 LINE",
"403 536 LINE",
"454 526 LINE SMOOTH",
"468 523 OFFCURVE",
"473 517 OFFCURVE",
"471 500 CURVE SMOOTH",
"447 311 LINE",
"190 311 LINE",
"212 493 LINE SMOOTH",
"215 517 OFFCURVE",
"218 522 OFFCURVE",
"239 526 CURVE SMOOTH",
"289 536 LINE",
"293 568 LINE",
"159 568 LINE",
"89 0 LINE"
);
}
);
width = 610;
},
{
anchors = (
{
name = btm;
position = "{294, 0}";
},
{
name = top;
position = "{391, 568}";
}
);
background = {
anchors = (
{
name = btm;
position = "{294, 0}";
},
{
name = top;
position = "{391, 568}";
}
);
paths = (
{
closed = 1;
nodes = (
"681 568 LINE",
"411 568 LINE",
"404 513 LINE",
"445 502 LINE SMOOTH",
"454 500 OFFCURVE",
"459 492 OFFCURVE",
"458 481 CURVE SMOOTH",
"439 322 LINE",
"240 322 LINE",
"259 481 LINE SMOOTH",
"260 493 OFFCURVE",
"267 499 OFFCURVE",
"278 502 CURVE SMOOTH",
"325 513 LINE",
"332 568 LINE",
"58 568 LINE",
"51 513 LINE",
"107 502 LINE SMOOTH",
"118 500 OFFCURVE",
"122 493 OFFCURVE",
"121 481 CURVE SMOOTH",
"72 83 LINE SMOOTH",
"71 72 OFFCURVE",
"64 65 OFFCURVE",
"53 63 CURVE SMOOTH",
"-5 52 LINE",
"-12 0 LINE",
"262 0 LINE",
"269 52 LINE",
"224 63 LINE SMOOTH",
"213 66 OFFCURVE",
"209 72 OFFCURVE",
"210 83 CURVE SMOOTH",
"231 255 LINE",
"430 255 LINE",
"409 83 LINE SMOOTH",
"408 72 OFFCURVE",
"401 66 OFFCURVE",
"390 63 CURVE SMOOTH",
"349 52 LINE",
"342 0 LINE",
"611 0 LINE",
"618 52 LINE",
"562 63 LINE SMOOTH",
"551 65 OFFCURVE",
"546 72 OFFCURVE",
"547 83 CURVE SMOOTH",
"596 481 LINE SMOOTH",
"597 492 OFFCURVE",
"605 500 OFFCURVE",
"615 502 CURVE SMOOTH",
"674 513 LINE"
);
}
);
};
hints = (
{
origin = "{0, 31}";
type = Corner;
name = _corner.LeftSerif;
},
{
origin = "{0, 14}";
type = Corner;
name = _corner.RightSerif;
},
{
origin = "{0, 30}";
type = Corner;
name = _corner.RightSerif;
},
{
origin = "{0, 15}";
type = Corner;
name = _corner.LeftSerif;
}
);
layerId = "925CB40E-795E-477B-BAE7-1EE7D58841B5";
paths = (
{
closed = 1;
nodes = (
"273 0 LINE",
"279 52 LINE",
"243 59 LINE SMOOTH",
"227 62 OFFCURVE",
"221 68 OFFCURVE",
"223 85 CURVE SMOOTH",
"244 255 LINE",
"419 255 LINE",
"398 85 LINE SMOOTH",
"396 68 OFFCURVE",
"389 62 OFFCURVE",
"372 59 CURVE SMOOTH",
"337 52 LINE",
"331 0 LINE",
"523 0 LINE",
"594 568 LINE",
"398 568 LINE",
"392 516 LINE",
"427 509 LINE SMOOTH",
"445 505 OFFCURVE",
"449 499 OFFCURVE",
"447 483 CURVE SMOOTH",
"427 322 LINE",
"252 322 LINE",
"272 483 LINE SMOOTH",
"275 504 OFFCURVE",
"284 506 OFFCURVE",
"298 509 CURVE SMOOTH",
"334 516 LINE",
"340 568 LINE",
"147 568 LINE",
"76 0 LINE"
);
}
);
width = 651;
}
);
leftKerningGroup = H;
rightKerningGroup = H;
rightMetricsKey = "=|";
unicode = 0048;
userData = {
com.schriftgestaltung.Glyphs.rightMetricsKey = "=|";
com.typemytype.robofont.layerData = {
background = {
anchors = (
{
name = btm;
x = 890;
y = -170;
},
{
name = top;
x = 895;
y = 1700;
}
);
components = (
);
contours = (
{
points = (
{
segmentType = line;
smooth = 0;
x = 161;
y = 0;
},
{
segmentType = line;
smooth = 0;
x = 683;
y = 0;
},
{
segmentType = line;
smooth = 0;
x = 683;
y = 88;
},
{
segmentType = line;
smooth = 0;
x = 460;
y = 111;
},
{
segmentType = line;
smooth = 0;
x = 504;
y = 86;
},
{
segmentType = line;
smooth = 0;
x = 504;
y = 728;
},
{
segmentType = line;
smooth = 0;
x = 1285;
y = 728;
},
{
segmentType = line;
smooth = 0;
x = 1285;
y = 76;
},
{
segmentType = line;
smooth = 0;
x = 1341;
y = 113;
},
{
segmentType = line;
smooth = 0;
x = 1114;
y = 88;
},
{
segmentType = line;
smooth = 0;
x = 1114;
y = 0;
},
{
segmentType = line;
smooth = 0;
x = 1623;
y = 0;
},
{
segmentType = line;
smooth = 0;
x = 1623;
y = 88;
},
{
segmentType = line;
smooth = 0;
x = 1400;
y = 113;
},
{
segmentType = line;
smooth = 0;
x = 1455;
y = 76;
},
{
segmentType = line;
smooth = 0;
x = 1455;
y = 1449;
},
{
segmentType = line;
smooth = 0;
x = 1421;
y = 1407;
},
{
segmentType = line;
smooth = 0;
x = 1623;
y = 1434;
},
{
segmentType = line;
smooth = 0;
x = 1623;
y = 1522;
},
{
segmentType = line;
smooth = 0;
x = 1115;
y = 1522;
},
{
segmentType = line;
smooth = 0;
x = 1115;
y = 1434;
},
{
segmentType = line;
smooth = 0;
x = 1320;
y = 1407;
},
{
segmentType = line;
smooth = 0;
x = 1285;
y = 1448;
},
{
segmentType = line;
smooth = 0;
x = 1285;
y = 836;
},
{
segmentType = line;
smooth = 0;
x = 504;
y = 836;
},
{
segmentType = line;
smooth = 0;
x = 504;
y = 1446;
},
{
segmentType = line;
smooth = 0;
x = 473;
y = 1408;
},
{
segmentType = line;
smooth = 0;
x = 682;
y = 1434;
},
{
segmentType = line;
smooth = 0;
x = 682;
y = 1522;
},
{
segmentType = line;
smooth = 0;
x = 167;
y = 1522;
},
{
segmentType = line;
smooth = 0;
x = 167;
y = 1434;
},
{
segmentType = line;
smooth = 0;
x = 369;
y = 1407;
},
{
segmentType = line;
smooth = 0;
x = 335;
y = 1444;
},
{
segmentType = line;
smooth = 0;
x = 335;
y = 92;
},
{
segmentType = line;
smooth = 0;
x = 384;
y = 113;
},
{
segmentType = line;
smooth = 0;
x = 161;
y = 88;
}
);
}
);
lib = {
};
name = H;
unicodes = (
);
width = 1762;
};
};
};
},
{
color = 8;
glyphname = I;
lastChange = "2020-03-12 12:45:51 +0000";
layers = (
{
anchors = (
{
name = btm;
position = "{121, 0}";
},
{
name = top;
position = "{191, 568}";
}
);
background = {
anchors = (
{
name = btm;
position = "{121, 0}";
},
{
name = top;
position = "{191, 568}";
}
);
paths = (
{
closed = 1;
nodes = (
"151 0 LINE",
"221 568 LINE",
"159 568 LINE",
"89 0 LINE"
);
}
);
};
hints = (
{
origin = "{0, 3}";
type = Corner;
name = _corner.LeftSerif;
},
{
origin = "{0, 1}";
type = Corner;
name = _corner.LeftSerif;
},
{
origin = "{0, 0}";
type = Corner;
name = _corner.RightSerif;
options = 1;
},
{
origin = "{0, 2}";
type = Corner;
name = _corner.RightSerif;
options = 1;
}
);
layerId = "DAAEA780-4710-4479-B303-5C05B40621B2";
paths = (
{
closed = 1;
nodes = (
"151 0 LINE",
"221 568 LINE",
"159 568 LINE",
"89 0 LINE"
);
}
);
width = 291;
},
{
anchors = (
{
name = btm;
position = "{181, 0}";
},
{
name = top;
position = "{242, 568}";
}
);
background = {
anchors = (
{
name = btm;
position = "{181, 0}";
},
{
name = top;
position = "{242, 568}";
}
);
paths = (
{
closed = 1;
nodes = (
"214 0 LINE",
"284 567 LINE",
"148 568 LINE",
"78 0 LINE"
);
}
);
};
hints = (
{
origin = "{0, 3}";
type = Corner;
name = _corner.LeftSerif;
},
{
origin = "{0, 0}";
type = Corner;
name = _corner.RightSerif;
},
{
origin = "{0, 2}";
type = Corner;
name = _corner.RightSerif;
},
{
origin = "{0, 1}";
type = Corner;
name = _corner.LeftSerif;
}
);
layerId = "925CB40E-795E-477B-BAE7-1EE7D58841B5";
paths = (
{
closed = 1;
nodes = (
"214 0 LINE",
"285 567 LINE",
"149 568 LINE",
"78 0 LINE"
);
}
);
width = 344;
}
);
leftKerningGroup = H;
rightKerningGroup = H;
rightMetricsKey = "=|";
unicode = 0049;
userData = {
com.schriftgestaltung.Glyphs.rightMetricsKey = "=|";
com.typemytype.robofont.layerData = {
background = {
anchors = (
{
name = btm;
x = 423;
y = -170;
},
{
name = top;
x = 423;
y = 1700;
}
);
components = (
);
contours = (
{
points = (
{
segmentType = line;
smooth = 0;
x = 135;
y = 0;
},
{
segmentType = line;
smooth = 0;
x = 704;
y = 0;
},
{
segmentType = line;
smooth = 0;
x = 704;
y = 87;
},
{
segmentType = line;
smooth = 0;
x = 468;
y = 111;
},
{
segmentType = line;
smooth = 0;
x = 505;
y = 59;
},
{
segmentType = line;
smooth = 0;
x = 505;
y = 1452;
},
{
segmentType = line;
smooth = 0;
x = 474;
y = 1409;
},
{
segmentType = line;
smooth = 0;
x = 704;
y = 1434;
},
{
segmentType = line;
smooth = 0;
x = 704;
y = 1522;
},
{
segmentType = line;
smooth = 0;
x = 135;
y = 1522;
},
{
segmentType = line;
smooth = 0;
x = 135;
y = 1434;
},
{
segmentType = line;
smooth = 0;
x = 374;
y = 1407;
},
{
segmentType = line;
smooth = 0;
x = 335;
y = 1452;
},
{
segmentType = line;
smooth = 0;
x = 335;
y = 59;
},
{
segmentType = line;
smooth = 0;
x = 371;
y = 111;
},
{
segmentType = line;
smooth = 0;
x = 135;
y = 88;
}
);
}
);
lib = {
};
name = I;
unicodes = (
);
width = 792;
};
};
};
},
{
color = 8;
glyphname = J;
lastChange = "2020-03-11 19:46:59 +0000";
layers = (
{
anchors = (
{
name = btm;
position = "{80, 0}";
},
{
name = top;
position = "{184, 568}";
}
);
background = {
anchors = (
{
name = btm;
position = "{80, 0}";
},
{
name = top;
position = "{184, 568}";
}
);
paths = (
{
closed = 1;
nodes = (
"236 524 CURVE SMOOTH",
"288 536 LINE",
"292 568 LINE",
"81 568 LINE",
"77 536 LINE",
"135 524 LINE SMOOTH",
"146 522 OFFCURVE",
"152 513 OFFCURVE",
"151 501 CURVE SMOOTH",
"108 149 LINE SMOOTH",
"91 13 OFFCURVE",
"64 -32 OFFCURVE",
"-34 -102 CURVE",
"-20 -132 LINE",
"130 -60 OFFCURVE",
"150 -5 OFFCURVE",
"171 163 CURVE SMOOTH",
"213 501 LINE SMOOTH",
"215 514 OFFCURVE",
"222 521 OFFCURVE"
);
}
);
};
hints = (
{
origin = "{0, 0}";
type = Corner;
name = _corner.RightSerif;
},
{
origin = "{0, 9}";
scale = "{0.9, 1}";
type = Corner;
name = _corner.LeftSerif;
}
);
layerId = "DAAEA780-4710-4479-B303-5C05B40621B2";
paths = (
{
closed = 1;
nodes = (
"160 568 LINE",
"108 149 LINE SMOOTH",
"93 29 OFFCURVE",
"70 -39 OFFCURVE",
"-34 -102 CURVE",
"-20 -132 LINE",
"136 -69 OFFCURVE",
"153 6 OFFCURVE",
"172 163 CURVE SMOOTH",
"222 568 LINE"
);
}
);
width = 276;
},
{
anchors = (
{
name = btm;
position = "{103, 0}";
},
{
name = top;
position = "{207, 568}";
}
);
background = {
anchors = (
{
name = btm;
position = "{103, 0}";
},
{
name = top;
position = "{207, 568}";
}
);
paths = (
{
closed = 1;
nodes = (
"292 502 CURVE SMOOTH",
"343 513 LINE",
"349 568 LINE",
"72 568 LINE",
"66 513 LINE",
"120 502 LINE SMOOTH",
"131 500 OFFCURVE",
"136 493 OFFCURVE",
"135 481 CURVE SMOOTH",
"89 111 LINE SMOOTH",
"74 -9 OFFCURVE",
"55 -48 OFFCURVE",
"-49 -99 CURVE",
"-32 -154 LINE",
"159 -106 OFFCURVE",
"208 -41 OFFCURVE",
"229 128 CURVE SMOOTH",
"273 481 LINE SMOOTH",
"274 493 OFFCURVE",
"281 500 OFFCURVE"
);
}
);
};
hints = (
{
origin = "{0, 0}";
type = Corner;
name = _corner.RightSerif;
},
{
origin = "{0, 9}";
type = Corner;
name = _corner.LeftSerif;
}
);
layerId = "925CB40E-795E-477B-BAE7-1EE7D58841B5";
paths = (
{
closed = 1;
nodes = (
"146 568 LINE",
"89 112 LINE SMOOTH",
"75 0 OFFCURVE",
"53 -54 OFFCURVE",
"-48 -101 CURVE",
"-33 -154 LINE",
"186 -107 OFFCURVE",
"209 -12 OFFCURVE",
"227 129 CURVE SMOOTH",
"282 568 LINE"
);
}
);
width = 326;
}
);
leftKerningGroup = J;
rightKerningGroup = J;
unicode = 004A;
userData = {
com.typemytype.robofont.layerData = {
background = {
anchors = (
{
name = btm;
x = 294;
y = -170;
},
{
name = top;
x = 390;
y = 1700;
}
);
components = (
);
contours = (
{
points = (
{
segmentType = line;
smooth = 0;
x = 42;
y = -354;
},
{
smooth = 0;
x = 219;
y = -321;
},
{
smooth = 0;
x = 413;
y = -192;
},
{
segmentType = curve;
smooth = 1;
x = 460;
y = 43;
},
{
smooth = 0;
x = 485;
y = 169;
},
{
smooth = 0;
x = 482;
y = 336;
},
{
segmentType = curve;
smooth = 1;
x = 482;
y = 563;
},
{
segmentType = line;
smooth = 0;
x = 482;
y = 1457;
},
{
segmentType = line;
smooth = 0;
x = 427;
y = 1404;
},
{
segmentType = line;
smooth = 0;
x = 677;
y = 1434;
},
{
segmentType = line;
smooth = 0;
x = 677;
y = 1522;
},
{
segmentType = line;
smooth = 0;
x = 107;
y = 1522;
},
{
segmentType = line;
smooth = 0;
x = 107;
y = 1434;
},
{
segmentType = line;
smooth = 0;
x = 369;
y = 1404;
},
{
segmentType = line;
smooth = 0;
x = 312;
y = 1457;
},
{
segmentType = line;
smooth = 0;
x = 312;
y = 518;
},
{
smooth = 0;
x = 312;
y = 212;
},
{
smooth = 0;
x = 307;
y = 99;
},
{
segmentType = curve;
smooth = 1;
x = 270;
y = -18;
},
{
smooth = 0;
x = 227;
y = -156;
},
{
smooth = 0;
x = 119;
y = -248;
},
{
segmentType = curve;
smooth = 0;
x = -3;
y = -281;
}
);
}
);
lib = {
};
name = J;
unicodes = (
);
width = 738;
};
};
};
},
{
color = 8;
glyphname = K;
lastChange = "2020-04-10 11:44:01 +0000";
layers = (
{
anchors = (
{
name = btm;
position = "{286, 0}";
},
{
name = top;
position = "{336, 568}";
}
);
background = {
hints = (
{
origin = "{1, 0}";
scale = "{1.04, 1}";
type = Corner;
name = _corner.RightSerif;
},
{
origin = "{1, 1}";
type = Corner;
name = _corner.LeftSerif;
},
{
origin = "{1, 2}";
type = Corner;
name = _corner.RightSerif;
},
{
origin = "{1, 3}";
type = Corner;
name = _corner.LeftSerif;
}
);
paths = (
{
closed = 1;
nodes = (
"288 312 LINE",
"463 506 LINE SMOOTH",
"480 525 OFFCURVE",
"484 523 OFFCURVE",
"495 525 CURVE SMOOTH",
"546 536 LINE",
"550 568 LINE",
"367 568 LINE",
"363 536 LINE",
"427 522 LINE",
"162 226 LINE",
"155 165 LINE"
);
},
{
closed = 1;
nodes = (
"151 0 LINE",
"221 568 LINE",
"159 568 LINE",
"89 0 LINE"
);
},
{
closed = 1;
nodes = (
"444 -7 OFFCURVE",
"483 5 OFFCURVE",
"509 17 CURVE",
"503 50 LINE",
"483 47 OFFCURVE",
"467 45 OFFCURVE",
"453 45 CURVE SMOOTH",
"431 45 OFFCURVE",
"421 56 OFFCURVE",
"403 93 CURVE SMOOTH",
"379 142 OFFCURVE",
"339 257 OFFCURVE",
"314 367 CURVE",
"267 314 LINE",
"286 223 OFFCURVE",
"323 105 OFFCURVE",
"347 52 CURVE SMOOTH",
"367 9 OFFCURVE",
"386 -7 OFFCURVE",
"416 -7 CURVE SMOOTH"
);
}
);
};
hints = (
{
origin = "{1, 2}";
type = Corner;
name = _corner.RightSerif;
},
{
origin = "{1, 3}";
type = Corner;
name = _corner.LeftSerif;
},
{
origin = "{1, 0}";
scale = "{1.04, 1}";
type = Corner;
name = _corner.RightSerif;
},
{
origin = "{1, 1}";
type = Corner;
name = _corner.LeftSerif;
}
);
layerId = "DAAEA780-4710-4479-B303-5C05B40621B2";
paths = (
{
closed = 1;
nodes = (
"288 312 LINE",
"463 506 LINE SMOOTH",
"480 525 OFFCURVE",
"485 523 OFFCURVE",
"495 525 CURVE SMOOTH",
"546 536 LINE",
"550 568 LINE",
"367 568 LINE",
"363 536 LINE",
"427 522 LINE",
"162 226 LINE",
"155 165 LINE"
);
},
{
closed = 1;
nodes = (
"151 0 LINE",
"221 568 LINE",
"159 568 LINE",
"89 0 LINE"
);
},
{
closed = 1;
nodes = (
"447 -7 OFFCURVE",
"489 8 OFFCURVE",
"509 21 CURVE",
"501 54 LINE",
"484 48 OFFCURVE",
"466 45 OFFCURVE",
"454 45 CURVE SMOOTH",
"430 45 OFFCURVE",
"418 59 OFFCURVE",
"401 94 CURVE SMOOTH",
"371 156 OFFCURVE",
"334 274 OFFCURVE",
"314 367 CURVE",
"267 314 LINE",
"286 223 OFFCURVE",
"322 105 OFFCURVE",
"346 53 CURVE SMOOTH",
"365 10 OFFCURVE",
"384 -7 OFFCURVE",
"416 -7 CURVE SMOOTH"
);
}
);
width = 526;
},
{
anchors = (
{
name = btm;
position = "{329, 0}";
},
{
name = top;
position = "{373, 568}";
}
);
background = {
hints = (
{
origin = "{0, 0}";
type = Corner;
name = _corner.RightSerif;
},
{
origin = "{0, 1}";
type = Corner;
name = _corner.LeftSerif;
},
{
origin = "{0, 2}";
type = Corner;
name = _corner.RightSerif;
},
{
origin = "{0, 3}";
type = Corner;
name = _corner.LeftSerif;
}
);
paths = (
{
closed = 1;
nodes = (
"212 0 LINE",
"282 567 LINE",
"147 568 LINE",
"77 0 LINE"
);
},
{
closed = 1;
nodes = (
"476 -7 OFFCURVE",
"531 5 OFFCURVE",
"572 18 CURVE",
"565 73 LINE",
"552 72 OFFCURVE",
"542 71 OFFCURVE",
"534 71 CURVE SMOOTH",
"510 71 OFFCURVE",
"500 79 OFFCURVE",
"489 99 CURVE SMOOTH",
"461 150 OFFCURVE",
"420 286 OFFCURVE",
"402 397 CURVE",
"292 286 LINE",
"306 207 OFFCURVE",
"323 124 OFFCURVE",
"343 68 CURVE SMOOTH",
"363 11 OFFCURVE",
"387 -7 OFFCURVE",
"436 -7 CURVE SMOOTH"
);
},
{
closed = 1;
nodes = (
"335 289 LINE",
"518 492 LINE SMOOTH",
"524 499 OFFCURVE",
"534 501 OFFCURVE",
"541 502 CURVE SMOOTH",
"601 513 LINE",
"608 568 LINE",
"389 568 LINE",
"383 513 LINE",
"446 502 LINE",
"220 248 LINE",
"207 160 LINE"
);
}
);
};
hints = (
{
origin = "{1, 0}";
type = Corner;
name = _corner.RightSerif;
},
{
origin = "{1, 1}";
type = Corner;
name = _corner.LeftSerif;
},
{
origin = "{1, 2}";
type = Corner;
name = _corner.RightSerif;
},
{
origin = "{1, 3}";
type = Corner;
name = _corner.LeftSerif;
}
);
layerId = "925CB40E-795E-477B-BAE7-1EE7D58841B5";
paths = (
{
closed = 1;
nodes = (
"335 289 LINE",
"518 492 LINE SMOOTH",
"525 500 OFFCURVE",
"535 501 OFFCURVE",
"541 502 CURVE SMOOTH",
"601 513 LINE",
"608 568 LINE",
"389 568 LINE",
"383 513 LINE",
"446 502 LINE",
"220 248 LINE",
"207 160 LINE"
);
},
{
closed = 1;
nodes = (
"212 0 LINE",
"282 567 LINE",
"147 568 LINE",
"77 0 LINE"
);
},
{
closed = 1;
nodes = (
"480 -7 OFFCURVE",
"536 8 OFFCURVE",
"575 30 CURVE",
"564 84 LINE",
"550 81 OFFCURVE",
"536 79 OFFCURVE",
"525 79 CURVE SMOOTH",
"507 79 OFFCURVE",
"493 89 OFFCURVE",
"481 115 CURVE SMOOTH",
"446 185 OFFCURVE",
"410 331 OFFCURVE",
"400 397 CURVE",
"292 286 LINE",
"307 207 OFFCURVE",
"324 121 OFFCURVE",
"344 69 CURVE SMOOTH",
"367 9 OFFCURVE",
"392 -7 OFFCURVE",
"439 -7 CURVE SMOOTH"
);
}
);
width = 587;
},
{
anchors = (
{
name = btm;
position = "{329, 0}";
},
{
name = top;
position = "{373, 568}";
}
);
associatedMasterId = "925CB40E-795E-477B-BAE7-1EE7D58841B5";
background = {
anchors = (
{
name = btm;
position = "{329, 0}";
},
{
name = top;
position = "{373, 568}";
}
);
paths = (
{
closed = 1;
nodes = (
"287 0 LINE",
"294 52 LINE",
"239 62 LINE SMOOTH",
"227 64 OFFCURVE",
"222 70 OFFCURVE",
"223 81 CURVE SMOOTH",
"272 481 LINE SMOOTH",
"273 493 OFFCURVE",
"281 500 OFFCURVE",
"292 502 CURVE SMOOTH",
"350 513 LINE",
"357 568 LINE",
"72 568 LINE",
"65 513 LINE",
"121 502 LINE SMOOTH",
"132 500 OFFCURVE",
"136 493 OFFCURVE",
"135 481 CURVE SMOOTH",
"86 83 LINE SMOOTH",
"85 72 OFFCURVE",
"78 65 OFFCURVE",
"67 63 CURVE SMOOTH",
"9 52 LINE",
"2 0 LINE"
);
},
{
closed = 1;
nodes = (
"341 292 LINE",
"540 491 LINE SMOOTH",
"547 498 OFFCURVE",
"555 500 OFFCURVE",
"564 502 CURVE SMOOTH",
"623 513 LINE",
"630 568 LINE",
"406 568 LINE",
"399 513 LINE",
"463 502 LINE",
"226 251 LINE",
"215 163 LINE"
);
},
{
closed = 1;
nodes = (
"575 0 LINE",
"582 52 LINE",
"549 61 LINE SMOOTH",
"532 66 OFFCURVE",
"528 76 OFFCURVE",
"524 86 CURVE SMOOTH",
"462 236 LINE SMOOTH",
"436 298 OFFCURVE",
"421 332 OFFCURVE",
"385 375 CURVE",
"289 276 LINE",
"305 252 OFFCURVE",
"314 227 OFFCURVE",
"333 173 CURVE SMOOTH",
"368 72 LINE SMOOTH",
"383 29 OFFCURVE",
"395 0 OFFCURVE",
"416 0 CURVE SMOOTH"
);
}
);
};
hints = (
{
origin = "{0, 0}";
type = Corner;
name = _corner.RightSerif;
},
{
origin = "{0, 1}";
type = Corner;
name = _corner.LeftSerif;
},
{
origin = "{0, 2}";
type = Corner;
name = _corner.RightSerif;
},
{
origin = "{0, 3}";
type = Corner;
name = _corner.LeftSerif;
}
);
layerId = "046993B4-AC3D-4DD8-8562-FD22F0332CF7";
name = "Apr 9 20, 10:04";
paths = (
{
closed = 1;
nodes = (
"212 0 LINE",
"282 567 LINE",
"147 568 LINE",
"77 0 LINE"
);
},
{
closed = 1;
nodes = (
"558 0 LINE",
"564 48 LINE",
"534 56 LINE SMOOTH",
"514 61 OFFCURVE",
"506 66 OFFCURVE",
"490 93 CURVE SMOOTH",
"461 142 OFFCURVE",
"420 286 OFFCURVE",
"402 397 CURVE",
"293 286 LINE",
"306 204 OFFCURVE",
"321 128 OFFCURVE",
"343 70 CURVE SMOOTH",
"369 1 OFFCURVE",
"386 0 OFFCURVE",
"401 0 CURVE SMOOTH"
);
},
{
closed = 1;
nodes = (
"335 289 LINE",
"518 492 LINE SMOOTH",
"524 499 OFFCURVE",
"531 500 OFFCURVE",
"541 502 CURVE SMOOTH",
"601 513 LINE",
"608 568 LINE",
"389 568 LINE",
"383 513 LINE",
"446 502 LINE",
"220 248 LINE",
"207 160 LINE"
);
}
);
width = 587;
},
{
anchors = (
{
name = btm;
position = "{329, 0}";
},
{
name = top;
position = "{373, 568}";
}
);
associatedMasterId = "925CB40E-795E-477B-BAE7-1EE7D58841B5";
background = {
anchors = (
{
name = btm;
position = "{329, 0}";
},
{
name = top;
position = "{373, 568}";
}
);
paths = (
{
closed = 1;
nodes = (
"287 0 LINE",
"294 52 LINE",
"239 62 LINE SMOOTH",
"227 64 OFFCURVE",
"222 70 OFFCURVE",
"223 81 CURVE SMOOTH",
"272 481 LINE SMOOTH",
"273 493 OFFCURVE",
"281 500 OFFCURVE",
"292 502 CURVE SMOOTH",
"350 513 LINE",
"357 568 LINE",
"72 568 LINE",
"65 513 LINE",
"121 502 LINE SMOOTH",
"132 500 OFFCURVE",
"136 493 OFFCURVE",
"135 481 CURVE SMOOTH",
"86 83 LINE SMOOTH",
"85 72 OFFCURVE",
"78 65 OFFCURVE",
"67 63 CURVE SMOOTH",
"9 52 LINE",
"2 0 LINE"
);
},
{
closed = 1;
nodes = (
"341 292 LINE",
"540 491 LINE SMOOTH",
"547 498 OFFCURVE",
"555 500 OFFCURVE",
"564 502 CURVE SMOOTH",
"623 513 LINE",
"630 568 LINE",
"406 568 LINE",
"399 513 LINE",
"463 502 LINE",
"226 251 LINE",
"215 163 LINE"
);
},
{
closed = 1;
nodes = (
"575 0 LINE",
"582 52 LINE",
"549 61 LINE SMOOTH",
"532 66 OFFCURVE",
"528 76 OFFCURVE",
"524 86 CURVE SMOOTH",
"462 236 LINE SMOOTH",
"436 298 OFFCURVE",
"421 332 OFFCURVE",
"385 375 CURVE",
"289 276 LINE",
"305 252 OFFCURVE",
"314 227 OFFCURVE",
"333 173 CURVE SMOOTH",
"368 72 LINE SMOOTH",
"383 29 OFFCURVE",
"395 0 OFFCURVE",
"416 0 CURVE SMOOTH"
);
}
);
};
hints = (
{
origin = "{0, 0}";
type = Corner;
name = _corner.RightSerif;
},
{
origin = "{0, 1}";
type = Corner;
name = _corner.LeftSerif;
},
{
origin = "{0, 2}";
type = Corner;
name = _corner.RightSerif;
},
{
origin = "{0, 3}";
type = Corner;
name = _corner.LeftSerif;
}
);
layerId = "D92B8926-A8F0-49BE-8C03-35422E427904";
name = "Apr 9 20, 10:04";
paths = (
{
closed = 1;
nodes = (
"212 0 LINE",
"282 567 LINE",
"147 568 LINE",
"77 0 LINE"
);
},
{
closed = 1;
nodes = (
"558 0 LINE",
"564 52 LINE",
"548 56 LINE SMOOTH",
"520 62 OFFCURVE",
"506 68 OFFCURVE",
"490 95 CURVE SMOOTH",
"461 144 OFFCURVE",
"420 286 OFFCURVE",
"402 397 CURVE",
"293 286 LINE",
"306 204 OFFCURVE",
"321 128 OFFCURVE",
"343 70 CURVE SMOOTH",
"367 6 OFFCURVE",
"398 -5 OFFCURVE",
"505 -2 CURVE SMOOTH"
);
},
{
closed = 1;
nodes = (
"335 289 LINE",
"518 492 LINE SMOOTH",
"524 499 OFFCURVE",
"531 500 OFFCURVE",
"541 502 CURVE SMOOTH",
"601 513 LINE",
"608 568 LINE",
"389 568 LINE",
"383 513 LINE",
"446 502 LINE",
"220 248 LINE",
"207 160 LINE"
);
}
);
width = 587;
},
{
anchors = (
{
name = btm;
position = "{286, 0}";
},
{
name = top;
position = "{336, 568}";
}
);
associatedMasterId = "DAAEA780-4710-4479-B303-5C05B40621B2";
background = {
anchors = (
{
name = btm;
position = "{286, 0}";
},
{
name = top;
position = "{336, 568}";
}
);
paths = (
{
closed = 1;
nodes = (
"235 0 LINE",
"239 32 LINE",
"177 43 LINE SMOOTH",
"164 45 OFFCURVE",
"157 52 OFFCURVE",
"159 66 CURVE SMOOTH",
"213 501 LINE SMOOTH",
"215 514 OFFCURVE",
"222 521 OFFCURVE",
"235 524 CURVE SMOOTH",
"295 536 LINE",
"299 568 LINE",
"81 568 LINE",
"77 536 LINE",
"133 524 LINE SMOOTH",
"146 521 OFFCURVE",
"153 515 OFFCURVE",
"151 501 CURVE SMOOTH",
"97 66 LINE SMOOTH",
"95 52 OFFCURVE",
"88 46 OFFCURVE",
"74 43 CURVE SMOOTH",
"15 32 LINE",
"11 0 LINE"
);
},
{
closed = 1;
nodes = (
"293 310 LINE",
"501 511 LINE SMOOTH",
"510 519 OFFCURVE",
"517 521 OFFCURVE",
"528 524 CURVE SMOOTH",
"579 536 LINE",
"583 568 LINE",
"395 568 LINE",
"391 536 LINE",
"455 522 LINE",
"161 231 LINE",
"155 177 LINE"
);
},
{
closed = 1;
nodes = (
"530 0 LINE",
"534 32 LINE",
"493 42 LINE SMOOTH",
"477 46 OFFCURVE",
"470 51 OFFCURVE",
"459 72 CURVE SMOOTH",
"382 222 LINE SMOOTH",
"351 282 OFFCURVE",
"332 319 OFFCURVE",
"309 347 CURVE",
"263 304 LINE",
"281 275 OFFCURVE",
"299 242 OFFCURVE",
"318 200 CURVE SMOOTH",
"371 83 LINE SMOOTH",
"395 30 OFFCURVE",
"414 0 OFFCURVE",
"429 0 CURVE SMOOTH"
);
}
);
};
guideLines = (
{
angle = 228.1629;
position = "{427, 522}";
},
{
angle = 228.1629;
position = "{468, 511}";
}
);
hints = (
{
origin = "{0, 2}";
type = Corner;
name = _corner.RightSerif;
},
{
origin = "{0, 3}";
type = Corner;
name = _corner.LeftSerif;
},
{
origin = "{0, 0}";
scale = "{1.04, 1}";
type = Corner;
name = _corner.RightSerif;
},
{
origin = "{0, 1}";
type = Corner;
name = _corner.LeftSerif;
}
);
layerId = "C63D1689-C165-4702-97A9-92378EA0C5CB";
name = "Apr 9 20, 10:13";
paths = (
{
closed = 1;
nodes = (
"151 0 LINE",
"221 568 LINE",
"159 568 LINE",
"89 0 LINE"
);
},
{
closed = 1;
nodes = (
"498 0 LINE",
"502 31 LINE",
"470 40 LINE SMOOTH",
"441 48 OFFCURVE",
"427 50 OFFCURVE",
"403 95 CURVE SMOOTH",
"374 149 OFFCURVE",
"333 263 OFFCURVE",
"313 369 CURVE",
"266 314 LINE",
"282 229 OFFCURVE",
"311 133 OFFCURVE",
"341 70 CURVE SMOOTH",
"374 0 OFFCURVE",
"391 0 OFFCURVE",
"398 0 CURVE SMOOTH"
);
},
{
closed = 1;
nodes = (
"288 312 LINE",
"463 506 LINE SMOOTH",
"477 522 OFFCURVE",
"483 522 OFFCURVE",
"495 525 CURVE SMOOTH",
"546 536 LINE",
"550 568 LINE",
"367 568 LINE",
"363 536 LINE",
"427 522 LINE",
"162 226 LINE",
"155 165 LINE"
);
}
);
width = 526;
}
);
leftKerningGroup = H;
leftMetricsKey = H;
rightKerningGroup = K;
unicode = 004B;
userData = {
com.typemytype.robofont.layerData = {
background = {
anchors = (
{
name = btm;
x = 788;
y = -170;
},
{
name = top;
x = 760;
y = 1700;
}
);
components = (
);
contours = (
{
points = (
{
segmentType = line;
smooth = 0;
x = 109;
y = 0;
},
{
segmentType = line;
smooth = 0;
x = 646;
y = 0;
},
{
segmentType = line;
smooth = 0;
x = 646;
y = 85;
},
{
segmentType = line;
smooth = 0;
x = 419;
y = 111;
},
{
segmentType = line;
smooth = 0;
x = 453;
y = 68;
},
{
segmentType = line;
smooth = 0;
x = 453;
y = 630;
},
{
segmentType = line;
smooth = 0;
x = 398;
y = 458;
},
{
segmentType = line;
smooth = 0;
x = 706;
y = 808;
},
{
segmentType = line;
smooth = 0;
x = 750;
y = 858;
},
{
segmentType = line;
smooth = 0;
x = 1289;
y = 1460;
},
{
segmentType = line;
smooth = 0;
x = 1217;
y = 1408;
},
{
segmentType = line;
smooth = 0;
x = 1394;
y = 1434;
},
{
segmentType = line;
smooth = 0;
x = 1394;
y = 1522;
},
{
segmentType = line;
smooth = 0;
x = 920;
y = 1522;
},
{
segmentType = line;
smooth = 0;
x = 920;
y = 1434;
},
{
segmentType = line;
smooth = 0;
x = 1120;
y = 1409;
},
{
segmentType = line;
smooth = 0;
x = 1134;
y = 1460;
},
{
segmentType = line;
smooth = 0;
x = 453;
y = 666;
},
{
segmentType = line;
smooth = 0;
x = 453;
y = 1457;
},
{
segmentType = line;
smooth = 0;
x = 426;
y = 1408;
},
{
segmentType = line;
smooth = 0;
x = 629;
y = 1434;
},
{
segmentType = line;
smooth = 0;
x = 629;
y = 1522;
},
{
segmentType = line;
smooth = 0;
x = 113;
y = 1522;
},
{
segmentType = line;
smooth = 0;
x = 113;
y = 1434;
},
{
segmentType = line;
smooth = 0;
x = 304;
y = 1409;
},
{
segmentType = line;
smooth = 0;
x = 284;
y = 1457;
},
{
segmentType = line;
smooth = 0;
x = 284;
y = 74;
},
{
segmentType = line;
smooth = 0;
x = 314;
y = 111;
},
{
segmentType = line;
smooth = 0;
x = 109;
y = 88;
}
);
},
{
points = (
{
segmentType = line;
smooth = 0;
x = 1460;
y = 0;
},
{
segmentType = line;
smooth = 0;
x = 1460;
y = 85;
},
{
segmentType = line;
smooth = 0;
x = 1364;
y = 108;
},
{
smooth = 0;
x = 1277;
y = 119;
},
{
smooth = 0;
x = 967;
y = 733;
},
{
segmentType = curve;
smooth = 0;
x = 761;
y = 897;
},
{
segmentType = line;
smooth = 0;
x = 702;
y = 856;
},
{
segmentType = line;
smooth = 0;
x = 647;
y = 799;
},
{
smooth = 0;
x = 842;
y = 636;
},
{
smooth = 0;
x = 1103;
y = 0;
},
{
segmentType = curve;
smooth = 0;
x = 1215;
y = 0;
}
);
}
);
lib = {
};
name = K;
unicodes = (
);
width = 1519;
};
};
};
},
{
color = 8;
glyphname = L;
lastChange = "2020-03-17 16:19:47 +0000";
layers = (
{
anchors = (
{
name = btm;
position = "{239, 0}";
},
{
name = top;
position = "{216, 568}";
},
{
name = topright;
position = "{274, 333}";
}
);
background = {
anchors = (
{
name = btm;
position = "{239, 0}";
},
{
name = top;
position = "{216, 568}";
},
{
name = topright;
position = "{274, 333}";
}
);
paths = (
{
closed = 1;
nodes = (
"383 69 LINE SMOOTH",
"378 58 OFFCURVE",
"371 52 OFFCURVE",
"359 48 CURVE SMOOTH",
"339 41 OFFCURVE",
"309 39 OFFCURVE",
"273 39 CURVE SMOOTH",
"156 39 LINE",
"213 501 LINE SMOOTH",
"215 514 OFFCURVE",
"222 522 OFFCURVE",
"235 524 CURVE SMOOTH",
"313 536 LINE",
"317 568 LINE",
"81 568 LINE",
"77 536 LINE",
"135 525 LINE SMOOTH",
"147 523 OFFCURVE",
"153 514 OFFCURVE",
"151 501 CURVE SMOOTH",
"97 65 LINE SMOOTH",
"95 52 OFFCURVE",
"89 44 OFFCURVE",
"75 42 CURVE SMOOTH",
"15 32 LINE",
"11 0 LINE",
"420 0 LINE",
"436 48 OFFCURVE",
"448 108 OFFCURVE",
"455 157 CURVE",
"424 161 LINE"
);
}
);
};
hints = (
{
origin = "{0, 15}";
type = Corner;
name = _corner.LeftSerif;
},
{
origin = "{0, 14}";
type = Corner;
name = _corner.RightSerif;
}
);
layerId = "DAAEA780-4710-4479-B303-5C05B40621B2";
paths = (
{
closed = 1;
nodes = (
"352 69 LINE SMOOTH",
"348 60 OFFCURVE",
"346 53 OFFCURVE",
"330 48 CURVE SMOOTH",
"311 42 OFFCURVE",
"281 39 OFFCURVE",
"245 39 CURVE SMOOTH",
"156 39 LINE",
"212 493 LINE SMOOTH",
"215 519 OFFCURVE",
"224 523 OFFCURVE",
"240 526 CURVE SMOOTH",
"307 536 LINE",
"311 568 LINE",
"159 568 LINE",
"89 0 LINE",
"395 0 LINE",
"404 36 OFFCURVE",
"418 107 OFFCURVE",
"421 157 CURVE",
"388 161 LINE"
);
}
);
width = 453;
},
{
anchors = (
{
name = btm;
position = "{252, 0}";
},
{
name = top;
position = "{263, 568}";
},
{
name = topright;
position = "{332, 333}";
}
);
background = {
anchors = (
{
name = btm;
position = "{252, 0}";
},
{
name = top;
position = "{263, 568}";
},
{
name = topright;
position = "{332, 333}";
}
);
paths = (
{
closed = 1;
nodes = (
"376 93 LINE SMOOTH",
"370 80 OFFCURVE",
"362 73 OFFCURVE",
"352 69 CURVE SMOOTH",
"338 63 OFFCURVE",
"314 60 OFFCURVE",
"284 60 CURVE SMOOTH",
"221 60 LINE",
"273 481 LINE SMOOTH",
"274 492 OFFCURVE",
"281 499 OFFCURVE",
"293 501 CURVE SMOOTH",
"369 513 LINE",
"376 568 LINE",
"72 568 LINE",
"65 513 LINE",
"121 502 LINE SMOOTH",
"132 500 OFFCURVE",
"136 493 OFFCURVE",
"135 482 CURVE SMOOTH",
"86 83 LINE SMOOTH",
"85 72 OFFCURVE",
"78 65 OFFCURVE",
"67 63 CURVE SMOOTH",
"9 52 LINE",
"2 0 LINE",
"454 0 LINE",
"478 70 OFFCURVE",
"486 139 OFFCURVE",
"494 201 CURVE",
"426 210 LINE"
);
}
);
};
hints = (
{
origin = "{0, 14}";
type = Corner;
name = _corner.RightSerif;
},
{
origin = "{0, 15}";
type = Corner;
name = _corner.LeftSerif;
}
);
layerId = "925CB40E-795E-477B-BAE7-1EE7D58841B5";
paths = (
{
closed = 1;
nodes = (
"355 95 LINE SMOOTH",
"348 78 OFFCURVE",
"340 69 OFFCURVE",
"326 65 CURVE SMOOTH",
"309 60 OFFCURVE",
"288 59 OFFCURVE",
"262 59 CURVE SMOOTH",
"220 59 LINE",
"272 483 LINE SMOOTH",
"275 504 OFFCURVE",
"287 505 OFFCURVE",
"298 507 CURVE SMOOTH",
"359 516 LINE",
"365 568 LINE",
"147 568 LINE",
"76 0 LINE",
"435 0 LINE",
"454 63 OFFCURVE",
"463 135 OFFCURVE",
"466 200 CURVE",
"401 209 LINE"
);
}
);
width = 484;
}
);
leftKerningGroup = H;
leftMetricsKey = H;
rightKerningGroup = L;
unicode = 004C;
userData = {
com.typemytype.robofont.layerData = {
background = {
anchors = (
{
name = btm;
x = 695;
y = -170;
},
{
name = top;
x = 577;
y = 1700;
}
);
components = (
);
contours = (
{
points = (
{
segmentType = line;
smooth = 0;
x = 109;
y = 0;
},
{
segmentType = line;
smooth = 0;
x = 1174;
y = 0;
},
{
segmentType = line;
smooth = 0;
x = 1249;
y = 426;
},
{
segmentType = line;
smooth = 0;
x = 1151;
y = 443;
},
{
segmentType = line;
smooth = 0;
x = 1036;
y = 122;
},
{
segmentType = line;
smooth = 0;
x = 407;
y = 106;
},
{
segmentType = line;
smooth = 0;
x = 453;
y = 50;
},
{
segmentType = line;
smooth = 0;
x = 453;
y = 1459;
},
{
segmentType = line;
smooth = 0;
x = 434;
y = 1410;
},
{
segmentType = line;
smooth = 0;
x = 657;
y = 1434;
},
{
segmentType = line;
smooth = 0;
x = 657;
y = 1522;
},
{
segmentType = line;
smooth = 0;
x = 113;
y = 1522;
},
{
segmentType = line;
smooth = 0;
x = 113;
y = 1434;
},
{
segmentType = line;
smooth = 0;
x = 304;
y = 1409;
},
{
segmentType = line;
smooth = 0;
x = 284;
y = 1459;
},
{
segmentType = line;
smooth = 0;
x = 284;
y = 58;
},
{
segmentType = line;
smooth = 0;
x = 327;
y = 112;
},
{
segmentType = line;
smooth = 0;
x = 109;
y = 88;
}
);
}
);
lib = {
};
name = L;
unicodes = (
);
width = 1310;
};
};
};
},
{
color = 8;
glyphname = M;
lastChange = "2020-03-17 17:04:38 +0000";
layers = (
{
anchors = (
{
name = btm;
position = "{333, 0}";
},
{
name = top;
position = "{407, 568}";
}
);
background = {
anchors = (
{
name = btm;
position = "{333, 0}";
},
{
name = top;
position = "{407, 568}";
}
);
paths = (
{
closed = 1;
nodes = (
"622 499 LINE SMOOTH",
"621 512 OFFCURVE",
"628 521 OFFCURVE",
"643 524 CURVE SMOOTH",
"712 536 LINE",
"716 568 LINE",
"540 568 LINE",
"334 82 LINE",
"363 82 LINE",
"258 568 LINE",
"83 568 LINE",
"79 536 LINE",
"144 524 LINE SMOOTH",
"157 522 OFFCURVE",
"163 512 OFFCURVE",
"160 500 CURVE SMOOTH",
"52 65 LINE SMOOTH",
"48 49 OFFCURVE",
"39 44 OFFCURVE",
"29 42 CURVE SMOOTH",
"-27 32 LINE",
"-31 0 LINE",
"164 0 LINE",
"168 32 LINE",
"96 44 LINE",
"217 547 LINE",
"196 547 LINE",
"315 25 LINE",
"355 25 LINE",
"578 547 LINE",
"556 547 LINE",
"576 44 LINE",
"506 32 LINE",
"502 0 LINE",
"706 0 LINE",
"710 32 LINE",
"657 42 LINE SMOOTH",
"646 44 OFFCURVE",
"640 51 OFFCURVE",
"639 64 CURVE SMOOTH"
);
}
);
};
guideLines = (
{
angle = 68.1797;
position = "{520, 568}";
},
{
angle = 91.5765;
position = "{608, 282}";
},
{
angle = 256.2114;
position = "{129, 283}";
},
{
angle = -9.3099;
position = "{105, 536}";
},
{
angle = 9.6052;
position = "{688, 536}";
}
);
layerId = "DAAEA780-4710-4479-B303-5C05B40621B2";
paths = (
{
closed = 1;
nodes = (
"604 496 LINE SMOOTH",
"604 514 OFFCURVE",
"608 522 OFFCURVE",
"625 525 CURVE SMOOTH",
"688 536 LINE",
"692 568 LINE",
"522 568 LINE",
"328 82 LINE",
"358 82 LINE",
"275 568 LINE",
"107 568 LINE",
"103 536 LINE",
"164 526 LINE SMOOTH",
"176 524 OFFCURVE",
"184 515 OFFCURVE",
"179 496 CURVE SMOOTH",
"75 65 LINE SMOOTH",
"71 49 OFFCURVE",
"62 44 OFFCURVE",
"52 42 CURVE SMOOTH",
"0 32 LINE",
"-4 0 LINE",
"183 0 LINE",
"187 32 LINE",
"120 44 LINE",
"240 547 LINE",
"217 547 LINE",
"309 25 LINE",
"351 25 LINE",
"562 547 LINE",
"541 547 LINE",
"553 44 LINE",
"487 32 LINE",
"483 0 LINE",
"678 0 LINE",
"682 32 LINE",
"632 42 LINE SMOOTH",
"621 44 OFFCURVE",
"614 51 OFFCURVE",
"614 64 CURVE SMOOTH"
);
}
);
width = 718;
},
{
anchors = (
{
name = btm;
position = "{317, 0}";
},
{
name = top;
position = "{439, 568}";
}
);
background = {
anchors = (
{
name = btm;
position = "{317, 0}";
},
{
name = top;
position = "{439, 568}";
}
);
paths = (
{
closed = 1;
nodes = (
"705 480 LINE SMOOTH",
"705 492 OFFCURVE",
"710 499 OFFCURVE",
"724 502 CURVE SMOOTH",
"790 513 LINE",
"797 568 LINE",
"533 568 LINE",
"371 118 LINE",
"407 118 LINE",
"346 568 LINE",
"82 568 LINE",
"75 513 LINE",
"136 502 LINE SMOOTH",
"147 500 OFFCURVE",
"151 492 OFFCURVE",
"149 480 CURVE SMOOTH",
"52 84 LINE SMOOTH",
"49 73 OFFCURVE",
"43 67 OFFCURVE",
"32 64 CURVE SMOOTH",
"-26 52 LINE",
"-32 0 LINE",
"194 0 LINE",
"200 52 LINE",
"123 63 LINE",
"235 537 LINE",
"211 537 LINE",
"294 20 LINE",
"404 20 LINE",
"591 536 LINE",
"571 536 LINE",
"576 63 LINE",
"508 52 LINE",
"502 0 LINE",
"776 0 LINE",
"782 52 LINE",
"730 64 LINE SMOOTH",
"720 66 OFFCURVE",
"715 72 OFFCURVE",
"714 84 CURVE SMOOTH"
);
}
);
};
guideLines = (
{
angle = 190.7389;
position = "{768, 513}";
},
{
angle = -10.9228;
position = "{94, 513}";
},
{
angle = 90.2894;
position = "{691, 282}";
},
{
angle = 256.6466;
position = "{117, 282}";
}
);
layerId = "925CB40E-795E-477B-BAE7-1EE7D58841B5";
paths = (
{
closed = 1;
nodes = (
"690 475 LINE SMOOTH",
"690 490 OFFCURVE",
"696 499 OFFCURVE",
"710 502 CURVE SMOOTH",
"768 513 LINE",
"775 568 LINE",
"519 568 LINE",
"366 118 LINE",
"400 118 LINE",
"354 568 LINE",
"101 568 LINE",
"94 513 LINE",
"151 502 LINE SMOOTH",
"161 500 OFFCURVE",
"167 493 OFFCURVE",
"163 476 CURVE SMOOTH",
"70 84 LINE SMOOTH",
"67 73 OFFCURVE",
"61 66 OFFCURVE",
"50 64 CURVE SMOOTH",
"-4 52 LINE",
"-10 0 LINE",
"209 0 LINE",
"215 52 LINE",
"142 63 LINE",
"252 537 LINE",
"226 537 LINE",
"292 20 LINE",
"402 20 LINE",
"579 536 LINE",
"559 536 LINE",
"558 63 LINE",
"494 52 LINE",
"488 0 LINE",
"752 0 LINE",
"758 52 LINE",
"708 64 LINE SMOOTH",
"698 66 OFFCURVE",
"692 72 OFFCURVE",
"692 84 CURVE SMOOTH"
);
}
);
width = 790;
}
);
unicode = 004D;
userData = {
com.typemytype.robofont.layerData = {
background = {
anchors = (
{
name = btm;
x = 1069;
y = -170;
},
{
name = top;
x = 1078;
y = 1700;
}
);
components = (
);
contours = (
{
points = (
{
segmentType = line;
smooth = 0;
x = 78;
y = 0;
},
{
segmentType = line;
smooth = 0;
x = 595;
y = 0;
},
{
segmentType = line;
smooth = 0;
x = 595;
y = 88;
},
{
segmentType = line;
smooth = 0;
x = 348;
y = 111;
},
{
segmentType = line;
smooth = 0;
x = 388;
y = 57;
},
{
segmentType = line;
smooth = 0;
x = 486;
y = 1041;
},
{
segmentType = line;
smooth = 0;
x = 534;
y = 1498;
},
{
segmentType = line;
smooth = 0;
x = 514;
y = 1498;
},
{
segmentType = line;
smooth = 0;
x = 657;
y = 1053;
},
{
segmentType = line;
smooth = 0;
x = 1041;
y = 74;
},
{
segmentType = line;
smooth = 0;
x = 1113;
y = 74;
},
{
segmentType = line;
smooth = 0;
x = 1450;
y = 1167;
},
{
segmentType = line;
smooth = 0;
x = 1542;
y = 1477;
},
{
segmentType = line;
smooth = 0;
x = 1531;
y = 1477;
},
{
segmentType = line;
smooth = 0;
x = 1587;
y = 1040;
},
{
segmentType = line;
smooth = 0;
x = 1744;
y = 47;
},
{
segmentType = line;
smooth = 0;
x = 1772;
y = 111;
},
{
segmentType = line;
smooth = 0;
x = 1545;
y = 88;
},
{
segmentType = line;
smooth = 0;
x = 1545;
y = 0;
},
{
segmentType = line;
smooth = 0;
x = 2091;
y = 0;
},
{
segmentType = line;
smooth = 0;
x = 2091;
y = 88;
},
{
segmentType = line;
smooth = 0;
x = 1883;
y = 111;
},
{
segmentType = line;
smooth = 0;
x = 1918;
y = 48;
},
{
segmentType = line;
smooth = 0;
x = 1689;
y = 1411;
},
{
segmentType = line;
smooth = 0;
x = 1924;
y = 1434;
},
{
segmentType = line;
smooth = 0;
x = 1924;
y = 1522;
},
{
segmentType = line;
smooth = 0;
x = 1448;
y = 1522;
},
{
segmentType = line;
smooth = 0;
x = 1151;
y = 576;
},
{
segmentType = line;
smooth = 0;
x = 1061;
y = 179;
},
{
segmentType = line;
smooth = 0;
x = 1124;
y = 179;
},
{
segmentType = line;
smooth = 0;
x = 1011;
y = 576;
},
{
segmentType = line;
smooth = 0;
x = 666;
y = 1522;
},
{
segmentType = line;
smooth = 0;
x = 187;
y = 1522;
},
{
segmentType = line;
smooth = 0;
x = 187;
y = 1434;
},
{
segmentType = line;
smooth = 0;
x = 419;
y = 1412;
},
{
segmentType = line;
smooth = 0;
x = 251;
y = 56;
},
{
segmentType = line;
smooth = 0;
x = 294;
y = 111;
},
{
segmentType = line;
smooth = 0;
x = 78;
y = 88;
}
);
}
);
lib = {
};
name = M;
unicodes = (
);
width = 2103;
};
};
};
},
{
color = 8;
glyphname = N;
lastChange = "2020-03-17 16:19:47 +0000";
layers = (
{
anchors = (
{
name = btm;
position = "{296, 0}";
},
{
name = top;
position = "{346, 568}";
}
);
background = {
anchors = (
{
name = btm;
position = "{296, 0}";
},
{
name = top;
position = "{346, 568}";
}
);
paths = (
{
closed = 1;
nodes = (
"585 524 CURVE SMOOTH",
"639 536 LINE",
"643 568 LINE",
"445 568 LINE",
"441 536 LINE",
"501 524 LINE SMOOTH",
"514 521 OFFCURVE",
"520 513 OFFCURVE",
"519 501 CURVE SMOOTH",
"466 70 LINE",
"487 75 LINE",
"219 568 LINE",
"80 568 LINE",
"76 536 LINE",
"133 524 LINE SMOOTH",
"145 521 OFFCURVE",
"151 513 OFFCURVE",
"150 501 CURVE SMOOTH",
"96 66 LINE SMOOTH",
"94 53 OFFCURVE",
"88 46 OFFCURVE",
"74 43 CURVE SMOOTH",
"14 32 LINE",
"10 0 LINE",
"219 0 LINE",
"223 32 LINE",
"158 43 LINE SMOOTH",
"146 45 OFFCURVE",
"139 53 OFFCURVE",
"141 66 CURVE SMOOTH",
"196 513 LINE",
"175 510 LINE",
"453 0 LINE",
"502 0 LINE",
"564 501 LINE SMOOTH",
"566 514 OFFCURVE",
"573 521 OFFCURVE"
);
}
);
};
hints = (
{
origin = "{0, 11}";
type = Corner;
name = _corner.LeftSerif;
},
{
origin = "{0, 0}";
scale = "{1.06, 1}";
type = Corner;
name = _corner.RightSerif;
},
{
origin = "{0, 10}";
type = Corner;
name = _corner.RightSerif;
},
{
origin = "{0, 5}";
scale = "{0.9, 1}";
type = Corner;
name = _corner.LeftSerif;
},
{
origin = "{0, 6}";
scale = "{1.01, 1}";
type = Corner;
name = _corner.RightSerif;
}
);
layerId = "DAAEA780-4710-4479-B303-5C05B40621B2";
paths = (
{
closed = 1;
nodes = (
"134 0 LINE",
"198 513 LINE",
"182 511 LINE",
"415 0 LINE",
"471 0 LINE",
"541 568 LINE",
"496 568 LINE",
"435 70 LINE",
"448 74 LINE",
"225 568 LINE",
"159 568 LINE",
"89 0 LINE"
);
}
);
width = 597;
},
{
anchors = (
{
name = btm;
position = "{308, 0}";
},
{
name = top;
position = "{363, 568}";
}
);
background = {
anchors = (
{
name = btm;
position = "{308, 0}";
},
{
name = top;
position = "{363, 568}";
}
);
paths = (
{
closed = 1;
nodes = (
"611 502 CURVE SMOOTH",
"665 513 LINE",
"672 568 LINE",
"449 568 LINE",
"442 513 LINE",
"501 502 LINE SMOOTH",
"512 500 OFFCURVE",
"516 493 OFFCURVE",
"515 481 CURVE SMOOTH",
"473 134 LINE",
"500 136 LINE",
"288 568 LINE",
"72 568 LINE",
"65 513 LINE",
"121 502 LINE SMOOTH",
"132 500 OFFCURVE",
"136 493 OFFCURVE",
"135 481 CURVE SMOOTH",
"86 83 LINE SMOOTH",
"85 72 OFFCURVE",
"78 65 OFFCURVE",
"67 63 CURVE SMOOTH",
"9 52 LINE",
"2 0 LINE",
"235 0 LINE",
"242 52 LINE",
"177 63 LINE SMOOTH",
"166 65 OFFCURVE",
"161 72 OFFCURVE",
"162 83 CURVE SMOOTH",
"209 466 LINE",
"182 464 LINE",
"407 0 LINE",
"532 0 LINE",
"591 481 LINE SMOOTH",
"592 493 OFFCURVE",
"600 500 OFFCURVE"
);
}
);
};
hints = (
{
origin = "{0, 6}";
type = Corner;
name = _corner.RightSerif;
},
{
origin = "{0, 5}";
type = Corner;
name = _corner.LeftSerif;
},
{
origin = "{0, 10}";
type = Corner;
name = _corner.RightSerif;
},
{
origin = "{0, 11}";
type = Corner;
name = _corner.LeftSerif;
},
{
origin = "{0, 0}";
type = Corner;
name = _corner.RightSerif;
}
);
layerId = "925CB40E-795E-477B-BAE7-1EE7D58841B5";
paths = (
{
closed = 1;
nodes = (
"151 0 LINE",
"209 467 LINE",
"186 465 LINE",
"385 0 LINE",
"506 0 LINE",
"577 568 LINE",
"502 568 LINE",
"448 133 LINE",
"469 135 LINE",
"283 568 LINE",
"147 568 LINE",
"76 0 LINE"
);
}
);
width = 619;
}
);
leftKerningGroup = H;
leftMetricsKey = H;
rightKerningGroup = N;
unicode = 004E;
userData = {
com.typemytype.robofont.layerData = {
background = {
anchors = (
{
name = btm;
x = 835;
y = -170;
},
{
name = top;
x = 835;
y = 1700;
}
);
components = (
);
contours = (
{
points = (
{
segmentType = line;
smooth = 0;
x = 115;
y = 0;
},
{
segmentType = line;
smooth = 0;
x = 584;
y = 0;
},
{
segmentType = line;
smooth = 0;
x = 584;
y = 88;
},
{
segmentType = line;
smooth = 0;
x = 380;
y = 109;
},
{
segmentType = line;
smooth = 0;
x = 397;
y = 74;
},
{
segmentType = line;
smooth = 0;
x = 397;
y = 1388;
},
{
segmentType = line;
smooth = 0;
x = 360;
y = 1388;
},
{
segmentType = line;
smooth = 0;
x = 566;
y = 1054;
},
{
segmentType = line;
smooth = 0;
x = 1299;
y = 0;
},
{
segmentType = line;
smooth = 0;
x = 1405;
y = 0;
},
{
segmentType = line;
smooth = 0;
x = 1405;
y = 1446;
},
{
segmentType = line;
smooth = 0;
x = 1380;
y = 1408;
},
{
segmentType = line;
smooth = 0;
x = 1572;
y = 1434;
},
{
segmentType = line;
smooth = 0;
x = 1572;
y = 1522;
},
{
segmentType = line;
smooth = 0;
x = 1106;
y = 1522;
},
{
segmentType = line;
smooth = 0;
x = 1106;
y = 1434;
},
{
segmentType = line;
smooth = 0;
x = 1317;
y = 1407;
},
{
segmentType = line;
smooth = 0;
x = 1286;
y = 1446;
},
{
segmentType = line;
smooth = 0;
x = 1286;
y = 113;
},
{
segmentType = line;
smooth = 0;
x = 1373;
y = 113;
},
{
segmentType = line;
smooth = 0;
x = 1170;
y = 471;
},
{
segmentType = line;
smooth = 0;
x = 445;
y = 1522;
},
{
segmentType = line;
smooth = 0;
x = 115;
y = 1522;
},
{
segmentType = line;
smooth = 0;
x = 115;
y = 1434;
},
{
segmentType = line;
smooth = 0;
x = 320;
y = 1405;
},
{
segmentType = line;
smooth = 0;
x = 278;
y = 1441;
},
{
segmentType = line;
smooth = 0;
x = 278;
y = 74;
},
{
segmentType = line;
smooth = 0;
x = 295;
y = 110;
},
{
segmentType = line;
smooth = 0;
x = 115;
y = 88;
}
);
}
);
lib = {
};
name = N;
unicodes = (
);
width = 1730;
};
};
};
},
{
color = 8;
glyphname = O;
lastChange = "2020-04-10 11:46:18 +0000";
layers = (
{
anchors = (
{
name = btm;
position = "{244, 0}";
},
{
name = top;
position = "{323, 576}";
}
);
associatedMasterId = "DAAEA780-4710-4479-B303-5C05B40621B2";
background = {
anchors = (
{
name = btm;
position = "{244, 0}";
},
{
name = top;
position = "{323, 576}";
}
);
paths = (
{
closed = 1;
nodes = (
"22 100 OFFCURVE",
"90 -8 OFFCURVE",
"242 -8 CURVE SMOOTH",
"392 -8 OFFCURVE",
"508 101 OFFCURVE",
"531 293 CURVE SMOOTH",
"552 468 OFFCURVE",
"486 576 OFFCURVE",
"333 576 CURVE SMOOTH",
"185 576 OFFCURVE",
"69 470 OFFCURVE",
"44 275 CURVE SMOOTH"
);
},
{
closed = 1;
nodes = (
"135 453 OFFCURVE",
"210 538 OFFCURVE",
"319 538 CURVE SMOOTH",
"435 538 OFFCURVE",
"480 447 OFFCURVE",
"460 285 CURVE SMOOTH",
"439 116 OFFCURVE",
"364 31 OFFCURVE",
"255 31 CURVE SMOOTH",
"140 31 OFFCURVE",
"94 122 OFFCURVE",
"114 284 CURVE SMOOTH"
);
}
);
};
layerId = "F1EBA61A-A301-440E-BFBC-B98A21ECD61C";
name = "Mar 12 20, 14:08";
paths = (
{
closed = 1;
nodes = (
"410 -8 OFFCURVE",
"527 148 OFFCURVE",
"527 337 CURVE SMOOTH",
"527 485 OFFCURVE",
"456 576 OFFCURVE",
"326 576 CURVE SMOOTH",
"163 576 OFFCURVE",
"46 420 OFFCURVE",
"46 227 CURVE SMOOTH",
"46 92 OFFCURVE",
"117 -8 OFFCURVE",
"247 -8 CURVE SMOOTH"
);
},
{
closed = 1;
nodes = (
"165 32 OFFCURVE",
"116 121 OFFCURVE",
"116 232 CURVE SMOOTH",
"116 391 OFFCURVE",
"203 536 OFFCURVE",
"320 536 CURVE SMOOTH",
"408 536 OFFCURVE",
"457 456 OFFCURVE",
"457 340 CURVE SMOOTH",
"457 177 OFFCURVE",
"370 32 OFFCURVE",
"253 32 CURVE SMOOTH"
);
}
);
width = 554;
},
{
anchors = (
{
name = btm;
position = "{263, 0}";
},
{
name = top;
position = "{336, 568}";
}
);
associatedMasterId = "925CB40E-795E-477B-BAE7-1EE7D58841B5";
background = {
anchors = (
{
name = btm;
position = "{263, 0}";
},
{
name = top;
position = "{336, 568}";
}
);
paths = (
{
closed = 1;
nodes = (
"254 -12 CURVE SMOOTH",
"428 -12 OFFCURVE",
"534 101 OFFCURVE",
"557 294 CURVE SMOOTH",
"578 470 OFFCURVE",
"516 580 OFFCURVE",
"345 580 CURVE SMOOTH",
"171 580 OFFCURVE",
"65 467 OFFCURVE",
"42 273 CURVE SMOOTH",
"21 97 OFFCURVE",
"83 -12 OFFCURVE"
);
},
{
closed = 1;
nodes = (
"330 523 CURVE SMOOTH",
"400 523 OFFCURVE",
"426 457 OFFCURVE",
"406 289 CURVE SMOOTH",
"385 115 OFFCURVE",
"339 44 OFFCURVE",
"269 44 CURVE SMOOTH",
"199 44 OFFCURVE",
"173 112 OFFCURVE",
"194 280 CURVE SMOOTH",
"216 453 OFFCURVE",
"259 523 OFFCURVE"
);
}
);
};
layerId = "08D2583D-67F8-4D27-A3AC-66EF2528F3A1";
name = "Mar 12 20, 14:28";
paths = (
{
closed = 1;
nodes = (
"472 -15 OFFCURVE",
"558 159 OFFCURVE",
"558 329 CURVE SMOOTH",
"558 500 OFFCURVE",
"467 582 OFFCURVE",
"330 582 CURVE SMOOTH",
"133 582 OFFCURVE",
"41 414 OFFCURVE",
"41 237 CURVE SMOOTH",
"41 68 OFFCURVE",
"131 -15 OFFCURVE",
"269 -15 CURVE SMOOTH"
);
},
{
closed = 1;
nodes = (
"215 42 OFFCURVE",
"189 102 OFFCURVE",
"189 204 CURVE SMOOTH",
"189 352 OFFCURVE",
"243 524 OFFCURVE",
"333 524 CURVE SMOOTH",
"383 524 OFFCURVE",
"410 469 OFFCURVE",
"410 363 CURVE SMOOTH",
"410 213 OFFCURVE",
"357 42 OFFCURVE",
"268 42 CURVE SMOOTH"
);
}
);
width = 580;
},
{
anchors = (
{
name = btm;
position = "{234, 0}";
},
{
name = top;
position = "{313, 576}";
}
);
associatedMasterId = "DAAEA780-4710-4479-B303-5C05B40621B2";
background = {
anchors = (
{
name = btm;
position = "{234, 0}";
},
{
name = top;
position = "{313, 576}";
}
);
paths = (
{
closed = 1;
nodes = (
"12 100 OFFCURVE",
"80 -8 OFFCURVE",
"232 -8 CURVE SMOOTH",
"382 -8 OFFCURVE",
"498 101 OFFCURVE",
"521 293 CURVE SMOOTH",
"542 468 OFFCURVE",
"476 576 OFFCURVE",
"323 576 CURVE SMOOTH",
"175 576 OFFCURVE",
"59 470 OFFCURVE",
"34 275 CURVE SMOOTH"
);
},
{
closed = 1;
nodes = (
"125 453 OFFCURVE",
"200 538 OFFCURVE",
"309 538 CURVE SMOOTH",
"425 538 OFFCURVE",
"470 447 OFFCURVE",
"450 285 CURVE SMOOTH",
"429 116 OFFCURVE",
"354 31 OFFCURVE",
"245 31 CURVE SMOOTH",
"130 31 OFFCURVE",
"84 122 OFFCURVE",
"104 284 CURVE SMOOTH"
);
}
);
};
layerId = "43D0F054-C63F-4EB7-BD30-9997BC12B387";
name = "Mar 21 20, 18:37";
paths = (
{
closed = 1;
nodes = (
"381 -13 OFFCURVE",
"505 140 OFFCURVE",
"505 352 CURVE SMOOTH",
"505 485 OFFCURVE",
"451 576 OFFCURVE",
"329 576 CURVE SMOOTH",
"173 576 OFFCURVE",
"49 424 OFFCURVE",
"49 212 CURVE SMOOTH",
"49 79 OFFCURVE",
"103 -13 OFFCURVE",
"225 -13 CURVE SMOOTH"
);
},
{
closed = 1;
nodes = (
"161 29 OFFCURVE",
"118 109 OFFCURVE",
"118 229 CURVE SMOOTH",
"118 400 OFFCURVE",
"197 534 OFFCURVE",
"306 534 CURVE SMOOTH",
"393 534 OFFCURVE",
"436 454 OFFCURVE",
"436 334 CURVE SMOOTH",
"436 162 OFFCURVE",
"357 29 OFFCURVE",
"248 29 CURVE SMOOTH"
);
}
);
width = 535;
},
{
anchors = (
{
name = btm;
position = "{236, 0}";
},
{
name = top;
position = "{315, 576}";
}
);
background = {
paths = (
{
closed = 1;
nodes = (
"387 -13 OFFCURVE",
"509 145 OFFCURVE",
"509 339 CURVE SMOOTH",
"509 489 OFFCURVE",
"433 576 OFFCURVE",
"326 576 CURVE SMOOTH",
"173 576 OFFCURVE",
"49 420 OFFCURVE",
"49 226 CURVE SMOOTH",
"49 87 OFFCURVE",
"116 -13 OFFCURVE",
"232 -13 CURVE SMOOTH"
);
},
{
closed = 1;
nodes = (
"170 28 OFFCURVE",
"120 111 OFFCURVE",
"120 239 CURVE SMOOTH",
"120 394 OFFCURVE",
"197 535 OFFCURVE",
"305 535 CURVE SMOOTH",
"387 535 OFFCURVE",
"438 456 OFFCURVE",
"438 322 CURVE SMOOTH",
"438 163 OFFCURVE",
"359 28 OFFCURVE",
"254 28 CURVE SMOOTH"
);
}
);
};
layerId = "DAAEA780-4710-4479-B303-5C05B40621B2";
paths = (
{
closed = 1;
nodes = (
"387 -13 OFFCURVE",
"509 145 OFFCURVE",
"509 342 CURVE SMOOTH",
"509 499 OFFCURVE",
"436 576 OFFCURVE",
"326 576 CURVE SMOOTH",
"173 576 OFFCURVE",
"49 420 OFFCURVE",
"49 219 CURVE SMOOTH",
"49 77 OFFCURVE",
"113 -13 OFFCURVE",
"232 -13 CURVE SMOOTH"
);
},
{
closed = 1;
nodes = (
"167 28 OFFCURVE",
"121 111 OFFCURVE",
"121 230 CURVE SMOOTH",
"121 394 OFFCURVE",
"197 535 OFFCURVE",
"305 535 CURVE SMOOTH",
"390 535 OFFCURVE",
"437 456 OFFCURVE",
"437 331 CURVE SMOOTH",
"437 163 OFFCURVE",
"359 28 OFFCURVE",
"254 28 CURVE SMOOTH"
);
}
);
width = 540;
},
{
anchors = (
{
name = btm;
position = "{257, 0}";
},
{
name = top;
position = "{330, 568}";
}
);
associatedMasterId = "925CB40E-795E-477B-BAE7-1EE7D58841B5";
background = {
anchors = (
{
name = btm;
position = "{257, 0}";
},
{
name = top;
position = "{330, 568}";
}
);
paths = (
{
closed = 1;
nodes = (
"248 -12 CURVE SMOOTH",
"422 -12 OFFCURVE",
"528 101 OFFCURVE",
"551 294 CURVE SMOOTH",
"572 470 OFFCURVE",
"510 580 OFFCURVE",
"339 580 CURVE SMOOTH",
"165 580 OFFCURVE",
"59 467 OFFCURVE",
"36 273 CURVE SMOOTH",
"15 97 OFFCURVE",
"77 -12 OFFCURVE"
);
},
{
closed = 1;
nodes = (
"324 523 CURVE SMOOTH",
"394 523 OFFCURVE",
"420 457 OFFCURVE",
"400 289 CURVE SMOOTH",
"379 115 OFFCURVE",
"333 44 OFFCURVE",
"263 44 CURVE SMOOTH",
"193 44 OFFCURVE",
"167 112 OFFCURVE",
"188 280 CURVE SMOOTH",
"210 453 OFFCURVE",
"253 523 OFFCURVE"
);
}
);
};
layerId = "87CF42EC-CA7B-4C33-BFB6-45E08F526E47";
name = "Mar 21 20, 18:45";
paths = (
{
closed = 1;
nodes = (
"428 -13 OFFCURVE",
"545 158 OFFCURVE",
"545 352 CURVE SMOOTH",
"545 499 OFFCURVE",
"478 581 OFFCURVE",
"348 581 CURVE SMOOTH",
"160 581 OFFCURVE",
"43 410 OFFCURVE",
"43 216 CURVE SMOOTH",
"43 69 OFFCURVE",
"110 -13 OFFCURVE",
"240 -13 CURVE SMOOTH"
);
},
{
closed = 1;
nodes = (
"213 49 OFFCURVE",
"191 143 OFFCURVE",
"191 238 CURVE SMOOTH",
"191 367 OFFCURVE",
"230 519 OFFCURVE",
"311 519 CURVE SMOOTH",
"375 519 OFFCURVE",
"397 425 OFFCURVE",
"397 330 CURVE SMOOTH",
"397 201 OFFCURVE",
"358 49 OFFCURVE",
"277 49 CURVE SMOOTH"
);
}
);
width = 569;
},
{
anchors = (
{
name = btm;
position = "{236, 0}";
},
{
name = top;
position = "{315, 576}";
}
);
associatedMasterId = "DAAEA780-4710-4479-B303-5C05B40621B2";
background = {
anchors = (
{
name = btm;
position = "{236, 0}";
},
{
name = top;
position = "{315, 576}";
}
);
paths = (
{
closed = 1;
nodes = (
"14 100 OFFCURVE",
"82 -8 OFFCURVE",
"234 -8 CURVE SMOOTH",
"384 -8 OFFCURVE",
"500 101 OFFCURVE",
"523 293 CURVE SMOOTH",
"544 468 OFFCURVE",
"478 576 OFFCURVE",
"325 576 CURVE SMOOTH",
"177 576 OFFCURVE",
"61 470 OFFCURVE",
"36 275 CURVE SMOOTH"
);
},
{
closed = 1;
nodes = (
"127 453 OFFCURVE",
"202 538 OFFCURVE",
"311 538 CURVE SMOOTH",
"427 538 OFFCURVE",
"472 447 OFFCURVE",
"452 285 CURVE SMOOTH",
"431 116 OFFCURVE",
"356 31 OFFCURVE",
"247 31 CURVE SMOOTH",
"132 31 OFFCURVE",
"86 122 OFFCURVE",
"106 284 CURVE SMOOTH"
);
}
);
};
layerId = "3738C638-00BB-41B1-9228-A704EDCDE2BC";
name = "Mar 22 20, 18:19";
paths = (
{
closed = 1;
nodes = (
"385 -13 OFFCURVE",
"509 150 OFFCURVE",
"509 349 CURVE SMOOTH",
"509 493 OFFCURVE",
"445 576 OFFCURVE",
"331 576 CURVE SMOOTH",
"175 576 OFFCURVE",
"49 416 OFFCURVE",
"49 216 CURVE SMOOTH",
"49 83 OFFCURVE",
"104 -13 OFFCURVE",
"227 -13 CURVE SMOOTH"
);
},
{
closed = 1;
nodes = (
"168 28 OFFCURVE",
"120 107 OFFCURVE",
"120 229 CURVE SMOOTH",
"120 389 OFFCURVE",
"199 535 OFFCURVE",
"310 535 CURVE SMOOTH",
"389 535 OFFCURVE",
"438 460 OFFCURVE",
"438 332 CURVE SMOOTH",
"438 168 OFFCURVE",
"357 28 OFFCURVE",
"249 28 CURVE SMOOTH"
);
}
);
width = 539;
},
{
anchors = (
{
name = btm;
position = "{256, 0}";
},
{
name = top;
position = "{329, 568}";
}
);
associatedMasterId = "925CB40E-795E-477B-BAE7-1EE7D58841B5";
background = {
anchors = (
{
name = btm;
position = "{256, 0}";
},
{
name = top;
position = "{329, 568}";
}
);
paths = (
{
closed = 1;
nodes = (
"247 -12 CURVE SMOOTH",
"421 -12 OFFCURVE",
"527 101 OFFCURVE",
"550 294 CURVE SMOOTH",
"571 470 OFFCURVE",
"509 580 OFFCURVE",
"338 580 CURVE SMOOTH",
"164 580 OFFCURVE",
"58 467 OFFCURVE",
"35 273 CURVE SMOOTH",
"14 97 OFFCURVE",
"76 -12 OFFCURVE"
);
},
{
closed = 1;
nodes = (
"323 523 CURVE SMOOTH",
"393 523 OFFCURVE",
"419 457 OFFCURVE",
"399 289 CURVE SMOOTH",
"378 115 OFFCURVE",
"332 44 OFFCURVE",
"262 44 CURVE SMOOTH",
"192 44 OFFCURVE",
"166 112 OFFCURVE",
"187 280 CURVE SMOOTH",
"209 453 OFFCURVE",
"252 523 OFFCURVE"
);
}
);
};
layerId = "D5387746-36AB-4ADA-B327-40F4C2CDD342";
name = "Mar 27 20, 13:54";
paths = (
{
closed = 1;
nodes = (
"440 -13 OFFCURVE",
"548 169 OFFCURVE",
"548 343 CURVE SMOOTH",
"548 501 OFFCURVE",
"464 581 OFFCURVE",
"339 581 CURVE SMOOTH",
"146 581 OFFCURVE",
"39 401 OFFCURVE",
"39 227 CURVE SMOOTH",
"39 68 OFFCURVE",
"122 -13 OFFCURVE",
"247 -13 CURVE SMOOTH"
);
},
{
closed = 1;
nodes = (
"217 49 OFFCURVE",
"187 123 OFFCURVE",
"187 222 CURVE SMOOTH",
"187 335 OFFCURVE",
"226 519 OFFCURVE",
"314 519 CURVE SMOOTH",
"369 519 OFFCURVE",
"400 446 OFFCURVE",
"400 347 CURVE SMOOTH",
"400 235 OFFCURVE",
"360 49 OFFCURVE",
"272 49 CURVE SMOOTH"
);
}
);
width = 567;
},
{
anchors = (
{
name = btm;
position = "{256, 0}";
},
{
name = top;
position = "{329, 568}";
}
);
background = {
paths = (
{
closed = 1;
nodes = (
"439 -13 OFFCURVE",
"549 172 OFFCURVE",
"549 353 CURVE SMOOTH",
"549 509 OFFCURVE",
"470 581 OFFCURVE",
"347 581 CURVE SMOOTH",
"147 581 OFFCURVE",
"38 397 OFFCURVE",
"38 216 CURVE SMOOTH",
"38 60 OFFCURVE",
"116 -13 OFFCURVE",
"239 -13 CURVE SMOOTH"
);
},
{
closed = 1;
nodes = (
"214 49 OFFCURVE",
"188 131 OFFCURVE",
"188 227 CURVE SMOOTH",
"188 346 OFFCURVE",
"229 519 OFFCURVE",
"315 519 CURVE SMOOTH",
"372 519 OFFCURVE",
"399 438 OFFCURVE",
"399 342 CURVE SMOOTH",
"399 223 OFFCURVE",
"357 49 OFFCURVE",
"271 49 CURVE SMOOTH"
);
}
);
};
layerId = "925CB40E-795E-477B-BAE7-1EE7D58841B5";
paths = (
{
closed = 1;
nodes = (
"440 -13 OFFCURVE",
"549 177 OFFCURVE",
"549 355 CURVE SMOOTH",
"549 501 OFFCURVE",
"482 581 OFFCURVE",
"350 581 CURVE SMOOTH",
"147 581 OFFCURVE",
"38 391 OFFCURVE",
"38 213 CURVE SMOOTH",
"38 67 OFFCURVE",
"105 -13 OFFCURVE",
"237 -13 CURVE SMOOTH"
);
},
{
closed = 1;
nodes = (
"218 50 OFFCURVE",
"189 131 OFFCURVE",
"189 239 CURVE SMOOTH",
"189 369 OFFCURVE",
"227 518 OFFCURVE",
"310 518 CURVE SMOOTH",
"368 518 OFFCURVE",
"398 438 OFFCURVE",
"398 328 CURVE SMOOTH",
"398 198 OFFCURVE",
"360 50 OFFCURVE",
"277 50 CURVE SMOOTH"
);
}
);
width = 568;
},
{
anchors = (
{
name = btm;
position = "{256, 0}";
},
{
name = top;
position = "{329, 568}";
}
);
associatedMasterId = "925CB40E-795E-477B-BAE7-1EE7D58841B5";
background = {
anchors = (
{
name = btm;
position = "{256, 0}";
},
{
name = top;
position = "{329, 568}";
}
);
paths = (
{
closed = 1;
nodes = (
"247 -12 CURVE SMOOTH",
"421 -12 OFFCURVE",
"527 101 OFFCURVE",
"550 294 CURVE SMOOTH",
"571 470 OFFCURVE",
"509 580 OFFCURVE",
"338 580 CURVE SMOOTH",
"164 580 OFFCURVE",
"58 467 OFFCURVE",
"35 273 CURVE SMOOTH",
"14 97 OFFCURVE",
"76 -12 OFFCURVE"
);
},
{
closed = 1;
nodes = (
"323 523 CURVE SMOOTH",
"393 523 OFFCURVE",
"419 457 OFFCURVE",
"399 289 CURVE SMOOTH",
"378 115 OFFCURVE",
"332 44 OFFCURVE",
"262 44 CURVE SMOOTH",
"192 44 OFFCURVE",
"166 112 OFFCURVE",
"187 280 CURVE SMOOTH",
"209 453 OFFCURVE",
"252 523 OFFCURVE"
);
}
);
};
layerId = "8394E1B7-C76B-4B3A-BA40-422F57DB8AE3";
name = "Apr 8 20, 23:37";
paths = (
{
closed = 1;
nodes = (
"439 -13 OFFCURVE",
"549 172 OFFCURVE",
"549 353 CURVE SMOOTH",
"549 509 OFFCURVE",
"470 581 OFFCURVE",
"347 581 CURVE SMOOTH",
"147 581 OFFCURVE",
"38 397 OFFCURVE",
"38 216 CURVE SMOOTH",
"38 60 OFFCURVE",
"116 -13 OFFCURVE",
"239 -13 CURVE SMOOTH"
);
},
{
closed = 1;
nodes = (
"214 49 OFFCURVE",
"188 131 OFFCURVE",
"188 227 CURVE SMOOTH",
"188 346 OFFCURVE",
"229 519 OFFCURVE",
"315 519 CURVE SMOOTH",
"372 519 OFFCURVE",
"399 438 OFFCURVE",
"399 342 CURVE SMOOTH",
"399 223 OFFCURVE",
"357 49 OFFCURVE",
"271 49 CURVE SMOOTH"
);
}
);
width = 567;
},
{
anchors = (
{
name = btm;
position = "{236, 0}";
},
{
name = top;
position = "{315, 576}";
}
);
associatedMasterId = "DAAEA780-4710-4479-B303-5C05B40621B2";
background = {
anchors = (
{
name = btm;
position = "{236, 0}";
},
{
name = top;
position = "{315, 576}";
}
);
paths = (
{
closed = 1;
nodes = (
"14 100 OFFCURVE",
"82 -8 OFFCURVE",
"234 -8 CURVE SMOOTH",
"384 -8 OFFCURVE",
"500 101 OFFCURVE",
"523 293 CURVE SMOOTH",
"544 468 OFFCURVE",
"478 576 OFFCURVE",
"325 576 CURVE SMOOTH",
"177 576 OFFCURVE",
"61 470 OFFCURVE",
"36 275 CURVE SMOOTH"
);
},
{
closed = 1;
nodes = (
"127 453 OFFCURVE",
"202 538 OFFCURVE",
"311 538 CURVE SMOOTH",
"427 538 OFFCURVE",
"472 447 OFFCURVE",
"452 285 CURVE SMOOTH",
"431 116 OFFCURVE",
"356 31 OFFCURVE",
"247 31 CURVE SMOOTH",
"132 31 OFFCURVE",
"86 122 OFFCURVE",
"106 284 CURVE SMOOTH"
);
}
);
};
layerId = "AD741E34-E870-43AC-8164-9CB7BB309F3E";
name = "Apr 8 20, 23:38";
paths = (
{
closed = 1;
nodes = (
"387 -13 OFFCURVE",
"509 145 OFFCURVE",
"509 339 CURVE SMOOTH",
"509 489 OFFCURVE",
"433 576 OFFCURVE",
"326 576 CURVE SMOOTH",
"173 576 OFFCURVE",
"49 420 OFFCURVE",
"49 226 CURVE SMOOTH",
"49 87 OFFCURVE",
"116 -13 OFFCURVE",
"232 -13 CURVE SMOOTH"
);
},
{
closed = 1;
nodes = (
"170 28 OFFCURVE",
"120 111 OFFCURVE",
"120 239 CURVE SMOOTH",
"120 394 OFFCURVE",
"197 535 OFFCURVE",
"305 535 CURVE SMOOTH",
"387 535 OFFCURVE",
"438 456 OFFCURVE",
"438 322 CURVE SMOOTH",
"438 163 OFFCURVE",
"359 28 OFFCURVE",
"254 28 CURVE SMOOTH"
);
}
);
width = 539;
}
);
leftKerningGroup = O;
rightKerningGroup = O;
rightMetricsKey = "=|";
unicode = 004F;
userData = {
com.typemytype.robofont.layerData = {
background = {
anchors = (
{
name = btm;
x = 727;
y = -170;
},
{
name = top;
x = 741;
y = 1700;
}
);
components = (
);
contours = (
{
points = (
{
segmentType = curve;
smooth = 1;
x = 722;
y = -23;
},
{
smooth = 0;
x = 1100;
y = -16;
},
{
smooth = 0;
x = 1398;
y = 292;
},
{
segmentType = curve;
smooth = 1;
x = 1398;
y = 775;
},
{
smooth = 0;
x = 1398;
y = 1234;
},
{
smooth = 0;
x = 1172;
y = 1538;
},
{
segmentType = curve;
smooth = 1;
x = 757;
y = 1538;
},
{
smooth = 0;
x = 377;
y = 1538;
},
{
smooth = 0;
x = 75;
y = 1232;
},
{
segmentType = curve;
smooth = 1;
x = 75;
y = 749;
},
{
smooth = 0;
x = 75;
y = 289;
},
{
smooth = 0;
x = 307;
y = -30;
}
);
},
{
points = (
{
segmentType = curve;
smooth = 1;
x = 740;
y = 1442;
},
{
smooth = 0;
x = 1040;
y = 1442;
},
{
smooth = 0;
x = 1209;
y = 1167;
},
{
segmentType = curve;
smooth = 1;
x = 1209;
y = 774;
},
{
smooth = 0;
x = 1209;
y = 310;
},
{
smooth = 0;
x = 1015;
y = 74;
},
{
segmentType = curve;
smooth = 1;
x = 734;
y = 74;
},
{
smooth = 0;
x = 432;
y = 74;
},
{
smooth = 0;
x = 262;
y = 358;
},
{
segmentType = curve;
smooth = 1;
x = 262;
y = 750;
},
{
smooth = 0;
x = 262;
y = 1214;
},
{
smooth = 0;
x = 456;
y = 1442;
}
);
}
);
lib = {
};
name = O;
unicodes = (
);
width = 1563;
};
};
};
},
{
color = 8;
glyphname = P;
lastChange = "2020-04-09 08:04:05 +0000";
layers = (
{
anchors = (
{
name = btm;
position = "{231, 0}";
},
{
name = top;
position = "{302, 568}";
}
);
background = {
anchors = (
{
name = btm;
position = "{231, 0}";
},
{
name = top;
position = "{302, 568}";
}
);
paths = (
{
closed = 1;
nodes = (
"217 533 LINE",
"238 533 OFFCURVE",
"264 537 OFFCURVE",
"300 537 CURVE SMOOTH",
"398 537 OFFCURVE",
"440 505 OFFCURVE",
"429 415 CURVE SMOOTH",
"414 296 OFFCURVE",
"340 260 OFFCURVE",
"265 260 CURVE SMOOTH",
"226 260 OFFCURVE",
"203 262 OFFCURVE",
"166 264 CURVE",
"163 227 LINE",
"195 225 OFFCURVE",
"227 223 OFFCURVE",
"259 223 CURVE SMOOTH",
"378 223 OFFCURVE",
"481 293 OFFCURVE",
"496 415 CURVE SMOOTH",
"508 515 OFFCURVE",
"469 573 OFFCURVE",
"323 573 CURVE SMOOTH",
"258 573 OFFCURVE",
"242 568 OFFCURVE",
"192 568 CURVE SMOOTH",
"83 568 LINE",
"79 536 LINE",
"139 524 LINE SMOOTH",
"149 522 OFFCURVE",
"153 512 OFFCURVE",
"152 502 CURVE SMOOTH",
"97 65 LINE SMOOTH",
"95 53 OFFCURVE",
"87 45 OFFCURVE",
"75 43 CURVE SMOOTH",
"15 32 LINE",
"11 0 LINE",
"258 0 LINE",
"262 32 LINE",
"175 44 LINE SMOOTH",
"164 46 OFFCURVE",
"158 54 OFFCURVE",
"159 65 CURVE SMOOTH"
);
}
);
};
hints = (
{
origin = "{0, 27}";
type = Corner;
name = _corner.LeftSerif;
},
{
origin = "{0, 26}";
type = Corner;
name = _corner.RightSerif;
options = 1;
}
);
layerId = "DAAEA780-4710-4479-B303-5C05B40621B2";
paths = (
{
closed = 1;
nodes = (
"217 533 LINE",
"234 533 OFFCURVE",
"266 537 OFFCURVE",
"289 537 CURVE SMOOTH",
"363 537 OFFCURVE",
"401 498 OFFCURVE",
"401 422 CURVE SMOOTH",
"401 344 OFFCURVE",
"361 260 OFFCURVE",
"245 260 CURVE SMOOTH",
"221 260 OFFCURVE",
"187 264 OFFCURVE",
"165 267 CURVE",
"161 230 LINE",
"178 228 OFFCURVE",
"213 223 OFFCURVE",
"245 223 CURVE SMOOTH",
"385 223 OFFCURVE",
"471 313 OFFCURVE",
"471 431 CURVE SMOOTH",
"471 521 OFFCURVE",
"413 573 OFFCURVE",
"306 573 CURVE SMOOTH",
"270 573 OFFCURVE",
"212 568 OFFCURVE",
"171 568 CURVE SMOOTH",
"159 568 LINE",
"89 0 LINE",
"254 0 LINE",
"258 32 LINE",
"181 43 LINE SMOOTH",
"167 45 OFFCURVE",
"158 55 OFFCURVE",
"160 71 CURVE SMOOTH"
);
}
);
width = 473;
},
{
anchors = (
{
name = btm;
position = "{245, 0}";
},
{
name = top;
position = "{316, 568}";
}
);
background = {
anchors = (
{
name = btm;
position = "{245, 0}";
},
{
name = top;
position = "{316, 568}";
}
);
paths = (
{
closed = 1;
nodes = (
"277 516 LINE",
"287 517 OFFCURVE",
"295 520 OFFCURVE",
"321 520 CURVE SMOOTH",
"379 520 OFFCURVE",
"405 484 OFFCURVE",
"395 401 CURVE SMOOTH",
"381 288 OFFCURVE",
"340 254 OFFCURVE",
"289 254 CURVE SMOOTH",
"263 254 OFFCURVE",
"251 256 OFFCURVE",
"228 259 CURVE",
"222 204 LINE",
"242 203 OFFCURVE",
"264 201 OFFCURVE",
"287 201 CURVE SMOOTH",
"434 201 OFFCURVE",
"520 277 OFFCURVE",
"536 405 CURVE SMOOTH",
"549 512 OFFCURVE",
"508 572 OFFCURVE",
"342 572 CURVE SMOOTH",
"286 572 OFFCURVE",
"249 568 OFFCURVE",
"217 568 CURVE SMOOTH",
"72 568 LINE",
"65 513 LINE",
"122 501 LINE SMOOTH",
"131 499 OFFCURVE",
"136 492 OFFCURVE",
"135 484 CURVE SMOOTH",
"86 81 LINE SMOOTH",
"85 72 OFFCURVE",
"78 65 OFFCURVE",
"68 63 CURVE SMOOTH",
"8 52 LINE",
"2 0 LINE",
"320 0 LINE",
"326 52 LINE",
"238 64 LINE SMOOTH",
"229 65 OFFCURVE",
"223 72 OFFCURVE",
"224 81 CURVE SMOOTH"
);
}
);
};
hints = (
{
origin = "{0, 27}";
type = Corner;
name = _corner.LeftSerif;
},
{
origin = "{0, 26}";
type = Corner;
name = _corner.RightSerif;
}
);
layerId = "925CB40E-795E-477B-BAE7-1EE7D58841B5";
paths = (
{
closed = 1;
nodes = (
"277 516 LINE",
"288 517 OFFCURVE",
"300 518 OFFCURVE",
"310 518 CURVE SMOOTH",
"355 518 OFFCURVE",
"379 488 OFFCURVE",
"379 420 CURVE SMOOTH",
"379 345 OFFCURVE",
"351 254 OFFCURVE",
"273 254 CURVE SMOOTH",
"258 254 OFFCURVE",
"242 257 OFFCURVE",
"226 259 CURVE",
"221 203 LINE",
"240 201 OFFCURVE",
"261 199 OFFCURVE",
"282 199 CURVE SMOOTH",
"422 199 OFFCURVE",
"518 281 OFFCURVE",
"518 420 CURVE SMOOTH",
"518 535 OFFCURVE",
"438 572 OFFCURVE",
"333 572 CURVE SMOOTH",
"295 572 OFFCURVE",
"241 568 OFFCURVE",
"207 568 CURVE SMOOTH",
"147 568 LINE",
"76 0 LINE",
"308 0 LINE",
"315 52 LINE",
"245 61 LINE SMOOTH",
"221 64 OFFCURVE",
"223 76 OFFCURVE",
"224 90 CURVE SMOOTH"
);
}
);
width = 511;
}
);
leftKerningGroup = H;
leftMetricsKey = H;
unicode = 0050;
userData = {
com.typemytype.robofont.layerData = {
background = {
anchors = (
{
name = btm;
x = 675;
y = -170;
},
{
name = top;
x = 675;
y = 1700;
}
);
components = (
);
contours = (
{
points = (
{
segmentType = line;
smooth = 0;
x = 109;
y = 0;
},
{
segmentType = line;
smooth = 0;
x = 737;
y = 0;
},
{
segmentType = line;
smooth = 0;
x = 737;
y = 88;
},
{
segmentType = line;
smooth = 0;
x = 408;
y = 111;
},
{
segmentType = line;
smooth = 0;
x = 453;
y = 63;
},
{
segmentType = line;
smooth = 0;
x = 453;
y = 590;
},
{
smooth = 0;
x = 472;
y = 586;
},
{
smooth = 0;
x = 589;
y = 581;
},
{
segmentType = curve;
smooth = 1;
x = 670;
y = 581;
},
{
smooth = 0;
x = 996;
y = 581;
},
{
smooth = 0;
x = 1255;
y = 774;
},
{
segmentType = curve;
smooth = 1;
x = 1255;
y = 1105;
},
{
smooth = 0;
x = 1255;
y = 1376;
},
{
smooth = 0;
x = 1128;
y = 1537;
},
{
segmentType = curve;
smooth = 1;
x = 728;
y = 1537;
},
{
smooth = 0;
x = 549;
y = 1537;
},
{
smooth = 0;
x = 504;
y = 1522;
},
{
segmentType = curve;
smooth = 1;
x = 369;
y = 1522;
},
{
segmentType = line;
smooth = 0;
x = 121;
y = 1522;
},
{
segmentType = line;
smooth = 0;
x = 121;
y = 1434;
},
{
segmentType = line;
smooth = 0;
x = 316;
y = 1407;
},
{
segmentType = line;
smooth = 0;
x = 284;
y = 1445;
},
{
segmentType = line;
smooth = 0;
x = 284;
y = 64;
},
{
segmentType = line;
smooth = 0;
x = 317;
y = 111;
},
{
segmentType = line;
smooth = 0;
x = 109;
y = 88;
}
);
},
{
points = (
{
segmentType = curve;
smooth = 0;
x = 453;
y = 691;
},
{
segmentType = line;
smooth = 0;
x = 453;
y = 1425;
},
{
smooth = 0;
x = 509;
y = 1425;
},
{
smooth = 0;
x = 577;
y = 1438;
},
{
segmentType = curve;
smooth = 1;
x = 675;
y = 1438;
},
{
smooth = 0;
x = 946;
y = 1438;
},
{
smooth = 0;
x = 1075;
y = 1349;
},
{
segmentType = curve;
smooth = 1;
x = 1075;
y = 1105;
},
{
smooth = 0;
x = 1075;
y = 781;
},
{
smooth = 0;
x = 880;
y = 682;
},
{
segmentType = curve;
smooth = 1;
x = 673;
y = 682;
},
{
smooth = 0;
x = 572;
y = 682;
},
{
smooth = 0;
x = 491;
y = 684;
}
);
}
);
lib = {
};
name = P;
unicodes = (
);
width = 1352;
};
};
};
},
{
color = 8;
glyphname = Q;
lastChange = "2020-03-22 18:04:25 +0000";
layers = (
{
anchors = (
{
name = btm;
position = "{286, 0}";
},
{
name = top;
position = "{361, 568}";
}
);
background = {
anchors = (
{
name = btm;
position = "{286, 0}";
},
{
name = top;
position = "{361, 568}";
}
);
paths = (
{
closed = 1;
nodes = (
"385 -13 OFFCURVE",
"509 150 OFFCURVE",
"509 349 CURVE SMOOTH",
"509 493 OFFCURVE",
"445 576 OFFCURVE",
"331 576 CURVE SMOOTH",
"175 576 OFFCURVE",
"49 416 OFFCURVE",
"49 216 CURVE SMOOTH",
"49 83 OFFCURVE",
"104 -13 OFFCURVE",
"227 -13 CURVE SMOOTH"
);
},
{
closed = 1;
nodes = (
"461 -151 OFFCURVE",
"491 -136 OFFCURVE",
"515 -119 CURVE",
"504 -90 LINE",
"492 -94 OFFCURVE",
"478 -97 OFFCURVE",
"460 -97 CURVE SMOOTH",
"411 -97 OFFCURVE",
"384 -75 OFFCURVE",
"355 -53 CURVE SMOOTH",
"316 -23 OFFCURVE",
"281 -3 OFFCURVE",
"239 0 CURVE",
"187 -6 LINE",
"286 -39 OFFCURVE",
"317 -151 OFFCURVE",
"422 -151 CURVE SMOOTH"
);
},
{
closed = 1;
nodes = (
"168 28 OFFCURVE",
"120 107 OFFCURVE",
"120 229 CURVE SMOOTH",
"120 389 OFFCURVE",
"199 535 OFFCURVE",
"310 535 CURVE SMOOTH",
"389 535 OFFCURVE",
"438 460 OFFCURVE",
"438 332 CURVE SMOOTH",
"438 168 OFFCURVE",
"357 28 OFFCURVE",
"249 28 CURVE SMOOTH"
);
}
);
};
components = (
{
name = O;
}
);
layerId = "DAAEA780-4710-4479-B303-5C05B40621B2";
paths = (
{
closed = 1;
nodes = (
"468 -153 OFFCURVE",
"505 -134 OFFCURVE",
"525 -116 CURVE",
"514 -88 LINE",
"499 -93 OFFCURVE",
"483 -96 OFFCURVE",
"468 -96 CURVE SMOOTH",
"436 -96 OFFCURVE",
"397 -85 OFFCURVE",
"361 -57 CURVE SMOOTH",
"304 -12 OFFCURVE",
"295 -6 OFFCURVE",
"254 0 CURVE",
"187 -6 LINE",
"285 -39 OFFCURVE",
"322 -153 OFFCURVE",
"426 -153 CURVE SMOOTH"
);
}
);
width = 539;
},
{
anchors = (
{
name = btm;
position = "{291, 0}";
},
{
name = top;
position = "{365, 568}";
}
);
background = {
paths = (
{
closed = 1;
nodes = (
"437 -13 OFFCURVE",
"548 174 OFFCURVE",
"548 350 CURVE SMOOTH",
"548 501 OFFCURVE",
"467 581 OFFCURVE",
"341 581 CURVE SMOOTH",
"149 581 OFFCURVE",
"39 395 OFFCURVE",
"39 219 CURVE SMOOTH",
"39 68 OFFCURVE",
"119 -13 OFFCURVE",
"245 -13 CURVE SMOOTH"
);
},
{
closed = 1;
nodes = (
"490 -156 OFFCURVE",
"537 -125 OFFCURVE",
"561 -96 CURVE",
"541 -52 LINE",
"524 -58 OFFCURVE",
"504 -64 OFFCURVE",
"481 -64 CURVE SMOOTH",
"454 -64 OFFCURVE",
"430 -58 OFFCURVE",
"387 -33 CURVE SMOOTH",
"348 -10 OFFCURVE",
"322 -1 OFFCURVE",
"266 6 CURVE",
"187 -2 LINE",
"298 -41 OFFCURVE",
"320 -156 OFFCURVE",
"433 -156 CURVE SMOOTH"
);
},
{
closed = 1;
nodes = (
"214 49 OFFCURVE",
"188 131 OFFCURVE",
"188 226 CURVE SMOOTH",
"188 346 OFFCURVE",
"229 519 OFFCURVE",
"314 519 CURVE SMOOTH",
"372 519 OFFCURVE",
"399 438 OFFCURVE",
"399 342 CURVE SMOOTH",
"399 223 OFFCURVE",
"357 49 OFFCURVE",
"271 49 CURVE SMOOTH"
);
}
);
};
components = (
{
name = O;
}
);
layerId = "925CB40E-795E-477B-BAE7-1EE7D58841B5";
paths = (
{
closed = 1;
nodes = (
"496 -159 OFFCURVE",
"541 -132 OFFCURVE",
"574 -99 CURVE",
"552 -55 LINE",
"534 -60 OFFCURVE",
"514 -64 OFFCURVE",
"493 -64 CURVE SMOOTH",
"467 -64 OFFCURVE",
"443 -59 OFFCURVE",
"402 -38 CURVE SMOOTH",
"335 -4 OFFCURVE",
"326 0 OFFCURVE",
"294 5 CURVE",
"188 0 LINE",
"293 -42 OFFCURVE",
"325 -159 OFFCURVE",
"441 -159 CURVE SMOOTH"
);
}
);
width = 572;
},
{
anchors = (
{
name = btm;
position = "{286, 0}";
},
{
name = top;
position = "{361, 568}";
}
);
associatedMasterId = "DAAEA780-4710-4479-B303-5C05B40621B2";
background = {
anchors = (
{
name = btm;
position = "{286, 0}";
},
{
name = top;
position = "{361, 568}";
}
);
paths = (
{
closed = 1;
nodes = (
"486 -150 CURVE SMOOTH",
"522 -150 OFFCURVE",
"556 -137 OFFCURVE",
"571 -128 CURVE",
"568 -97 LINE",
"560 -98 OFFCURVE",
"548 -98 OFFCURVE",
"537 -98 CURVE SMOOTH",
"484 -98 OFFCURVE",
"455 -71 OFFCURVE",
"423 -42 CURVE SMOOTH",
"387 -9 OFFCURVE",
"344 21 OFFCURVE",
"269 21 CURVE",
"243 -1 LINE",
"350 -1 OFFCURVE",
"368 -150 OFFCURVE"
);
},
{
closed = 1;
nodes = (
"281 -8 CURVE SMOOTH",
"453 -8 OFFCURVE",
"574 141 OFFCURVE",
"574 355 CURVE SMOOTH",
"574 493 OFFCURVE",
"506 576 OFFCURVE",
"372 576 CURVE SMOOTH",
"200 576 OFFCURVE",
"79 427 OFFCURVE",
"79 214 CURVE SMOOTH",
"79 75 OFFCURVE",
"148 -8 OFFCURVE"
);
},
{
closed = 1;
nodes = (
"359 538 CURVE SMOOTH",
"457 538 OFFCURVE",
"505 474 OFFCURVE",
"505 355 CURVE SMOOTH",
"505 158 OFFCURVE",
"422 31 OFFCURVE",
"294 31 CURVE SMOOTH",
"196 31 OFFCURVE",
"147 95 OFFCURVE",
"147 214 CURVE SMOOTH",
"147 411 OFFCURVE",
"230 538 OFFCURVE"
);
}
);
};
components = (
{
name = O;
}
);
layerId = "34D7D3A0-A698-448F-BCF5-FBB5F91A0C3B";
name = "Mar 21 20, 18:49";
paths = (
{
closed = 1;
nodes = (
"432 -150 OFFCURVE",
"466 -137 OFFCURVE",
"481 -128 CURVE",
"478 -97 LINE",
"470 -98 OFFCURVE",
"458 -98 OFFCURVE",
"447 -98 CURVE SMOOTH",
"394 -98 OFFCURVE",
"365 -71 OFFCURVE",
"333 -42 CURVE SMOOTH",
"297 -9 OFFCURVE",
"254 21 OFFCURVE",
"179 21 CURVE",
"153 -1 LINE",
"260 -1 OFFCURVE",
"278 -150 OFFCURVE",
"396 -150 CURVE SMOOTH"
);
}
);
width = 583;
},
{
anchors = (
{
name = btm;
position = "{291, 0}";
},
{
name = top;
position = "{365, 568}";
}
);
associatedMasterId = "925CB40E-795E-477B-BAE7-1EE7D58841B5";
background = {
anchors = (
{
name = btm;
position = "{291, 0}";
},
{
name = top;
position = "{365, 568}";
}
);
paths = (
{
closed = 1;
nodes = (
"476 -154 CURVE SMOOTH",
"527 -154 OFFCURVE",
"576 -126 OFFCURVE",
"599 -102 CURVE",
"593 -59 LINE",
"581 -61 OFFCURVE",
"565 -63 OFFCURVE",
"549 -63 CURVE SMOOTH",
"513 -63 OFFCURVE",
"482 -53 OFFCURVE",
"445 -31 CURVE SMOOTH",
"396 -2 OFFCURVE",
"362 14 OFFCURVE",
"267 14 CURVE",
"200 9 LINE",
"347 -7 OFFCURVE",
"338 -154 OFFCURVE"
);
},
{
closed = 1;
nodes = (
"280 -12 CURVE SMOOTH",
"464 -12 OFFCURVE",
"588 136 OFFCURVE",
"588 357 CURVE SMOOTH",
"588 494 OFFCURVE",
"521 580 OFFCURVE",
"372 580 CURVE SMOOTH",
"186 580 OFFCURVE",
"64 434 OFFCURVE",
"64 210 CURVE SMOOTH",
"64 74 OFFCURVE",
"130 -12 OFFCURVE"
);
},
{
closed = 1;
nodes = (
"357 523 CURVE SMOOTH",
"411 523 OFFCURVE",
"439 484 OFFCURVE",
"439 387 CURVE SMOOTH",
"439 188 OFFCURVE",
"379 44 OFFCURVE",
"294 44 CURVE SMOOTH",
"240 44 OFFCURVE",
"213 85 OFFCURVE",
"213 180 CURVE SMOOTH",
"213 382 OFFCURVE",
"273 523 OFFCURVE"
);
}
);
};
components = (
{
name = O;
}
);
layerId = "929F9B9A-692A-458F-B7B2-32BAE4A4081F";
name = "Mar 21 20, 19:03";
paths = (
{
closed = 1;
nodes = (
"467 -154 OFFCURVE",
"516 -126 OFFCURVE",
"539 -102 CURVE",
"533 -59 LINE",
"521 -61 OFFCURVE",
"505 -63 OFFCURVE",
"489 -63 CURVE SMOOTH",
"453 -63 OFFCURVE",
"422 -53 OFFCURVE",
"385 -31 CURVE SMOOTH",
"336 -2 OFFCURVE",
"302 14 OFFCURVE",
"207 14 CURVE",
"140 9 LINE",
"287 -7 OFFCURVE",
"278 -154 OFFCURVE",
"416 -154 CURVE SMOOTH"
);
}
);
width = 581;
}
);
leftKerningGroup = O;
leftMetricsKey = O;
rightKerningGroup = O;
unicode = 0051;
userData = {
com.typemytype.robofont.layerData = {
background = {
anchors = (
{
name = btm;
x = 733;
y = -170;
},
{
name = top;
x = 733;
y = 1700;
}
);
components = (
);
contours = (
{
points = (
{
segmentType = curve;
smooth = 0;
x = 1668;
y = -413;
},
{
segmentType = line;
smooth = 0;
x = 1679;
y = -413;
},
{
smooth = 0;
x = 1749;
y = -413;
},
{
smooth = 0;
x = 1815;
y = -371;
},
{
segmentType = curve;
smooth = 0;
x = 1834;
y = -353;
},
{
segmentType = line;
smooth = 0;
x = 1814;
y = -268;
},
{
smooth = 0;
x = 1801;
y = -269;
},
{
smooth = 0;
x = 1789;
y = -270;
},
{
segmentType = curve;
smooth = 1;
x = 1770;
y = -270;
},
{
segmentType = line;
smooth = 0;
x = 1768;
y = -270;
},
{
smooth = 0;
x = 1491;
y = -270;
},
{
smooth = 0;
x = 1266;
y = 34;
},
{
segmentType = curve;
smooth = 0;
x = 951;
y = 34;
},
{
segmentType = line;
smooth = 0;
x = 865;
y = 28;
},
{
segmentType = line;
smooth = 0;
x = 809;
y = -3;
},
{
smooth = 0;
x = 1102;
y = -3;
},
{
smooth = 0;
x = 1292;
y = -413;
}
);
},
{
points = (
{
segmentType = curve;
smooth = 1;
x = 728;
y = -23;
},
{
smooth = 0;
x = 1106;
y = -16;
},
{
smooth = 0;
x = 1404;
y = 292;
},
{
segmentType = curve;
smooth = 1;
x = 1404;
y = 775;
},
{
smooth = 0;
x = 1404;
y = 1234;
},
{
smooth = 0;
x = 1178;
y = 1538;
},
{
segmentType = curve;
smooth = 1;
x = 763;
y = 1538;
},
{
smooth = 0;
x = 383;
y = 1538;
},
{
smooth = 0;
x = 81;
y = 1232;
},
{
segmentType = curve;
smooth = 1;
x = 81;
y = 749;
},
{
smooth = 0;
x = 81;
y = 289;
},
{
smooth = 0;
x = 313;
y = -30;
}
);
},
{
points = (
{
segmentType = curve;
smooth = 1;
x = 746;
y = 1442;
},
{
smooth = 0;
x = 1046;
y = 1442;
},
{
smooth = 0;
x = 1215;
y = 1167;
},
{
segmentType = curve;
smooth = 1;
x = 1215;
y = 774;
},
{
smooth = 0;
x = 1215;
y = 310;
},
{
smooth = 0;
x = 1021;
y = 74;
},
{
segmentType = curve;
smooth = 1;
x = 740;
y = 74;
},
{
smooth = 0;
x = 438;
y = 74;
},
{
smooth = 0;
x = 268;
y = 358;
},
{
segmentType = curve;
smooth = 1;
x = 268;
y = 750;
},
{
smooth = 0;
x = 268;
y = 1214;
},
{
smooth = 0;
x = 462;
y = 1442;
}
);
}
);
lib = {
};
name = Q;
unicodes = (
);
width = 1563;
};
};
};
},
{
color = 8;
glyphname = R;
lastChange = "2020-04-10 11:29:16 +0000";
layers = (
{
anchors = (
{
name = btm;
position = "{276, 0}";
},
{
name = top;
position = "{305, 568}";
}
);
background = {
hints = (
{
origin = "{0, 31}";
type = Corner;
name = _corner.RightSerif;
},
{
origin = "{0, 32}";
type = Corner;
name = _corner.LeftSerif;
}
);
paths = (
{
closed = 1;
nodes = (
"233 0 LINE",
"237 32 LINE",
"177 43 LINE SMOOTH",
"159 46 OFFCURVE",
"158 58 OFFCURVE",
"159 66 CURVE SMOOTH",
"217 533 LINE",
"229 533 OFFCURVE",
"256 537 OFFCURVE",
"281 537 CURVE SMOOTH",
"376 537 OFFCURVE",
"396 479 OFFCURVE",
"396 429 CURVE SMOOTH",
"396 345 OFFCURVE",
"341 289 OFFCURVE",
"255 289 CURVE SMOOTH",
"231 289 OFFCURVE",
"195 289 OFFCURVE",
"173 291 CURVE",
"169 253 LINE",
"274 253 LINE",
"296 260 LINE",
"407 271 OFFCURVE",
"465 351 OFFCURVE",
"465 436 CURVE SMOOTH",
"465 511 OFFCURVE",
"420 573 OFFCURVE",
"296 573 CURVE SMOOTH",
"261 573 OFFCURVE",
"232 568 OFFCURVE",
"192 568 CURVE SMOOTH",
"159 568 LINE",
"89 0 LINE"
);
},
{
closed = 1;
nodes = (
"263 270 LINE",
"279 198 OFFCURVE",
"302 121 OFFCURVE",
"328 59 CURVE SMOOTH",
"351 4 OFFCURVE",
"373 -7 OFFCURVE",
"399 -7 CURVE SMOOTH",
"429 -7 OFFCURVE",
"468 6 OFFCURVE",
"492 17 CURVE",
"486 50 LINE",
"473 48 OFFCURVE",
"452 45 OFFCURVE",
"436 45 CURVE SMOOTH",
"414 45 OFFCURVE",
"403 57 OFFCURVE",
"385 94 CURVE SMOOTH",
"364 138 OFFCURVE",
"339 207 OFFCURVE",
"317 285 CURVE"
);
}
);
};
hints = (
{
origin = "{0, 31}";
type = Corner;
name = _corner.RightSerif;
},
{
origin = "{0, 32}";
type = Corner;
name = _corner.LeftSerif;
}
);
layerId = "DAAEA780-4710-4479-B303-5C05B40621B2";
paths = (
{
closed = 1;
nodes = (
"233 0 LINE",
"237 32 LINE",
"177 43 LINE SMOOTH",
"159 46 OFFCURVE",
"159 59 OFFCURVE",
"159 66 CURVE SMOOTH",
"217 533 LINE",
"229 533 OFFCURVE",
"256 537 OFFCURVE",
"281 537 CURVE SMOOTH",
"376 537 OFFCURVE",
"396 479 OFFCURVE",
"396 429 CURVE SMOOTH",
"396 345 OFFCURVE",
"341 289 OFFCURVE",
"255 289 CURVE SMOOTH",
"231 289 OFFCURVE",
"195 289 OFFCURVE",
"173 291 CURVE",
"169 253 LINE",
"274 253 LINE",
"296 260 LINE",
"407 271 OFFCURVE",
"465 351 OFFCURVE",
"465 436 CURVE SMOOTH",
"465 511 OFFCURVE",
"420 573 OFFCURVE",
"296 573 CURVE SMOOTH",
"261 573 OFFCURVE",
"232 568 OFFCURVE",
"192 568 CURVE SMOOTH",
"159 568 LINE {GSCorner = {name = _corner.RightSerif;\noptions = \"1\";};}",
"89 0 LINE {GSCorner = {name = _corner.LeftSerif;};}"
);
},
{
closed = 1;
nodes = (
"263 270 LINE",
"279 198 OFFCURVE",
"302 121 OFFCURVE",
"328 59 CURVE SMOOTH",
"350 9 OFFCURVE",
"368 -7 OFFCURVE",
"401 -7 CURVE SMOOTH",
"431 -7 OFFCURVE",
"473 8 OFFCURVE",
"493 21 CURVE",
"485 54 LINE",
"468 48 OFFCURVE",
"450 45 OFFCURVE",
"438 45 CURVE SMOOTH",
"416 45 OFFCURVE",
"403 57 OFFCURVE",
"385 94 CURVE SMOOTH",
"364 138 OFFCURVE",
"339 207 OFFCURVE",
"317 285 CURVE"
);
}
);
width = 519;
},
{
anchors = (
{
name = btm;
position = "{297, -62}";
},
{
name = top;
position = "{281, 618}";
}
);
associatedMasterId = "DAAEA780-4710-4479-B303-5C05B40621B2";
layerId = "C5C366A4-98CE-4A20-820B-334FF14FD6C7";
name = "Light Sep 30 15, 11:17";
paths = (
{
closed = 1;
nodes = (
"184 533 LINE",
"201 533 OFFCURVE",
"227 537 OFFCURVE",
"265 537 CURVE SMOOTH",
"373 537 OFFCURVE",
"403 489 OFFCURVE",
"403 419 CURVE SMOOTH",
"403 330 OFFCURVE",
"357 289 OFFCURVE",
"291 289 CURVE SMOOTH",
"272 289 OFFCURVE",
"203 289 OFFCURVE",
"170 291 CURVE",
"170 253 LINE",
"190 253 OFFCURVE",
"291 253 OFFCURVE",
"305 253 CURVE SMOOTH",
"333 253 OFFCURVE",
"316 257 OFFCURVE",
"329 258 CURVE SMOOTH",
"417 267 OFFCURVE",
"469 342 OFFCURVE",
"469 424 CURVE SMOOTH",
"469 525 OFFCURVE",
"417 574 OFFCURVE",
"271 574 CURVE SMOOTH",
"235 574 OFFCURVE",
"193 568 OFFCURVE",
"154 568 CURVE SMOOTH",
"44 568 LINE",
"44 536 LINE",
"101 524 LINE SMOOTH",
"114 522 OFFCURVE",
"122 515 OFFCURVE",
"122 501 CURVE SMOOTH",
"122 66 LINE SMOOTH",
"122 52 OFFCURVE",
"114 45 OFFCURVE",
"101 43 CURVE SMOOTH",
"44 32 LINE",
"44 0 LINE",
"267 0 LINE",
"267 32 LINE",
"204 43 LINE SMOOTH",
"191 46 OFFCURVE",
"184 52 OFFCURVE",
"184 66 CURVE SMOOTH"
);
},
{
closed = 1;
nodes = (
"544 0 LINE",
"544 32 LINE",
"496 43 LINE SMOOTH",
"458 52 OFFCURVE",
"400 241 OFFCURVE",
"343 268 CURVE",
"293 270 LINE",
"282 256 LINE",
"339 239 OFFCURVE",
"403 0 OFFCURVE",
"442 0 CURVE SMOOTH"
);
}
);
width = 543;
},
{
anchors = (
{
name = btm;
position = "{302, 0}";
},
{
name = top;
position = "{330, 568}";
}
);
background = {
hints = (
{
origin = "{0, 31}";
type = Corner;
name = _corner.RightSerif;
},
{
origin = "{0, 32}";
type = Corner;
name = _corner.LeftSerif;
}
);
paths = (
{
closed = 1;
nodes = (
"287 0 LINE",
"293 52 LINE",
"239 62 LINE SMOOTH",
"226 64 OFFCURVE",
"222 70 OFFCURVE",
"223 81 CURVE SMOOTH",
"277 516 LINE",
"287 517 OFFCURVE",
"300 518 OFFCURVE",
"309 518 CURVE SMOOTH",
"361 518 OFFCURVE",
"388 486 OFFCURVE",
"388 425 CURVE SMOOTH",
"388 345 OFFCURVE",
"347 291 OFFCURVE",
"272 291 CURVE SMOOTH",
"262 291 OFFCURVE",
"249 292 OFFCURVE",
"238 298 CURVE",
"231 241 LINE",
"341 241 LINE",
"378 256 LINE",
"457 274 OFFCURVE",
"527 328 OFFCURVE",
"527 427 CURVE SMOOTH",
"527 531 OFFCURVE",
"451 572 OFFCURVE",
"327 572 CURVE SMOOTH",
"288 572 OFFCURVE",
"247 568 OFFCURVE",
"212 568 CURVE SMOOTH",
"147 568 LINE",
"76 0 LINE"
);
},
{
closed = 1;
nodes = (
"287 255 LINE",
"299 182 OFFCURVE",
"318 104 OFFCURVE",
"337 59 CURVE SMOOTH",
"356 13 OFFCURVE",
"377 -7 OFFCURVE",
"426 -7 CURVE SMOOTH",
"459 -7 OFFCURVE",
"509 2 OFFCURVE",
"559 18 CURVE",
"552 73 LINE",
"540 72 OFFCURVE",
"529 71 OFFCURVE",
"520 71 CURVE SMOOTH",
"498 71 OFFCURVE",
"489 78 OFFCURVE",
"478 95 CURVE SMOOTH",
"457 128 OFFCURVE",
"428 203 OFFCURVE",
"410 279 CURVE"
);
}
);
};
guideLines = (
{
angle = 262.8573;
position = "{111, 283}";
}
);
hints = (
{
origin = "{0, 31}";
type = Corner;
name = _corner.RightSerif;
},
{
origin = "{0, 32}";
type = Corner;
name = _corner.LeftSerif;
}
);
layerId = "925CB40E-795E-477B-BAE7-1EE7D58841B5";
paths = (
{
closed = 1;
nodes = (
"287 0 LINE",
"293 52 LINE",
"239 62 LINE SMOOTH",
"227 64 OFFCURVE",
"222 69 OFFCURVE",
"223 81 CURVE SMOOTH",
"277 516 LINE",
"287 517 OFFCURVE",
"300 518 OFFCURVE",
"309 518 CURVE SMOOTH",
"361 518 OFFCURVE",
"388 486 OFFCURVE",
"388 425 CURVE SMOOTH",
"388 345 OFFCURVE",
"347 291 OFFCURVE",
"272 291 CURVE SMOOTH",
"262 291 OFFCURVE",
"249 292 OFFCURVE",
"238 298 CURVE",
"231 241 LINE",
"341 241 LINE",
"378 256 LINE",
"457 274 OFFCURVE",
"527 328 OFFCURVE",
"527 427 CURVE SMOOTH",
"527 531 OFFCURVE",
"451 572 OFFCURVE",
"327 572 CURVE SMOOTH",
"288 572 OFFCURVE",
"247 568 OFFCURVE",
"212 568 CURVE SMOOTH",
"147 568 LINE",
"76 0 LINE"
);
},
{
closed = 1;
nodes = (
"289 255 LINE",
"301 182 OFFCURVE",
"320 96 OFFCURVE",
"347 44 CURVE SMOOTH",
"365 9 OFFCURVE",
"390 -7 OFFCURVE",
"430 -7 CURVE SMOOTH",
"474 -7 OFFCURVE",
"527 9 OFFCURVE",
"566 30 CURVE",
"555 84 LINE",
"541 81 OFFCURVE",
"526 79 OFFCURVE",
"515 79 CURVE SMOOTH",
"500 79 OFFCURVE",
"489 83 OFFCURVE",
"476 103 CURVE SMOOTH",
"457 132 OFFCURVE",
"430 209 OFFCURVE",
"414 279 CURVE"
);
}
);
width = 582;
},
{
anchors = (
{
name = btm;
position = "{302, 0}";
},
{
name = top;
position = "{330, 568}";
}
);
associatedMasterId = "925CB40E-795E-477B-BAE7-1EE7D58841B5";
background = {
anchors = (
{
name = btm;
position = "{302, 0}";
},
{
name = top;
position = "{330, 568}";
}
);
paths = (
{
closed = 1;
nodes = (
"287 0 LINE",
"293 52 LINE",
"239 62 LINE SMOOTH",
"226 64 OFFCURVE",
"222 70 OFFCURVE",
"223 81 CURVE SMOOTH",
"277 517 LINE",
"291 519 OFFCURVE",
"307 521 OFFCURVE",
"323 521 CURVE SMOOTH",
"378 521 OFFCURVE",
"406 499 OFFCURVE",
"406 442 CURVE SMOOTH",
"406 354 OFFCURVE",
"365 291 OFFCURVE",
"305 291 CURVE SMOOTH",
"288 291 OFFCURVE",
"254 290 OFFCURVE",
"233 296 CURVE",
"226 241 LINE",
"266 241 OFFCURVE",
"306 241 OFFCURVE",
"341 241 CURVE",
"378 256 LINE",
"440 270 OFFCURVE",
"552 297 OFFCURVE",
"552 449 CURVE SMOOTH",
"552 537 OFFCURVE",
"489 572 OFFCURVE",
"341 572 CURVE SMOOTH",
"289 572 OFFCURVE",
"254 568 OFFCURVE",
"212 568 CURVE SMOOTH",
"73 568 LINE",
"66 513 LINE",
"122 502 LINE SMOOTH",
"132 500 OFFCURVE",
"138 492 OFFCURVE",
"136 482 CURVE SMOOTH",
"86 83 LINE SMOOTH",
"85 72 OFFCURVE",
"77 65 OFFCURVE",
"67 63 CURVE SMOOTH",
"8 52 LINE",
"2 0 LINE"
);
},
{
closed = 1;
nodes = (
"562 0 LINE",
"568 52 LINE",
"535 61 LINE SMOOTH",
"523 64 OFFCURVE",
"518 70 OFFCURVE",
"513 85 CURVE SMOOTH",
"484 173 LINE SMOOTH",
"462 240 OFFCURVE",
"429 261 OFFCURVE",
"366 278 CURVE",
"284 259 LINE",
"309 249 OFFCURVE",
"324 216 OFFCURVE",
"336 169 CURVE SMOOTH",
"361 73 LINE SMOOTH",
"374 23 OFFCURVE",
"387 0 OFFCURVE",
"406 0 CURVE SMOOTH"
);
}
);
};
guideLines = (
{
angle = 262.8573;
position = "{111, 283}";
}
);
hints = (
{
origin = "{0, 31}";
type = Corner;
name = _corner.RightSerif;
},
{
origin = "{0, 32}";
type = Corner;
name = _corner.LeftSerif;
}
);
layerId = "AE6560CD-ED69-4B76-858D-88390F81FE66";
name = "Apr 9 20, 10:12";
paths = (
{
closed = 1;
nodes = (
"287 0 LINE",
"293 52 LINE",
"239 62 LINE SMOOTH",
"226 64 OFFCURVE",
"222 70 OFFCURVE",
"223 81 CURVE SMOOTH",
"277 516 LINE",
"287 517 OFFCURVE",
"300 518 OFFCURVE",
"309 518 CURVE SMOOTH",
"361 518 OFFCURVE",
"388 486 OFFCURVE",
"388 425 CURVE SMOOTH",
"388 345 OFFCURVE",
"347 291 OFFCURVE",
"272 291 CURVE SMOOTH",
"262 291 OFFCURVE",
"249 292 OFFCURVE",
"238 298 CURVE",
"231 241 LINE",
"341 241 LINE",
"378 256 LINE",
"457 274 OFFCURVE",
"527 328 OFFCURVE",
"527 430 CURVE SMOOTH",
"527 531 OFFCURVE",
"449 572 OFFCURVE",
"329 572 CURVE SMOOTH",
"286 572 OFFCURVE",
"248 568 OFFCURVE",
"212 568 CURVE SMOOTH",
"147 568 LINE",
"76 0 LINE"
);
},
{
closed = 1;
nodes = (
"285 255 LINE",
"298 181 OFFCURVE",
"317 116 OFFCURVE",
"340 56 CURVE SMOOTH",
"362 0 OFFCURVE",
"381 0 OFFCURVE",
"393 0 CURVE SMOOTH",
"546 0 LINE",
"552 48 LINE",
"522 56 LINE SMOOTH",
"505 60 OFFCURVE",
"495 64 OFFCURVE",
"478 93 CURVE SMOOTH",
"454 134 OFFCURVE",
"426 203 OFFCURVE",
"405 279 CURVE"
);
}
);
width = 582;
},
{
anchors = (
{
name = btm;
position = "{276, 0}";
},
{
name = top;
position = "{305, 568}";
}
);
associatedMasterId = "DAAEA780-4710-4479-B303-5C05B40621B2";
background = {
anchors = (
{
name = btm;
position = "{276, 0}";
},
{
name = top;
position = "{305, 568}";
}
);
paths = (
{
closed = 1;
nodes = (
"235 0 LINE",
"239 32 LINE",
"177 43 LINE SMOOTH",
"159 46 OFFCURVE",
"158 56 OFFCURVE",
"159 66 CURVE SMOOTH",
"217 532 LINE",
"230 533 OFFCURVE",
"264 537 OFFCURVE",
"297 537 CURVE SMOOTH",
"394 537 OFFCURVE",
"424 501 OFFCURVE",
"424 445 CURVE SMOOTH",
"424 351 OFFCURVE",
"373 289 OFFCURVE",
"295 289 CURVE SMOOTH",
"276 289 OFFCURVE",
"206 289 OFFCURVE",
"173 291 CURVE",
"169 253 LINE",
"188 253 OFFCURVE",
"244 253 OFFCURVE",
"303 253 CURVE",
"336 260 LINE",
"430 276 OFFCURVE",
"492 348 OFFCURVE",
"492 453 CURVE SMOOTH",
"492 533 OFFCURVE",
"441 574 OFFCURVE",
"315 574 CURVE SMOOTH",
"267 574 OFFCURVE",
"235 568 OFFCURVE",
"192 568 CURVE SMOOTH",
"82 568 LINE",
"78 536 LINE",
"134 524 LINE SMOOTH",
"147 521 OFFCURVE",
"152 515 OFFCURVE",
"151 501 CURVE SMOOTH",
"97 66 LINE SMOOTH",
"95 51 OFFCURVE",
"87 45 OFFCURVE",
"75 43 CURVE SMOOTH",
"15 32 LINE",
"11 0 LINE"
);
},
{
closed = 1;
nodes = (
"511 0 LINE",
"515 32 LINE",
"474 41 LINE SMOOTH",
"457 45 OFFCURVE",
"450 49 OFFCURVE",
"442 68 CURVE SMOOTH",
"397 179 LINE SMOOTH",
"376 231 OFFCURVE",
"360 256 OFFCURVE",
"328 275 CURVE",
"271 265 LINE",
"293 256 OFFCURVE",
"312 213 OFFCURVE",
"330 164 CURVE SMOOTH",
"357 93 LINE SMOOTH",
"379 36 OFFCURVE",
"391 0 OFFCURVE",
"414 0 CURVE SMOOTH"
);
}
);
};
hints = (
{
origin = "{0, 31}";
type = Corner;
name = _corner.RightSerif;
},
{
origin = "{0, 32}";
type = Corner;
name = _corner.LeftSerif;
}
);
layerId = "1649128A-8A99-40DE-91A6-8788034E630D";
name = "Apr 9 20, 10:48";
paths = (
{
closed = 1;
nodes = (
"233 0 LINE",
"237 32 LINE",
"177 43 LINE SMOOTH",
"159 46 OFFCURVE",
"157 56 OFFCURVE",
"159 66 CURVE SMOOTH",
"217 533 LINE",
"229 533 OFFCURVE",
"256 537 OFFCURVE",
"281 537 CURVE SMOOTH",
"376 537 OFFCURVE",
"396 479 OFFCURVE",
"396 429 CURVE SMOOTH",
"396 345 OFFCURVE",
"341 289 OFFCURVE",
"255 289 CURVE SMOOTH",
"231 289 OFFCURVE",
"195 289 OFFCURVE",
"173 291 CURVE",
"169 253 LINE",
"274 253 LINE",
"296 260 LINE",
"407 271 OFFCURVE",
"465 351 OFFCURVE",
"465 436 CURVE SMOOTH",
"465 511 OFFCURVE",
"420 573 OFFCURVE",
"296 573 CURVE SMOOTH",
"261 573 OFFCURVE",
"232 568 OFFCURVE",
"192 568 CURVE SMOOTH",
"159 568 LINE {GSCorner = {name = _corner.RightSerif;\noptions = \"1\";};}",
"89 0 LINE {GSCorner = {name = _corner.LeftSerif;};}"
);
},
{
closed = 1;
nodes = (
"266 270 LINE",
"277 198 OFFCURVE",
"299 120 OFFCURVE",
"324 67 CURVE SMOOTH",
"355 0 OFFCURVE",
"377 0 OFFCURVE",
"380 0 CURVE SMOOTH",
"480 0 LINE",
"484 31 LINE",
"452 40 LINE SMOOTH",
"423 48 OFFCURVE",
"408 51 OFFCURVE",
"385 95 CURVE SMOOTH",
"364 135 OFFCURVE",
"338 207 OFFCURVE",
"321 285 CURVE"
);
}
);
width = 519;
}
);
leftKerningGroup = H;
leftMetricsKey = H;
rightKerningGroup = R;
unicode = 0052;
userData = {
com.typemytype.robofont.layerData = {
"Light Sep 30 15, 11:17" = {
anchors = (
{
name = btm;
x = 817;
y = -170;
},
{
name = top;
x = 774;
y = 1700;
}
);
components = (
);
contours = (
{
points = (
{
segmentType = line;
smooth = 0;
x = 505;
y = 1465;
},
{
smooth = 0;
x = 552;
y = 1465;
},
{
smooth = 0;
x = 624;
y = 1477;
},
{
segmentType = curve;
smooth = 1;
x = 730;
y = 1477;
},
{
smooth = 0;
x = 1026;
y = 1477;
},
{
smooth = 0;
x = 1107;
y = 1345;
},
{
segmentType = curve;
smooth = 1;
x = 1107;
y = 1153;
},
{
smooth = 0;
x = 1107;
y = 908;
},
{
smooth = 0;
x = 983;
y = 796;
},
{
segmentType = curve;
smooth = 1;
x = 801;
y = 796;
},
{
smooth = 0;
x = 748;
y = 796;
},
{
smooth = 0;
x = 558;
y = 794;
},
{
segmentType = curve;
smooth = 0;
x = 467;
y = 800;
},
{
segmentType = line;
smooth = 0;
x = 467;
y = 697;
},
{
smooth = 0;
x = 523;
y = 696;
},
{
smooth = 0;
x = 799;
y = 695;
},
{
segmentType = curve;
smooth = 1;
x = 838;
y = 695;
},
{
smooth = 0;
x = 916;
y = 695;
},
{
smooth = 0;
x = 868;
y = 706;
},
{
segmentType = curve;
smooth = 1;
x = 906;
y = 710;
},
{
smooth = 0;
x = 1146;
y = 735;
},
{
smooth = 0;
x = 1291;
y = 940;
},
{
segmentType = curve;
smooth = 1;
x = 1291;
y = 1167;
},
{
smooth = 0;
x = 1291;
y = 1443;
},
{
smooth = 0;
x = 1146;
y = 1578;
},
{
segmentType = curve;
smooth = 1;
x = 746;
y = 1578;
},
{
smooth = 0;
x = 645;
y = 1578;
},
{
smooth = 0;
x = 532;
y = 1562;
},
{
segmentType = curve;
smooth = 1;
x = 423;
y = 1562;
},
{
segmentType = line;
smooth = 0;
x = 120;
y = 1562;
},
{
segmentType = line;
smooth = 0;
x = 120;
y = 1474;
},
{
segmentType = line;
smooth = 1;
x = 279;
y = 1442;
},
{
smooth = 0;
x = 314;
y = 1435;
},
{
smooth = 0;
x = 335;
y = 1415;
},
{
segmentType = curve;
smooth = 1;
x = 335;
y = 1378;
},
{
segmentType = line;
smooth = 1;
x = 335;
y = 181;
},
{
smooth = 0;
x = 335;
y = 144;
},
{
smooth = 0;
x = 314;
y = 125;
},
{
segmentType = curve;
smooth = 1;
x = 278;
y = 118;
},
{
segmentType = line;
smooth = 0;
x = 120;
y = 88;
},
{
segmentType = line;
smooth = 0;
x = 120;
y = 0;
},
{
segmentType = line;
smooth = 0;
x = 735;
y = 0;
},
{
segmentType = line;
smooth = 0;
x = 735;
y = 88;
},
{
segmentType = line;
smooth = 1;
x = 562;
y = 119;
},
{
smooth = 0;
x = 525;
y = 126;
},
{
smooth = 0;
x = 505;
y = 144;
},
{
segmentType = curve;
smooth = 1;
x = 505;
y = 181;
}
);
},
{
points = (
{
segmentType = line;
smooth = 0;
x = 1495;
y = 0;
},
{
segmentType = line;
smooth = 0;
x = 1495;
y = 88;
},
{
segmentType = line;
smooth = 1;
x = 1364;
y = 118;
},
{
smooth = 0;
x = 1259;
y = 142;
},
{
smooth = 0;
x = 1101;
y = 663;
},
{
segmentType = curve;
smooth = 0;
x = 942;
y = 736;
},
{
segmentType = line;
smooth = 0;
x = 806;
y = 742;
},
{
segmentType = line;
smooth = 0;
x = 775;
y = 703;
},
{
smooth = 0;
x = 933;
y = 657;
},
{
smooth = 0;
x = 1109;
y = 0;
},
{
segmentType = curve;
smooth = 1;
x = 1216;
y = 0;
}
);
}
);
lib = {
};
name = R;
unicodes = (
);
width = 1494;
};
background = {
anchors = (
{
name = btm;
x = 817;
y = -170;
},
{
name = top;
x = 774;
y = 1700;
}
);
components = (
);
contours = (
{
points = (
{
smooth = 0;
x = 1236;
y = 0;
},
{
smooth = 0;
x = 1276;
y = 0;
},
{
segmentType = curve;
smooth = 0;
x = 1474;
y = 0;
},
{
segmentType = line;
smooth = 0;
x = 1474;
y = 85;
},
{
segmentType = line;
smooth = 0;
x = 1388;
y = 108;
},
{
smooth = 0;
x = 1283;
y = 133;
},
{
smooth = 0;
x = 1100;
y = 643;
},
{
segmentType = curve;
smooth = 0;
x = 941;
y = 716;
},
{
segmentType = line;
smooth = 0;
x = 805;
y = 722;
},
{
segmentType = line;
smooth = 0;
x = 774;
y = 683;
},
{
smooth = 0;
x = 932;
y = 637;
},
{
smooth = 0;
x = 1128;
y = 0;
},
{
segmentType = curve;
smooth = 1;
x = 1235;
y = 0;
}
);
},
{
points = (
{
segmentType = line;
smooth = 0;
x = 160;
y = 0;
},
{
segmentType = line;
smooth = 0;
x = 714;
y = 0;
},
{
segmentType = line;
smooth = 0;
x = 714;
y = 88;
},
{
segmentType = line;
smooth = 0;
x = 463;
y = 110;
},
{
segmentType = line;
smooth = 0;
x = 504;
y = 63;
},
{
segmentType = line;
smooth = 0;
x = 504;
y = 677;
},
{
smooth = 0;
x = 547;
y = 676;
},
{
smooth = 0;
x = 780;
y = 675;
},
{
segmentType = curve;
smooth = 0;
x = 817;
y = 675;
},
{
smooth = 0;
x = 895;
y = 675;
},
{
smooth = 0;
x = 847;
y = 686;
},
{
segmentType = curve;
smooth = 0;
x = 885;
y = 690;
},
{
smooth = 0;
x = 1125;
y = 715;
},
{
smooth = 0;
x = 1268;
y = 921;
},
{
segmentType = curve;
smooth = 1;
x = 1268;
y = 1137;
},
{
smooth = 0;
x = 1268;
y = 1402;
},
{
smooth = 0;
x = 1125;
y = 1538;
},
{
segmentType = curve;
smooth = 1;
x = 725;
y = 1538;
},
{
smooth = 0;
x = 624;
y = 1538;
},
{
smooth = 0;
x = 531;
y = 1522;
},
{
segmentType = curve;
smooth = 1;
x = 422;
y = 1522;
},
{
segmentType = line;
smooth = 0;
x = 171;
y = 1522;
},
{
segmentType = line;
smooth = 0;
x = 171;
y = 1437;
},
{
segmentType = line;
smooth = 0;
x = 367;
y = 1410;
},
{
segmentType = line;
smooth = 0;
x = 335;
y = 1447;
},
{
segmentType = line;
smooth = 0;
x = 335;
y = 63;
},
{
segmentType = line;
smooth = 0;
x = 366;
y = 110;
},
{
segmentType = line;
smooth = 0;
x = 160;
y = 88;
}
);
},
{
points = (
{
smooth = 0;
x = 730;
y = 776;
},
{
smooth = 0;
x = 576;
y = 774;
},
{
segmentType = curve;
smooth = 0;
x = 504;
y = 779;
},
{
segmentType = line;
smooth = 0;
x = 504;
y = 1425;
},
{
smooth = 0;
x = 551;
y = 1425;
},
{
smooth = 0;
x = 603;
y = 1437;
},
{
segmentType = curve;
smooth = 1;
x = 709;
y = 1437;
},
{
smooth = 0;
x = 1005;
y = 1437;
},
{
smooth = 0;
x = 1086;
y = 1305;
},
{
segmentType = curve;
smooth = 1;
x = 1086;
y = 1123;
},
{
smooth = 0;
x = 1086;
y = 889;
},
{
smooth = 0;
x = 962;
y = 776;
},
{
segmentType = curve;
smooth = 1;
x = 780;
y = 776;
}
);
}
);
lib = {
};
name = R;
unicodes = (
);
width = 1485;
};
};
};
},
{
color = 8;
glyphname = S;
lastChange = "2020-04-08 22:17:12 +0000";
layers = (
{
anchors = (
{
name = btm;
position = "{178, 0}";
},
{
name = top;
position = "{261, 568}";
}
);
background = {
anchors = (
{
name = btm;
position = "{178, 0}";
},
{
name = top;
position = "{261, 568}";
}
);
paths = (
{
closed = 1;
nodes = (
"386 148 CURVE SMOOTH",
"396 241 OFFCURVE",
"324 280 OFFCURVE",
"251 316 CURVE SMOOTH",
"167 358 OFFCURVE",
"121 381 OFFCURVE",
"129 451 CURVE SMOOTH",
"136 509 OFFCURVE",
"176 542 OFFCURVE",
"246 542 CURVE SMOOTH",
"285 542 OFFCURVE",
"316 529 OFFCURVE",
"332 515 CURVE SMOOTH",
"341 507 OFFCURVE",
"342 497 OFFCURVE",
"343 489 CURVE SMOOTH",
"349 417 LINE",
"386 417 LINE",
"397 458 OFFCURVE",
"404 499 OFFCURVE",
"406 547 CURVE",
"372 566 OFFCURVE",
"317 577 OFFCURVE",
"266 577 CURVE SMOOTH",
"148 577 OFFCURVE",
"79 517 OFFCURVE",
"69 434 CURVE SMOOTH",
"57 334 OFFCURVE",
"140 293 OFFCURVE",
"206 263 CURVE SMOOTH",
"282 229 OFFCURVE",
"329 204 OFFCURVE",
"320 130 CURVE SMOOTH",
"312 64 OFFCURVE",
"266 24 OFFCURVE",
"187 24 CURVE SMOOTH",
"138 24 OFFCURVE",
"99 44 OFFCURVE",
"82 66 CURVE SMOOTH",
"75 75 OFFCURVE",
"72 84 OFFCURVE",
"72 91 CURVE SMOOTH",
"70 173 LINE",
"32 173 LINE",
"20 125 OFFCURVE",
"12 81 OFFCURVE",
"9 36 CURVE",
"40 13 OFFCURVE",
"99 -12 OFFCURVE",
"176 -12 CURVE SMOOTH",
"307 -12 OFFCURVE",
"377 67 OFFCURVE"
);
}
);
};
layerId = "DAAEA780-4710-4479-B303-5C05B40621B2";
paths = (
{
closed = 1;
nodes = (
"299 -13 OFFCURVE",
"375 66 OFFCURVE",
"375 161 CURVE SMOOTH",
"375 329 OFFCURVE",
"140 309 OFFCURVE",
"140 440 CURVE SMOOTH",
"140 495 OFFCURVE",
"181 541 OFFCURVE",
"249 541 CURVE SMOOTH",
"279 541 OFFCURVE",
"302 534 OFFCURVE",
"318 523 CURVE SMOOTH",
"335 511 OFFCURVE",
"336 497 OFFCURVE",
"337 487 CURVE SMOOTH",
"343 417 LINE",
"378 417 LINE",
"389 461 OFFCURVE",
"396 510 OFFCURVE",
"398 551 CURVE",
"359 567 OFFCURVE",
"312 576 OFFCURVE",
"264 576 CURVE SMOOTH",
"158 576 OFFCURVE",
"79 516 OFFCURVE",
"79 419 CURVE SMOOTH",
"79 255 OFFCURVE",
"310 276 OFFCURVE",
"310 139 CURVE SMOOTH",
"310 77 OFFCURVE",
"263 24 OFFCURVE",
"189 24 CURVE SMOOTH",
"152 24 OFFCURVE",
"120 36 OFFCURVE",
"98 55 CURVE SMOOTH",
"83 68 OFFCURVE",
"84 80 OFFCURVE",
"83 96 CURVE SMOOTH",
"79 173 LINE",
"44 173 LINE",
"31 124 OFFCURVE",
"21 75 OFFCURVE",
"20 29 CURVE",
"57 6 OFFCURVE",
"110 -13 OFFCURVE",
"172 -13 CURVE SMOOTH"
);
}
);
width = 423;
},
{
anchors = (
{
name = btm;
position = "{193, 0}";
},
{
name = top;
position = "{286, 568}";
}
);
associatedMasterId = "925CB40E-795E-477B-BAE7-1EE7D58841B5";
background = {
anchors = (
{
name = btm;
position = "{193, 0}";
},
{
name = top;
position = "{286, 568}";
}
);
paths = (
{
closed = 1;
nodes = (
"438 161 CURVE SMOOTH",
"449 251 OFFCURVE",
"385 300 OFFCURVE",
"307 343 CURVE SMOOTH",
"236 382 OFFCURVE",
"194 404 OFFCURVE",
"201 460 CURVE SMOOTH",
"206 500 OFFCURVE",
"235 527 OFFCURVE",
"278 527 CURVE SMOOTH",
"299 527 OFFCURVE",
"321 519 OFFCURVE",
"333 511 CURVE SMOOTH",
"342 505 OFFCURVE",
"344 496 OFFCURVE",
"345 481 CURVE SMOOTH",
"350 399 LINE",
"426 399 LINE",
"440 446 OFFCURVE",
"451 501 OFFCURVE",
"453 549 CURVE",
"411 567 OFFCURVE",
"349 579 OFFCURVE",
"291 579 CURVE SMOOTH",
"153 579 OFFCURVE",
"76 507 OFFCURVE",
"65 412 CURVE SMOOTH",
"54 316 OFFCURVE",
"118 279 OFFCURVE",
"190 239 CURVE SMOOTH",
"251 205 OFFCURVE",
"304 175 OFFCURVE",
"295 113 CURVE SMOOTH",
"289 70 OFFCURVE",
"258 41 OFFCURVE",
"210 41 CURVE SMOOTH",
"177 41 OFFCURVE",
"149 56 OFFCURVE",
"137 69 CURVE SMOOTH",
"129 78 OFFCURVE",
"124 85 OFFCURVE",
"124 97 CURVE SMOOTH",
"122 191 LINE",
"44 191 LINE",
"30 148 OFFCURVE",
"18 84 OFFCURVE",
"14 31 CURVE",
"59 8 OFFCURVE",
"125 -12 OFFCURVE",
"201 -12 CURVE SMOOTH",
"359 -12 OFFCURVE",
"428 79 OFFCURVE"
);
}
);
};
layerId = "4C8D9DA8-9810-46CE-88E3-A880C378C85B";
name = "Mar 24 20, 17:10";
paths = (
{
closed = 1;
nodes = (
"439 167 CURVE SMOOTH",
"439 249 OFFCURVE",
"387 298 OFFCURVE",
"306 343 CURVE SMOOTH",
"250 374 OFFCURVE",
"200 392 OFFCURVE",
"200 449 CURVE SMOOTH",
"200 496 OFFCURVE",
"233 531 OFFCURVE",
"278 531 CURVE SMOOTH",
"297 531 OFFCURVE",
"314 525 OFFCURVE",
"326 515 CURVE SMOOTH",
"340 504 OFFCURVE",
"340 492 OFFCURVE",
"343 468 CURVE SMOOTH",
"350 402 LINE",
"425 402 LINE",
"439 449 OFFCURVE",
"447 508 OFFCURVE",
"450 552 CURVE",
"405 569 OFFCURVE",
"337 583 OFFCURVE",
"279 583 CURVE SMOOTH",
"135 583 OFFCURVE",
"68 499 OFFCURVE",
"66 405 CURVE SMOOTH",
"64 313 OFFCURVE",
"129 273 OFFCURVE",
"193 239 CURVE SMOOTH",
"251 208 OFFCURVE",
"299 180 OFFCURVE",
"299 123 CURVE SMOOTH",
"299 73 OFFCURVE",
"263 38 OFFCURVE",
"212 38 CURVE SMOOTH",
"183 38 OFFCURVE",
"155 48 OFFCURVE",
"139 65 CURVE SMOOTH",
"124 81 OFFCURVE",
"125 90 OFFCURVE",
"124 113 CURVE SMOOTH",
"121 195 LINE",
"44 195 LINE",
"30 151 OFFCURVE",
"16 95 OFFCURVE",
"14 35 CURVE",
"60 8 OFFCURVE",
"129 -15 OFFCURVE",
"212 -15 CURVE SMOOTH",
"357 -15 OFFCURVE",
"439 63 OFFCURVE"
);
}
);
width = 470;
},
{
anchors = (
{
name = btm;
position = "{194, 0}";
},
{
name = top;
position = "{277, 568}";
}
);
associatedMasterId = "DAAEA780-4710-4479-B303-5C05B40621B2";
background = {
anchors = (
{
name = btm;
position = "{194, 0}";
},
{
name = top;
position = "{277, 568}";
}
);
paths = (
{
closed = 1;
nodes = (
"402 148 CURVE SMOOTH",
"412 241 OFFCURVE",
"340 280 OFFCURVE",
"267 316 CURVE SMOOTH",
"183 358 OFFCURVE",
"137 381 OFFCURVE",
"145 451 CURVE SMOOTH",
"152 509 OFFCURVE",
"192 542 OFFCURVE",
"262 542 CURVE SMOOTH",
"301 542 OFFCURVE",
"332 529 OFFCURVE",
"348 515 CURVE SMOOTH",
"357 507 OFFCURVE",
"358 497 OFFCURVE",
"359 489 CURVE SMOOTH",
"365 417 LINE",
"402 417 LINE",
"413 458 OFFCURVE",
"420 499 OFFCURVE",
"422 547 CURVE",
"388 566 OFFCURVE",
"333 577 OFFCURVE",
"282 577 CURVE SMOOTH",
"164 577 OFFCURVE",
"95 517 OFFCURVE",
"85 434 CURVE SMOOTH",
"73 334 OFFCURVE",
"156 293 OFFCURVE",
"222 263 CURVE SMOOTH",
"298 229 OFFCURVE",
"345 204 OFFCURVE",
"336 130 CURVE SMOOTH",
"328 64 OFFCURVE",
"282 24 OFFCURVE",
"203 24 CURVE SMOOTH",
"154 24 OFFCURVE",
"115 44 OFFCURVE",
"98 66 CURVE SMOOTH",
"91 75 OFFCURVE",
"88 84 OFFCURVE",
"88 91 CURVE SMOOTH",
"86 173 LINE",
"48 173 LINE",
"36 125 OFFCURVE",
"28 81 OFFCURVE",
"25 36 CURVE",
"56 13 OFFCURVE",
"115 -12 OFFCURVE",
"192 -12 CURVE SMOOTH",
"323 -12 OFFCURVE",
"393 67 OFFCURVE"
);
}
);
};
layerId = "816D3444-3B2D-4558-95BC-94879C42BE91";
name = "Mar 24 20, 17:26";
paths = (
{
closed = 1;
nodes = (
"403 160 CURVE SMOOTH",
"403 246 OFFCURVE",
"342 281 OFFCURVE",
"259 318 CURVE SMOOTH",
"200 344 OFFCURVE",
"144 377 OFFCURVE",
"144 436 CURVE SMOOTH",
"144 498 OFFCURVE",
"190 544 OFFCURVE",
"257 544 CURVE SMOOTH",
"290 544 OFFCURVE",
"318 536 OFFCURVE",
"334 522 CURVE SMOOTH",
"349 509 OFFCURVE",
"349 496 OFFCURVE",
"351 484 CURVE SMOOTH",
"359 422 LINE",
"396 422 LINE",
"406 463 OFFCURVE",
"411 510 OFFCURVE",
"413 548 CURVE",
"378 565 OFFCURVE",
"317 579 OFFCURVE",
"264 579 CURVE SMOOTH",
"158 579 OFFCURVE",
"83 515 OFFCURVE",
"83 422 CURVE SMOOTH",
"83 327 OFFCURVE",
"170 286 OFFCURVE",
"227 261 CURVE SMOOTH",
"296 231 OFFCURVE",
"338 196 OFFCURVE",
"338 140 CURVE SMOOTH",
"338 74 OFFCURVE",
"284 22 OFFCURVE",
"213 22 CURVE SMOOTH",
"168 22 OFFCURVE",
"130 40 OFFCURVE",
"109 63 CURVE SMOOTH",
"96 77 OFFCURVE",
"94 88 OFFCURVE",
"93 104 CURVE SMOOTH",
"88 176 LINE",
"51 176 LINE",
"41 128 OFFCURVE",
"32 83 OFFCURVE",
"30 40 CURVE",
"66 10 OFFCURVE",
"132 -15 OFFCURVE",
"201 -15 CURVE SMOOTH",
"335 -15 OFFCURVE",
"403 69 OFFCURVE"
);
}
);
width = 446;
},
{
anchors = (
{
name = btm;
position = "{187, 0}";
},
{
name = top;
position = "{280, 568}";
}
);
associatedMasterId = "925CB40E-795E-477B-BAE7-1EE7D58841B5";
background = {
anchors = (
{
name = btm;
position = "{187, 0}";
},
{
name = top;
position = "{280, 568}";
}
);
paths = (
{
closed = 1;
nodes = (
"432 161 CURVE SMOOTH",
"443 251 OFFCURVE",
"379 300 OFFCURVE",
"301 343 CURVE SMOOTH",
"230 382 OFFCURVE",
"188 404 OFFCURVE",
"195 460 CURVE SMOOTH",
"200 500 OFFCURVE",
"229 527 OFFCURVE",
"272 527 CURVE SMOOTH",
"293 527 OFFCURVE",
"315 519 OFFCURVE",
"327 511 CURVE SMOOTH",
"336 505 OFFCURVE",
"338 496 OFFCURVE",
"339 481 CURVE SMOOTH",
"344 399 LINE",
"420 399 LINE",
"434 446 OFFCURVE",
"445 501 OFFCURVE",
"447 549 CURVE",
"405 567 OFFCURVE",
"343 579 OFFCURVE",
"285 579 CURVE SMOOTH",
"147 579 OFFCURVE",
"70 507 OFFCURVE",
"59 412 CURVE SMOOTH",
"48 316 OFFCURVE",
"112 279 OFFCURVE",
"184 239 CURVE SMOOTH",
"245 205 OFFCURVE",
"298 175 OFFCURVE",
"289 113 CURVE SMOOTH",
"283 70 OFFCURVE",
"252 41 OFFCURVE",
"204 41 CURVE SMOOTH",
"171 41 OFFCURVE",
"143 56 OFFCURVE",
"131 69 CURVE SMOOTH",
"123 78 OFFCURVE",
"118 85 OFFCURVE",
"118 97 CURVE SMOOTH",
"116 191 LINE",
"38 191 LINE",
"24 148 OFFCURVE",
"12 84 OFFCURVE",
"8 31 CURVE",
"53 8 OFFCURVE",
"119 -12 OFFCURVE",
"195 -12 CURVE SMOOTH",
"353 -12 OFFCURVE",
"422 79 OFFCURVE"
);
}
);
};
layerId = "ADBE567B-192F-4A25-BB32-4EF5A142B4EB";
name = "Mar 30 20, 14:44";
paths = (
{
closed = 1;
nodes = (
"426 177 CURVE SMOOTH",
"426 251 OFFCURVE",
"383 297 OFFCURVE",
"302 344 CURVE SMOOTH",
"249 375 OFFCURVE",
"203 394 OFFCURVE",
"203 449 CURVE SMOOTH",
"203 494 OFFCURVE",
"235 528 OFFCURVE",
"282 528 CURVE SMOOTH",
"302 528 OFFCURVE",
"319 522 OFFCURVE",
"329 514 CURVE SMOOTH",
"343 503 OFFCURVE",
"342 489 OFFCURVE",
"345 465 CURVE SMOOTH",
"352 401 LINE",
"425 401 LINE",
"439 448 OFFCURVE",
"448 509 OFFCURVE",
"450 553 CURVE",
"404 572 OFFCURVE",
"345 581 OFFCURVE",
"295 581 CURVE SMOOTH",
"142 581 OFFCURVE",
"72 497 OFFCURVE",
"70 405 CURVE SMOOTH",
"68 313 OFFCURVE",
"133 276 OFFCURVE",
"193 240 CURVE SMOOTH",
"254 204 OFFCURVE",
"288 183 OFFCURVE",
"288 126 CURVE SMOOTH",
"288 72 OFFCURVE",
"256 40 OFFCURVE",
"208 40 CURVE SMOOTH",
"178 40 OFFCURVE",
"153 54 OFFCURVE",
"136 72 CURVE SMOOTH",
"121 88 OFFCURVE",
"122 97 OFFCURVE",
"121 120 CURVE SMOOTH",
"119 198 LINE",
"44 198 LINE",
"30 154 OFFCURVE",
"16 97 OFFCURVE",
"14 37 CURVE",
"59 5 OFFCURVE",
"124 -13 OFFCURVE",
"191 -13 CURVE SMOOTH",
"346 -13 OFFCURVE",
"426 78 OFFCURVE"
);
}
);
width = 457;
},
{
anchors = (
{
name = btm;
position = "{178, 0}";
},
{
name = top;
position = "{261, 568}";
}
);
associatedMasterId = "DAAEA780-4710-4479-B303-5C05B40621B2";
background = {
anchors = (
{
name = btm;
position = "{178, 0}";
},
{
name = top;
position = "{261, 568}";
}
);
paths = (
{
closed = 1;
nodes = (
"386 148 CURVE SMOOTH",
"396 241 OFFCURVE",
"324 280 OFFCURVE",
"251 316 CURVE SMOOTH",
"167 358 OFFCURVE",
"121 381 OFFCURVE",
"129 451 CURVE SMOOTH",
"136 509 OFFCURVE",
"176 542 OFFCURVE",
"246 542 CURVE SMOOTH",
"285 542 OFFCURVE",
"316 529 OFFCURVE",
"332 515 CURVE SMOOTH",
"341 507 OFFCURVE",
"342 497 OFFCURVE",
"343 489 CURVE SMOOTH",
"349 417 LINE",
"386 417 LINE",
"397 458 OFFCURVE",
"404 499 OFFCURVE",
"406 547 CURVE",
"372 566 OFFCURVE",
"317 577 OFFCURVE",
"266 577 CURVE SMOOTH",
"148 577 OFFCURVE",
"79 517 OFFCURVE",
"69 434 CURVE SMOOTH",
"57 334 OFFCURVE",
"140 293 OFFCURVE",
"206 263 CURVE SMOOTH",
"282 229 OFFCURVE",
"329 204 OFFCURVE",
"320 130 CURVE SMOOTH",
"312 64 OFFCURVE",
"266 24 OFFCURVE",
"187 24 CURVE SMOOTH",
"138 24 OFFCURVE",
"99 44 OFFCURVE",
"82 66 CURVE SMOOTH",
"75 75 OFFCURVE",
"72 84 OFFCURVE",
"72 91 CURVE SMOOTH",
"70 173 LINE",
"32 173 LINE",
"20 125 OFFCURVE",
"12 81 OFFCURVE",
"9 36 CURVE",
"40 13 OFFCURVE",
"99 -12 OFFCURVE",
"176 -12 CURVE SMOOTH",
"307 -12 OFFCURVE",
"377 67 OFFCURVE"
);
}
);
};
layerId = "BEDF9BDC-27A1-4087-8F85-30981EEAE0F1";
name = "Mar 30 20, 14:45";
paths = (
{
closed = 1;
nodes = (
"378 162 CURVE SMOOTH",
"378 238 OFFCURVE",
"336 272 OFFCURVE",
"258 316 CURVE SMOOTH",
"199 349 OFFCURVE",
"144 378 OFFCURVE",
"144 441 CURVE SMOOTH",
"144 495 OFFCURVE",
"186 541 OFFCURVE",
"254 541 CURVE SMOOTH",
"284 541 OFFCURVE",
"310 535 OFFCURVE",
"324 524 CURVE SMOOTH",
"340 512 OFFCURVE",
"341 499 OFFCURVE",
"342 487 CURVE SMOOTH",
"348 417 LINE",
"383 417 LINE",
"394 461 OFFCURVE",
"401 510 OFFCURVE",
"403 551 CURVE",
"369 566 OFFCURVE",
"311 576 OFFCURVE",
"268 576 CURVE SMOOTH",
"167 576 OFFCURVE",
"86 516 OFFCURVE",
"86 419 CURVE SMOOTH",
"86 326 OFFCURVE",
"167 288 OFFCURVE",
"221 258 CURVE SMOOTH",
"279 226 OFFCURVE",
"316 194 OFFCURVE",
"316 138 CURVE SMOOTH",
"316 74 OFFCURVE",
"263 23 OFFCURVE",
"189 23 CURVE SMOOTH",
"154 23 OFFCURVE",
"120 35 OFFCURVE",
"101 56 CURVE SMOOTH",
"88 70 OFFCURVE",
"87 81 OFFCURVE",
"86 97 CURVE SMOOTH",
"82 172 LINE",
"47 172 LINE",
"34 124 OFFCURVE",
"24 76 OFFCURVE",
"23 33 CURVE",
"60 7 OFFCURVE",
"114 -13 OFFCURVE",
"176 -13 CURVE SMOOTH",
"300 -13 OFFCURVE",
"378 66 OFFCURVE"
);
}
);
width = 423;
},
{
anchors = (
{
name = btm;
position = "{178, 0}";
},
{
name = top;
position = "{261, 568}";
}
);
associatedMasterId = "DAAEA780-4710-4479-B303-5C05B40621B2";
background = {
anchors = (
{
name = btm;
position = "{178, 0}";
},
{
name = top;
position = "{261, 568}";
}
);
paths = (
{
closed = 1;
nodes = (
"386 148 CURVE SMOOTH",
"396 241 OFFCURVE",
"324 280 OFFCURVE",
"251 316 CURVE SMOOTH",
"167 358 OFFCURVE",
"121 381 OFFCURVE",
"129 451 CURVE SMOOTH",
"136 509 OFFCURVE",
"176 542 OFFCURVE",
"246 542 CURVE SMOOTH",
"285 542 OFFCURVE",
"316 529 OFFCURVE",
"332 515 CURVE SMOOTH",
"341 507 OFFCURVE",
"342 497 OFFCURVE",
"343 489 CURVE SMOOTH",
"349 417 LINE",
"386 417 LINE",
"397 458 OFFCURVE",
"404 499 OFFCURVE",
"406 547 CURVE",
"372 566 OFFCURVE",
"317 577 OFFCURVE",
"266 577 CURVE SMOOTH",
"148 577 OFFCURVE",
"79 517 OFFCURVE",
"69 434 CURVE SMOOTH",
"57 334 OFFCURVE",
"140 293 OFFCURVE",
"206 263 CURVE SMOOTH",
"282 229 OFFCURVE",
"329 204 OFFCURVE",
"320 130 CURVE SMOOTH",
"312 64 OFFCURVE",
"266 24 OFFCURVE",
"187 24 CURVE SMOOTH",
"138 24 OFFCURVE",
"99 44 OFFCURVE",
"82 66 CURVE SMOOTH",
"75 75 OFFCURVE",
"72 84 OFFCURVE",
"72 91 CURVE SMOOTH",
"70 173 LINE",
"32 173 LINE",
"20 125 OFFCURVE",
"12 81 OFFCURVE",
"9 36 CURVE",
"40 13 OFFCURVE",
"99 -12 OFFCURVE",
"176 -12 CURVE SMOOTH",
"307 -12 OFFCURVE",
"377 67 OFFCURVE"
);
}
);
};
layerId = "A94F753E-9B33-4764-B3EB-A41BA3588BBA";
name = "Apr 8 20, 22:50";
paths = (
{
closed = 1;
nodes = (
"378 162 CURVE SMOOTH",
"378 329 OFFCURVE",
"144 309 OFFCURVE",
"144 441 CURVE SMOOTH",
"144 495 OFFCURVE",
"186 541 OFFCURVE",
"251 541 CURVE SMOOTH",
"281 541 OFFCURVE",
"304 534 OFFCURVE",
"320 523 CURVE SMOOTH",
"335 512 OFFCURVE",
"338 501 OFFCURVE",
"339 487 CURVE SMOOTH",
"345 417 LINE",
"380 417 LINE",
"391 461 OFFCURVE",
"398 510 OFFCURVE",
"400 551 CURVE",
"366 566 OFFCURVE",
"308 576 OFFCURVE",
"265 576 CURVE SMOOTH",
"162 576 OFFCURVE",
"83 516 OFFCURVE",
"83 419 CURVE SMOOTH",
"83 256 OFFCURVE",
"313 276 OFFCURVE",
"313 138 CURVE SMOOTH",
"313 74 OFFCURVE",
"260 23 OFFCURVE",
"193 23 CURVE SMOOTH",
"155 23 OFFCURVE",
"121 40 OFFCURVE",
"101 60 CURVE SMOOTH",
"87 74 OFFCURVE",
"87 85 OFFCURVE",
"86 101 CURVE SMOOTH",
"82 176 LINE",
"47 176 LINE",
"34 128 OFFCURVE",
"24 80 OFFCURVE",
"23 36 CURVE",
"60 9 OFFCURVE",
"117 -13 OFFCURVE",
"177 -13 CURVE SMOOTH",
"303 -13 OFFCURVE",
"378 66 OFFCURVE"
);
}
);
width = 423;
},
{
anchors = (
{
name = btm;
position = "{187, 0}";
},
{
name = top;
position = "{280, 568}";
}
);
associatedMasterId = "925CB40E-795E-477B-BAE7-1EE7D58841B5";
background = {
anchors = (
{
name = btm;
position = "{187, 0}";
},
{
name = top;
position = "{280, 568}";
}
);
paths = (
{
closed = 1;
nodes = (
"432 161 CURVE SMOOTH",
"443 251 OFFCURVE",
"379 300 OFFCURVE",
"301 343 CURVE SMOOTH",
"230 382 OFFCURVE",
"188 404 OFFCURVE",
"195 460 CURVE SMOOTH",
"200 500 OFFCURVE",
"229 527 OFFCURVE",
"272 527 CURVE SMOOTH",
"293 527 OFFCURVE",
"315 519 OFFCURVE",
"327 511 CURVE SMOOTH",
"336 505 OFFCURVE",
"338 496 OFFCURVE",
"339 481 CURVE SMOOTH",
"344 399 LINE",
"420 399 LINE",
"434 446 OFFCURVE",
"445 501 OFFCURVE",
"447 549 CURVE",
"405 567 OFFCURVE",
"343 579 OFFCURVE",
"285 579 CURVE SMOOTH",
"147 579 OFFCURVE",
"70 507 OFFCURVE",
"59 412 CURVE SMOOTH",
"48 316 OFFCURVE",
"112 279 OFFCURVE",
"184 239 CURVE SMOOTH",
"245 205 OFFCURVE",
"298 175 OFFCURVE",
"289 113 CURVE SMOOTH",
"283 70 OFFCURVE",
"252 41 OFFCURVE",
"204 41 CURVE SMOOTH",
"171 41 OFFCURVE",
"143 56 OFFCURVE",
"131 69 CURVE SMOOTH",
"123 78 OFFCURVE",
"118 85 OFFCURVE",
"118 97 CURVE SMOOTH",
"116 191 LINE",
"38 191 LINE",
"24 148 OFFCURVE",
"12 84 OFFCURVE",
"8 31 CURVE",
"53 8 OFFCURVE",
"119 -12 OFFCURVE",
"195 -12 CURVE SMOOTH",
"353 -12 OFFCURVE",
"422 79 OFFCURVE"
);
}
);
};
layerId = "A67CAA93-7598-4D29-A146-F9F74F4902A8";
name = "Apr 8 20, 22:57";
paths = (
{
closed = 1;
nodes = (
"426 177 CURVE SMOOTH",
"426 342 OFFCURVE",
"205 346 OFFCURVE",
"205 449 CURVE SMOOTH",
"205 494 OFFCURVE",
"237 528 OFFCURVE",
"284 528 CURVE SMOOTH",
"304 528 OFFCURVE",
"321 519 OFFCURVE",
"331 511 CURVE SMOOTH",
"345 500 OFFCURVE",
"344 486 OFFCURVE",
"347 462 CURVE SMOOTH",
"354 398 LINE",
"427 398 LINE",
"441 445 OFFCURVE",
"450 506 OFFCURVE",
"452 550 CURVE",
"406 569 OFFCURVE",
"347 581 OFFCURVE",
"297 581 CURVE SMOOTH",
"144 581 OFFCURVE",
"74 497 OFFCURVE",
"72 405 CURVE SMOOTH",
"68 236 OFFCURVE",
"288 251 OFFCURVE",
"288 126 CURVE SMOOTH",
"288 72 OFFCURVE",
"256 40 OFFCURVE",
"208 40 CURVE SMOOTH",
"178 40 OFFCURVE",
"153 54 OFFCURVE",
"136 74 CURVE SMOOTH",
"121 90 OFFCURVE",
"122 99 OFFCURVE",
"121 122 CURVE SMOOTH",
"119 200 LINE",
"44 200 LINE",
"30 156 OFFCURVE",
"16 99 OFFCURVE",
"14 37 CURVE",
"61 5 OFFCURVE",
"129 -13 OFFCURVE",
"191 -13 CURVE SMOOTH",
"346 -13 OFFCURVE",
"426 78 OFFCURVE"
);
}
);
width = 457;
},
{
anchors = (
{
name = btm;
position = "{183, 0}";
},
{
name = top;
position = "{276, 568}";
}
);
background = {
anchors = (
{
name = btm;
position = "{183, 0}";
},
{
name = top;
position = "{276, 568}";
}
);
paths = (
{
closed = 1;
nodes = (
"428 161 CURVE SMOOTH",
"439 251 OFFCURVE",
"375 300 OFFCURVE",
"297 343 CURVE SMOOTH",
"226 382 OFFCURVE",
"184 404 OFFCURVE",
"191 460 CURVE SMOOTH",
"196 500 OFFCURVE",
"225 527 OFFCURVE",
"268 527 CURVE SMOOTH",
"289 527 OFFCURVE",
"311 519 OFFCURVE",
"323 511 CURVE SMOOTH",
"332 505 OFFCURVE",
"334 496 OFFCURVE",
"335 481 CURVE SMOOTH",
"340 399 LINE",
"416 399 LINE",
"430 446 OFFCURVE",
"441 501 OFFCURVE",
"443 549 CURVE",
"401 567 OFFCURVE",
"339 579 OFFCURVE",
"281 579 CURVE SMOOTH",
"143 579 OFFCURVE",
"66 507 OFFCURVE",
"55 412 CURVE SMOOTH",
"44 316 OFFCURVE",
"108 279 OFFCURVE",
"180 239 CURVE SMOOTH",
"241 205 OFFCURVE",
"294 175 OFFCURVE",
"285 113 CURVE SMOOTH",
"279 70 OFFCURVE",
"248 41 OFFCURVE",
"200 41 CURVE SMOOTH",
"167 41 OFFCURVE",
"139 56 OFFCURVE",
"127 69 CURVE SMOOTH",
"119 78 OFFCURVE",
"114 85 OFFCURVE",
"114 97 CURVE SMOOTH",
"112 191 LINE",
"34 191 LINE",
"20 148 OFFCURVE",
"8 84 OFFCURVE",
"4 31 CURVE",
"49 8 OFFCURVE",
"115 -12 OFFCURVE",
"191 -12 CURVE SMOOTH",
"349 -12 OFFCURVE",
"418 79 OFFCURVE"
);
}
);
};
layerId = "925CB40E-795E-477B-BAE7-1EE7D58841B5";
paths = (
{
closed = 1;
nodes = (
"335 -13 OFFCURVE",
"421 69 OFFCURVE",
"423 178 CURVE SMOOTH",
"426 349 OFFCURVE",
"195 337 OFFCURVE",
"195 452 CURVE SMOOTH",
"195 495 OFFCURVE",
"229 528 OFFCURVE",
"274 528 CURVE SMOOTH",
"292 528 OFFCURVE",
"310 521 OFFCURVE",
"320 513 CURVE SMOOTH",
"334 502 OFFCURVE",
"335 491 OFFCURVE",
"338 463 CURVE SMOOTH",
"344 399 LINE",
"417 399 LINE",
"430 446 OFFCURVE",
"440 508 OFFCURVE",
"441 552 CURVE",
"396 570 OFFCURVE",
"341 581 OFFCURVE",
"287 581 CURVE SMOOTH",
"149 581 OFFCURVE",
"65 501 OFFCURVE",
"65 400 CURVE SMOOTH",
"65 234 OFFCURVE",
"291 254 OFFCURVE",
"291 126 CURVE SMOOTH",
"291 76 OFFCURVE",
"254 42 OFFCURVE",
"205 42 CURVE SMOOTH",
"180 42 OFFCURVE",
"155 51 OFFCURVE",
"139 67 CURVE SMOOTH",
"122 84 OFFCURVE",
"122 101 OFFCURVE",
"121 119 CURVE SMOOTH",
"117 198 LINE",
"41 198 LINE",
"28 154 OFFCURVE",
"14 95 OFFCURVE",
"12 29 CURVE",
"58 3 OFFCURVE",
"125 -13 OFFCURVE",
"186 -13 CURVE SMOOTH"
);
}
);
width = 449;
}
);
leftKerningGroup = S;
rightKerningGroup = S;
unicode = 0053;
userData = {
com.typemytype.robofont.layerData = {
background = {
anchors = (
{
name = btm;
x = 560;
y = -170;
},
{
name = top;
x = 605;
y = 1700;
}
);
components = (
);
contours = (
{
points = (
{
segmentType = curve;
smooth = 1;
x = 545;
y = -23;
},
{
smooth = 0;
x = 883;
y = -23;
},
{
smooth = 0;
x = 1075;
y = 196;
},
{
segmentType = curve;
smooth = 1;
x = 1075;
y = 408;
},
{
smooth = 0;
x = 1075;
y = 654;
},
{
smooth = 0;
x = 838;
y = 757;
},
{
segmentType = curve;
smooth = 1;
x = 636;
y = 853;
},
{
smooth = 0;
x = 421;
y = 955;
},
{
smooth = 0;
x = 274;
y = 1018;
},
{
segmentType = curve;
smooth = 1;
x = 274;
y = 1194;
},
{
smooth = 0;
x = 274;
y = 1360;
},
{
smooth = 0;
x = 384;
y = 1441;
},
{
segmentType = curve;
smooth = 1;
x = 586;
y = 1441;
},
{
smooth = 0;
x = 702;
y = 1441;
},
{
smooth = 0;
x = 803;
y = 1407;
},
{
segmentType = curve;
smooth = 0;
x = 831;
y = 1383;
},
{
segmentType = line;
smooth = 0;
x = 869;
y = 1128;
},
{
segmentType = line;
smooth = 0;
x = 970;
y = 1128;
},
{
segmentType = line;
smooth = 0;
x = 983;
y = 1465;
},
{
smooth = 0;
x = 923;
y = 1475;
},
{
smooth = 0;
x = 779;
y = 1538;
},
{
segmentType = curve;
smooth = 1;
x = 595;
y = 1538;
},
{
smooth = 0;
x = 312;
y = 1538;
},
{
smooth = 0;
x = 113;
y = 1383;
},
{
segmentType = curve;
smooth = 1;
x = 113;
y = 1152;
},
{
smooth = 0;
x = 113;
y = 888;
},
{
smooth = 0;
x = 361;
y = 778;
},
{
segmentType = curve;
smooth = 1;
x = 530;
y = 705;
},
{
smooth = 0;
x = 737;
y = 616;
},
{
smooth = 0;
x = 898;
y = 542;
},
{
segmentType = curve;
smooth = 1;
x = 898;
y = 362;
},
{
smooth = 0;
x = 898;
y = 189;
},
{
smooth = 0;
x = 781;
y = 77;
},
{
segmentType = curve;
smooth = 1;
x = 555;
y = 77;
},
{
smooth = 0;
x = 414;
y = 77;
},
{
smooth = 0;
x = 293;
y = 122;
},
{
segmentType = curve;
smooth = 0;
x = 245;
y = 168;
},
{
segmentType = line;
smooth = 0;
x = 214;
y = 437;
},
{
segmentType = line;
smooth = 0;
x = 109;
y = 437;
},
{
segmentType = line;
smooth = 0;
x = 92;
y = 71;
},
{
smooth = 0;
x = 156;
y = 65;
},
{
smooth = 0;
x = 313;
y = -23;
}
);
}
);
lib = {
};
name = S;
unicodes = (
);
width = 1227;
};
};
};
},
{
color = 8;
glyphname = T;
lastChange = "2020-03-17 15:10:16 +0000";
layers = (
{
anchors = (
{
name = btm;
position = "{220, 0}";
},
{
name = top;
position = "{293, 568}";
}
);
background = {
anchors = (
{
name = btm;
position = "{220, 0}";
},
{
name = top;
position = "{293, 568}";
}
);
paths = (
{
closed = 1;
nodes = (
"359 0 LINE",
"363 32 LINE",
"280 45 LINE SMOOTH",
"266 47 OFFCURVE",
"259 54 OFFCURVE",
"261 68 CURVE SMOOTH",
"318 532 LINE",
"367 532 LINE SMOOTH",
"405 532 OFFCURVE",
"433 529 OFFCURVE",
"448 524 CURVE SMOOTH",
"458 521 OFFCURVE",
"464 514 OFFCURVE",
"465 501 CURVE SMOOTH",
"474 406 LINE",
"509 406 LINE",
"521 464 OFFCURVE",
"525 516 OFFCURVE",
"526 568 CURVE",
"60 568 LINE",
"47 516 OFFCURVE",
"38 464 OFFCURVE",
"34 406 CURVE",
"70 406 LINE",
"103 501 LINE SMOOTH",
"107 514 OFFCURVE",
"114 520 OFFCURVE",
"126 524 CURVE SMOOTH",
"141 529 OFFCURVE",
"173 532 OFFCURVE",
"210 532 CURVE SMOOTH",
"257 532 LINE",
"200 68 LINE SMOOTH",
"198 54 OFFCURVE",
"191 47 OFFCURVE",
"177 45 CURVE SMOOTH",
"90 32 LINE",
"86 0 LINE"
);
}
);
};
layerId = "DAAEA780-4710-4479-B303-5C05B40621B2";
paths = (
{
closed = 1;
nodes = (
"356 0 LINE",
"360 32 LINE",
"288 41 LINE SMOOTH",
"264 44 OFFCURVE",
"259 51 OFFCURVE",
"261 68 CURVE SMOOTH",
"319 532 LINE",
"354 532 LINE SMOOTH",
"386 532 OFFCURVE",
"414 530 OFFCURVE",
"427 526 CURVE SMOOTH",
"438 522 OFFCURVE",
"443 514 OFFCURVE",
"444 497 CURVE SMOOTH",
"450 406 LINE",
"485 406 LINE",
"499 464 OFFCURVE",
"506 514 OFFCURVE",
"508 568 CURVE",
"77 568 LINE",
"67 518 OFFCURVE",
"59 464 OFFCURVE",
"57 406 CURVE",
"93 406 LINE",
"122 497 LINE SMOOTH",
"127 511 OFFCURVE",
"134 521 OFFCURVE",
"148 526 CURVE SMOOTH",
"163 531 OFFCURVE",
"192 532 OFFCURVE",
"224 532 CURVE SMOOTH",
"257 532 LINE",
"200 75 LINE SMOOTH",
"197 51 OFFCURVE",
"192 44 OFFCURVE",
"169 42 CURVE SMOOTH",
"92 32 LINE",
"88 0 LINE"
);
}
);
width = 495;
},
{
anchors = (
{
name = btm;
position = "{248, 0}";
},
{
name = top;
position = "{319, 568}";
}
);
background = {
anchors = (
{
name = btm;
position = "{248, 0}";
},
{
name = top;
position = "{319, 568}";
}
);
paths = (
{
closed = 1;
nodes = (
"420 0 LINE",
"427 52 LINE",
"343 66 LINE SMOOTH",
"332 68 OFFCURVE",
"328 74 OFFCURVE",
"329 85 CURVE SMOOTH",
"381 512 LINE",
"410 512 LINE SMOOTH",
"430 512 OFFCURVE",
"449 509 OFFCURVE",
"459 505 CURVE SMOOTH",
"469 501 OFFCURVE",
"473 495 OFFCURVE",
"474 486 CURVE SMOOTH",
"491 360 LINE",
"558 360 LINE",
"574 433 OFFCURVE",
"585 493 OFFCURVE",
"586 568 CURVE",
"51 568 LINE",
"34 493 OFFCURVE",
"30 435 OFFCURVE",
"28 360 CURVE",
"95 360 LINE",
"142 485 LINE SMOOTH",
"146 495 OFFCURVE",
"151 501 OFFCURVE",
"161 505 CURVE SMOOTH",
"174 510 OFFCURVE",
"193 512 OFFCURVE",
"212 512 CURVE SMOOTH",
"243 512 LINE",
"191 85 LINE SMOOTH",
"190 74 OFFCURVE",
"182 68 OFFCURVE",
"171 66 CURVE SMOOTH",
"84 52 LINE",
"77 0 LINE"
);
}
);
};
guideLines = (
{
position = "{636, 61}";
}
);
layerId = "925CB40E-795E-477B-BAE7-1EE7D58841B5";
paths = (
{
closed = 1;
nodes = (
"412 0 LINE",
"419 52 LINE",
"350 61 LINE SMOOTH",
"329 64 OFFCURVE",
"325 70 OFFCURVE",
"327 85 CURVE SMOOTH",
"380 512 LINE",
"400 512 LINE SMOOTH",
"418 512 OFFCURVE",
"435 511 OFFCURVE",
"445 507 CURVE SMOOTH",
"459 501 OFFCURVE",
"462 494 OFFCURVE",
"463 477 CURVE SMOOTH",
"473 361 LINE",
"539 361 LINE",
"558 434 OFFCURVE",
"570 495 OFFCURVE",
"573 568 CURVE",
"64 568 LINE",
"51 492 OFFCURVE",
"47 443 OFFCURVE",
"45 361 CURVE",
"111 361 LINE",
"151 479 LINE SMOOTH",
"156 493 OFFCURVE",
"161 502 OFFCURVE",
"174 507 CURVE SMOOTH",
"188 512 OFFCURVE",
"205 512 OFFCURVE",
"222 512 CURVE SMOOTH",
"244 512 LINE",
"191 86 LINE SMOOTH",
"189 66 OFFCURVE",
"177 64 OFFCURVE",
"162 62 CURVE SMOOTH",
"93 52 LINE",
"87 0 LINE"
);
}
);
width = 548;
}
);
leftKerningGroup = T;
rightKerningGroup = T;
rightMetricsKey = "=|";
unicode = 0054;
userData = {
com.schriftgestaltung.Glyphs.rightMetricsKey = "=|";
com.typemytype.robofont.layerData = {
background = {
anchors = (
{
name = btm;
x = 712;
y = -170;
},
{
name = top;
x = 712;
y = 1700;
}
);
components = (
);
contours = (
{
points = (
{
segmentType = line;
smooth = 0;
x = 336;
y = 0;
},
{
segmentType = line;
smooth = 0;
x = 1073;
y = 0;
},
{
segmentType = line;
smooth = 0;
x = 1073;
y = 88;
},
{
segmentType = line;
smooth = 0;
x = 731;
y = 111;
},
{
segmentType = line;
smooth = 0;
x = 781;
y = 58;
},
{
segmentType = line;
smooth = 0;
x = 781;
y = 1429;
},
{
segmentType = line;
smooth = 0;
x = 1175;
y = 1418;
},
{
segmentType = line;
smooth = 0;
x = 1232;
y = 1001;
},
{
segmentType = line;
smooth = 0;
x = 1342;
y = 1001;
},
{
segmentType = line;
smooth = 0;
x = 1319;
y = 1522;
},
{
segmentType = line;
smooth = 0;
x = 71;
y = 1522;
},
{
segmentType = line;
smooth = 0;
x = 37;
y = 1001;
},
{
segmentType = line;
smooth = 0;
x = 149;
y = 1001;
},
{
segmentType = line;
smooth = 0;
x = 215;
y = 1418;
},
{
segmentType = line;
smooth = 0;
x = 604;
y = 1429;
},
{
segmentType = line;
smooth = 0;
x = 604;
y = 61;
},
{
segmentType = line;
smooth = 0;
x = 653;
y = 111;
},
{
segmentType = line;
smooth = 0;
x = 336;
y = 88;
}
);
}
);
lib = {
};
name = T;
unicodes = (
);
width = 1442;
};
};
};
},
{
color = 8;
glyphname = U;
lastChange = "2020-03-12 14:06:27 +0000";
layers = (
{
anchors = (
{
name = btm;
position = "{246, 0}";
},
{
name = top;
position = "{325, 568}";
}
);
background = {
anchors = (
{
name = btm;
position = "{246, 0}";
},
{
name = top;
position = "{325, 568}";
}
);
paths = (
{
closed = 1;
nodes = (
"389 568 LINE",
"385 536 LINE",
"448 524 LINE SMOOTH",
"461 522 OFFCURVE",
"466 514 OFFCURVE",
"464 501 CURVE SMOOTH",
"428 206 LINE SMOOTH",
"414 89 OFFCURVE",
"362 29 OFFCURVE",
"257 29 CURVE SMOOTH",
"172 29 OFFCURVE",
"116 71 OFFCURVE",
"133 212 CURVE SMOOTH",
"168 500 LINE SMOOTH",
"170 513 OFFCURVE",
"178 522 OFFCURVE",
"190 524 CURVE SMOOTH",
"258 536 LINE",
"262 568 LINE",
"50 568 LINE",
"46 536 LINE",
"89 525 LINE SMOOTH",
"101 522 OFFCURVE",
"106 514 OFFCURVE",
"104 501 CURVE SMOOTH",
"69 219 LINE SMOOTH",
"50 69 OFFCURVE",
"102 -7 OFFCURVE",
"241 -7 CURVE SMOOTH",
"374 -7 OFFCURVE",
"458 59 OFFCURVE",
"476 209 CURVE SMOOTH",
"512 501 LINE SMOOTH",
"514 514 OFFCURVE",
"521 522 OFFCURVE",
"534 525 CURVE SMOOTH",
"580 536 LINE",
"584 568 LINE"
);
}
);
};
layerId = "DAAEA780-4710-4479-B303-5C05B40621B2";
paths = (
{
closed = 1;
nodes = (
"422 -9 OFFCURVE",
"456 117 OFFCURVE",
"467 209 CURVE SMOOTH",
"502 493 LINE SMOOTH",
"505 516 OFFCURVE",
"508 522 OFFCURVE",
"530 527 CURVE SMOOTH",
"568 536 LINE",
"572 568 LINE",
"382 568 LINE",
"378 536 LINE",
"437 526 LINE SMOOTH",
"451 524 OFFCURVE",
"456 517 OFFCURVE",
"454 500 CURVE SMOOTH",
"418 209 LINE SMOOTH",
"408 128 OFFCURVE",
"381 29 OFFCURVE",
"263 29 CURVE SMOOTH",
"176 29 OFFCURVE",
"146 81 OFFCURVE",
"146 162 CURVE SMOOTH",
"146 183 OFFCURVE",
"149 215 OFFCURVE",
"152 240 CURVE SMOOTH",
"183 493 LINE SMOOTH",
"186 521 OFFCURVE",
"195 523 OFFCURVE",
"210 526 CURVE SMOOTH",
"268 536 LINE",
"272 568 LINE",
"68 568 LINE",
"64 536 LINE",
"103 527 LINE SMOOTH",
"117 524 OFFCURVE",
"123 517 OFFCURVE",
"120 500 CURVE SMOOTH",
"87 237 LINE SMOOTH",
"83 205 OFFCURVE",
"81 177 OFFCURVE",
"81 156 CURVE SMOOTH",
"81 46 OFFCURVE",
"138 -9 OFFCURVE",
"252 -9 CURVE SMOOTH"
);
}
);
width = 550;
},
{
anchors = (
{
name = btm;
position = "{267, 0}";
},
{
name = top;
position = "{349, 568}";
}
);
background = {
anchors = (
{
name = btm;
position = "{267, 0}";
},
{
name = top;
position = "{349, 568}";
}
);
paths = (
{
closed = 1;
nodes = (
"404 568 LINE",
"398 513 LINE",
"457 502 LINE SMOOTH",
"468 500 OFFCURVE",
"472 493 OFFCURVE",
"471 481 CURVE SMOOTH",
"437 203 LINE SMOOTH",
"426 110 OFFCURVE",
"389 45 OFFCURVE",
"300 45 CURVE SMOOTH",
"215 45 OFFCURVE",
"193 104 OFFCURVE",
"205 203 CURVE SMOOTH",
"239 480 LINE SMOOTH",
"240 491 OFFCURVE",
"247 499 OFFCURVE",
"258 501 CURVE SMOOTH",
"318 513 LINE",
"324 568 LINE",
"55 568 LINE",
"49 513 LINE",
"83 503 LINE SMOOTH",
"93 500 OFFCURVE",
"98 493 OFFCURVE",
"97 482 CURVE SMOOTH",
"64 215 LINE SMOOTH",
"44 56 OFFCURVE",
"114 -9 OFFCURVE",
"272 -9 CURVE SMOOTH",
"409 -9 OFFCURVE",
"502 50 OFFCURVE",
"522 210 CURVE SMOOTH",
"556 482 LINE SMOOTH",
"557 493 OFFCURVE",
"563 500 OFFCURVE",
"574 503 CURVE SMOOTH",
"616 513 LINE",
"622 568 LINE"
);
}
);
};
layerId = "925CB40E-795E-477B-BAE7-1EE7D58841B5";
paths = (
{
closed = 1;
nodes = (
"420 -11 OFFCURVE",
"496 57 OFFCURVE",
"514 206 CURVE SMOOTH",
"548 485 LINE SMOOTH",
"550 504 OFFCURVE",
"560 508 OFFCURVE",
"572 510 CURVE SMOOTH",
"606 516 LINE",
"612 568 LINE",
"399 568 LINE",
"393 516 LINE",
"442 507 LINE SMOOTH",
"457 504 OFFCURVE",
"462 499 OFFCURVE",
"460 483 CURVE SMOOTH",
"425 199 LINE SMOOTH",
"412 91 OFFCURVE",
"374 46 OFFCURVE",
"299 46 CURVE SMOOTH",
"243 46 OFFCURVE",
"210 75 OFFCURVE",
"210 146 CURVE SMOOTH",
"210 163 OFFCURVE",
"212 185 OFFCURVE",
"216 216 CURVE SMOOTH",
"250 483 LINE SMOOTH",
"253 503 OFFCURVE",
"263 505 OFFCURVE",
"273 507 CURVE SMOOTH",
"323 516 LINE",
"329 568 LINE",
"62 568 LINE",
"56 516 LINE",
"91 509 LINE SMOOTH",
"106 506 OFFCURVE",
"111 501 OFFCURVE",
"109 485 CURVE SMOOTH",
"77 231 LINE SMOOTH",
"74 207 OFFCURVE",
"72 181 OFFCURVE",
"72 155 CURVE SMOOTH",
"72 44 OFFCURVE",
"133 -11 OFFCURVE",
"266 -11 CURVE SMOOTH"
);
}
);
width = 585;
}
);
leftKerningGroup = U;
rightKerningGroup = U;
rightMetricsKey = "=|";
unicode = 0055;
userData = {
com.schriftgestaltung.Glyphs.rightMetricsKey = "=|";
com.typemytype.robofont.layerData = {
background = {
anchors = (
{
name = btm;
x = 793;
y = -170;
},
{
name = top;
x = 799;
y = 1700;
}
);
components = (
);
contours = (
{
points = (
{
segmentType = curve;
smooth = 1;
x = 781;
y = -16;
},
{
smooth = 0;
x = 1092;
y = -16;
},
{
smooth = 0;
x = 1322;
y = 181;
},
{
segmentType = curve;
smooth = 1;
x = 1322;
y = 625;
},
{
segmentType = line;
smooth = 0;
x = 1322;
y = 1460;
},
{
segmentType = line;
smooth = 0;
x = 1294;
y = 1407;
},
{
segmentType = line;
smooth = 0;
x = 1479;
y = 1434;
},
{
segmentType = line;
smooth = 0;
x = 1479;
y = 1522;
},
{
segmentType = line;
smooth = 0;
x = 1024;
y = 1522;
},
{
segmentType = line;
smooth = 0;
x = 1024;
y = 1434;
},
{
segmentType = line;
smooth = 0;
x = 1227;
y = 1406;
},
{
segmentType = line;
smooth = 0;
x = 1193;
y = 1460;
},
{
segmentType = line;
smooth = 0;
x = 1193;
y = 617;
},
{
smooth = 0;
x = 1193;
y = 269;
},
{
smooth = 0;
x = 1059;
y = 83;
},
{
segmentType = curve;
smooth = 1;
x = 797;
y = 83;
},
{
smooth = 0;
x = 557;
y = 83;
},
{
smooth = 0;
x = 385;
y = 208;
},
{
segmentType = curve;
smooth = 1;
x = 385;
y = 633;
},
{
segmentType = line;
smooth = 0;
x = 385;
y = 1460;
},
{
segmentType = line;
smooth = 0;
x = 356;
y = 1407;
},
{
segmentType = line;
smooth = 0;
x = 561;
y = 1434;
},
{
segmentType = line;
smooth = 0;
x = 561;
y = 1522;
},
{
segmentType = line;
smooth = 0;
x = 60;
y = 1522;
},
{
segmentType = line;
smooth = 0;
x = 60;
y = 1434;
},
{
segmentType = line;
smooth = 0;
x = 238;
y = 1407;
},
{
segmentType = line;
smooth = 0;
x = 212;
y = 1460;
},
{
segmentType = line;
smooth = 0;
x = 212;
y = 651;
},
{
smooth = 0;
x = 212;
y = 199;
},
{
smooth = 0;
x = 385;
y = -16;
}
);
}
);
lib = {
};
name = U;
unicodes = (
);
width = 1638;
};
};
};
},
{
color = 8;
glyphname = V;
lastChange = "2020-03-19 14:04:25 +0000";
layers = (
{
anchors = (
{
name = bottom;
position = "{226, -65}";
},
{
name = btm;
position = "{245, 0}";
},
{
name = top;
position = "{263, 568}";
}
);
background = {
anchors = (
{
name = bottom;
position = "{226, -65}";
},
{
name = btm;
position = "{245, 0}";
},
{
name = top;
position = "{263, 568}";
}
);
paths = (
{
closed = 1;
nodes = (
"213 -2 LINE",
"271 -2 LINE",
"507 505 LINE SMOOTH",
"512 516 OFFCURVE",
"522 521 OFFCURVE",
"532 524 CURVE SMOOTH",
"576 536 LINE",
"580 568 LINE",
"395 568 LINE",
"391 536 LINE",
"465 521 LINE",
"240 28 LINE",
"269 28 LINE",
"147 521 LINE",
"226 536 LINE",
"230 568 LINE",
"29 568 LINE",
"25 536 LINE",
"64 524 LINE SMOOTH",
"76 520 OFFCURVE",
"81 516 OFFCURVE",
"84 505 CURVE SMOOTH"
);
}
);
};
guideLines = (
{
angle = -78.0829;
position = "{151, 249}";
},
{
angle = 66.1635;
position = "{374, 252}";
},
{
angle = 18.4349;
position = "{547, 536}";
},
{
angle = -78.0829;
position = "{158, 521}";
}
);
layerId = "DAAEA780-4710-4479-B303-5C05B40621B2";
paths = (
{
closed = 1;
nodes = (
"204 -2 LINE",
"263 -2 LINE",
"486 503 LINE SMOOTH",
"492 517 OFFCURVE",
"498 521 OFFCURVE",
"512 525 CURVE SMOOTH",
"548 536 LINE",
"552 568 LINE",
"376 568 LINE",
"372 536 LINE",
"442 521 LINE",
"230 31 LINE",
"258 31 LINE",
"158 521 LINE",
"230 536 LINE",
"234 568 LINE",
"43 568 LINE",
"39 536 LINE",
"77 525 LINE SMOOTH",
"90 521 OFFCURVE",
"95 515 OFFCURVE",
"98 500 CURVE SMOOTH"
);
}
);
width = 513;
},
{
anchors = (
{
name = bottom;
position = "{275, -65}";
},
{
name = btm;
position = "{333, 0}";
},
{
name = top;
position = "{279, 568}";
}
);
background = {
anchors = (
{
name = bottom;
position = "{275, -65}";
},
{
name = btm;
position = "{333, 0}";
},
{
name = top;
position = "{279, 568}";
}
);
paths = (
{
closed = 1;
nodes = (
"226 -2 LINE",
"349 -2 LINE",
"568 485 LINE SMOOTH",
"573 496 OFFCURVE",
"582 500 OFFCURVE",
"590 502 CURVE SMOOTH",
"641 513 LINE",
"648 568 LINE",
"436 568 LINE",
"429 513 LINE",
"497 500 LINE",
"308 58 LINE",
"344 58 LINE",
"249 500 LINE",
"321 513 LINE",
"328 568 LINE",
"54 568 LINE",
"47 513 LINE",
"92 502 LINE SMOOTH",
"100 500 OFFCURVE",
"106 496 OFFCURVE",
"109 485 CURVE SMOOTH"
);
}
);
};
guideLines = (
{
angle = 66.3768;
position = "{465, 500}";
},
{
angle = -78.058;
position = "{234, 500}";
},
{
angle = -78.058;
position = "{201, -2}";
},
{
angle = 66.3768;
position = "{432, 242}";
},
{
angle = 11.7683;
position = "{608, 513}";
},
{
angle = -11.8215;
position = "{34, 513}";
}
);
layerId = "925CB40E-795E-477B-BAE7-1EE7D58841B5";
paths = (
{
closed = 1;
nodes = (
"201 -2 LINE",
"325 -2 LINE",
"532 480 LINE SMOOTH",
"539 496 OFFCURVE",
"545 501 OFFCURVE",
"561 504 CURVE SMOOTH",
"604 513 LINE",
"611 568 LINE",
"400 568 LINE",
"393 513 LINE",
"461 500 LINE",
"279 58 LINE",
"320 58 LINE",
"238 500 LINE",
"304 513 LINE",
"311 568 LINE",
"45 568 LINE",
"38 513 LINE",
"79 504 LINE SMOOTH",
"95 501 OFFCURVE",
"100 496 OFFCURVE",
"104 477 CURVE SMOOTH"
);
}
);
width = 571;
}
);
unicode = 0056;
userData = {
com.typemytype.robofont.layerData = {
background = {
anchors = (
{
name = btm;
x = 703;
y = -170;
},
{
name = top;
x = 672;
y = 1700;
}
);
components = (
);
contours = (
{
points = (
{
segmentType = line;
smooth = 0;
x = 633;
y = -16;
},
{
segmentType = line;
smooth = 0;
x = 768;
y = -16;
},
{
segmentType = line;
smooth = 0;
x = 1271;
y = 1455;
},
{
segmentType = line;
smooth = 0;
x = 1228;
y = 1407;
},
{
segmentType = line;
smooth = 0;
x = 1386;
y = 1434;
},
{
segmentType = line;
smooth = 0;
x = 1386;
y = 1522;
},
{
segmentType = line;
smooth = 0;
x = 955;
y = 1522;
},
{
segmentType = line;
smooth = 0;
x = 955;
y = 1434;
},
{
segmentType = line;
smooth = 0;
x = 1139;
y = 1409;
},
{
segmentType = line;
smooth = 0;
x = 1134;
y = 1457;
},
{
segmentType = line;
smooth = 0;
x = 805;
y = 428;
},
{
segmentType = line;
smooth = 0;
x = 727;
y = 145;
},
{
segmentType = line;
smooth = 0;
x = 641;
y = 423;
},
{
segmentType = line;
smooth = 0;
x = 263;
y = 1454;
},
{
segmentType = line;
smooth = 0;
x = 244;
y = 1408;
},
{
segmentType = line;
smooth = 0;
x = 467;
y = 1434;
},
{
segmentType = line;
smooth = 0;
x = 467;
y = 1522;
},
{
segmentType = line;
smooth = 0;
x = -30;
y = 1522;
},
{
segmentType = line;
smooth = 0;
x = -30;
y = 1434;
},
{
segmentType = line;
smooth = 0;
x = 135;
y = 1405;
},
{
segmentType = line;
smooth = 0;
x = 83;
y = 1450;
}
);
}
);
lib = {
};
name = V;
unicodes = (
);
width = 1482;
};
};
};
},
